%TF.GenerationSoftware,KiCad,Pcbnew,7.0.7*%
%TF.CreationDate,2024-03-03T19:12:32-08:00*%
%TF.ProjectId,rp2040_audio_spectrum,72703230-3430-45f6-9175-64696f5f7370,rev?*%
%TF.SameCoordinates,Original*%
%TF.FileFunction,Soldermask,Top*%
%TF.FilePolarity,Negative*%
%FSLAX46Y46*%
G04 Gerber Fmt 4.6, Leading zero omitted, Abs format (unit mm)*
G04 Created by KiCad (PCBNEW 7.0.7) date 2024-03-03 19:12:32*
%MOMM*%
%LPD*%
G01*
G04 APERTURE LIST*
G04 Aperture macros list*
%AMRoundRect*
0 Rectangle with rounded corners*
0 $1 Rounding radius*
0 $2 $3 $4 $5 $6 $7 $8 $9 X,Y pos of 4 corners*
0 Add a 4 corners polygon primitive as box body*
4,1,4,$2,$3,$4,$5,$6,$7,$8,$9,$2,$3,0*
0 Add four circle primitives for the rounded corners*
1,1,$1+$1,$2,$3*
1,1,$1+$1,$4,$5*
1,1,$1+$1,$6,$7*
1,1,$1+$1,$8,$9*
0 Add four rect primitives between the rounded corners*
20,1,$1+$1,$2,$3,$4,$5,0*
20,1,$1+$1,$4,$5,$6,$7,0*
20,1,$1+$1,$6,$7,$8,$9,0*
20,1,$1+$1,$8,$9,$2,$3,0*%
%AMFreePoly0*
4,1,6,0.725000,-0.725000,-0.725000,-0.725000,-0.725000,0.125000,-0.125000,0.725000,0.725000,0.725000,0.725000,-0.725000,0.725000,-0.725000,$1*%
G04 Aperture macros list end*
%ADD10C,1.000000*%
%ADD11O,1.700000X1.700000*%
%ADD12R,1.700000X1.700000*%
%ADD13C,2.200000*%
%ADD14C,3.200000*%
%ADD15RoundRect,0.140000X-0.140000X-0.170000X0.140000X-0.170000X0.140000X0.170000X-0.140000X0.170000X0*%
%ADD16R,0.900000X1.500000*%
%ADD17RoundRect,0.250000X-0.262500X-0.450000X0.262500X-0.450000X0.262500X0.450000X-0.262500X0.450000X0*%
%ADD18RoundRect,0.140000X0.170000X-0.140000X0.170000X0.140000X-0.170000X0.140000X-0.170000X-0.140000X0*%
%ADD19RoundRect,0.140000X-0.170000X0.140000X-0.170000X-0.140000X0.170000X-0.140000X0.170000X0.140000X0*%
%ADD20RoundRect,0.150000X-0.150000X0.825000X-0.150000X-0.825000X0.150000X-0.825000X0.150000X0.825000X0*%
%ADD21RoundRect,0.243750X0.456250X-0.243750X0.456250X0.243750X-0.456250X0.243750X-0.456250X-0.243750X0*%
%ADD22RoundRect,0.250000X-0.325000X-0.650000X0.325000X-0.650000X0.325000X0.650000X-0.325000X0.650000X0*%
%ADD23RoundRect,0.135000X0.135000X0.185000X-0.135000X0.185000X-0.135000X-0.185000X0.135000X-0.185000X0*%
%ADD24RoundRect,0.250000X0.450000X-0.262500X0.450000X0.262500X-0.450000X0.262500X-0.450000X-0.262500X0*%
%ADD25R,1.500000X1.000000*%
%ADD26R,1.000000X0.750000*%
%ADD27R,0.600000X0.540000*%
%ADD28RoundRect,0.140000X0.140000X0.170000X-0.140000X0.170000X-0.140000X-0.170000X0.140000X-0.170000X0*%
%ADD29RoundRect,0.250000X0.325000X0.650000X-0.325000X0.650000X-0.325000X-0.650000X0.325000X-0.650000X0*%
%ADD30RoundRect,0.150000X-0.825000X-0.150000X0.825000X-0.150000X0.825000X0.150000X-0.825000X0.150000X0*%
%ADD31RoundRect,0.125000X-0.125000X0.250000X-0.125000X-0.250000X0.125000X-0.250000X0.125000X0.250000X0*%
%ADD32R,4.300000X3.400000*%
%ADD33R,0.400000X1.350000*%
%ADD34O,1.200000X1.900000*%
%ADD35R,1.200000X1.900000*%
%ADD36C,1.450000*%
%ADD37R,1.500000X1.900000*%
%ADD38R,2.000000X4.600000*%
%ADD39O,2.000000X4.200000*%
%ADD40O,4.200000X2.000000*%
%ADD41RoundRect,0.225000X0.225000X0.250000X-0.225000X0.250000X-0.225000X-0.250000X0.225000X-0.250000X0*%
%ADD42RoundRect,0.135000X0.185000X-0.135000X0.185000X0.135000X-0.185000X0.135000X-0.185000X-0.135000X0*%
%ADD43RoundRect,0.135000X-0.135000X-0.185000X0.135000X-0.185000X0.135000X0.185000X-0.135000X0.185000X0*%
%ADD44C,0.990600*%
%ADD45C,0.787400*%
%ADD46C,1.500000*%
%ADD47R,1.200000X2.500000*%
%ADD48RoundRect,0.250000X0.650000X-0.325000X0.650000X0.325000X-0.650000X0.325000X-0.650000X-0.325000X0*%
%ADD49RoundRect,0.050000X-0.050000X0.387500X-0.050000X-0.387500X0.050000X-0.387500X0.050000X0.387500X0*%
%ADD50RoundRect,0.050000X-0.387500X0.050000X-0.387500X-0.050000X0.387500X-0.050000X0.387500X0.050000X0*%
%ADD51R,3.200000X3.200000*%
%ADD52R,1.200000X1.400000*%
%ADD53RoundRect,0.135000X-0.185000X0.135000X-0.185000X-0.135000X0.185000X-0.135000X0.185000X0.135000X0*%
%ADD54R,0.800000X0.400000*%
%ADD55R,0.400000X0.800000*%
%ADD56FreePoly0,180.000000*%
%ADD57R,1.450000X1.450000*%
%ADD58R,0.700000X0.700000*%
%ADD59C,0.650000*%
%ADD60R,1.450000X0.600000*%
%ADD61R,1.450000X0.300000*%
%ADD62O,2.100000X1.000000*%
%ADD63O,1.600000X1.000000*%
%ADD64R,0.650000X0.400000*%
%ADD65RoundRect,0.150000X0.512500X0.150000X-0.512500X0.150000X-0.512500X-0.150000X0.512500X-0.150000X0*%
G04 APERTURE END LIST*
D10*
X318297474Y-246494000D02*
X319011760Y-246732095D01*
X319011760Y-246732095D02*
X320202236Y-246732095D01*
X320202236Y-246732095D02*
X320678427Y-246494000D01*
X320678427Y-246494000D02*
X320916522Y-246255904D01*
X320916522Y-246255904D02*
X321154617Y-245779714D01*
X321154617Y-245779714D02*
X321154617Y-245303523D01*
X321154617Y-245303523D02*
X320916522Y-244827333D01*
X320916522Y-244827333D02*
X320678427Y-244589238D01*
X320678427Y-244589238D02*
X320202236Y-244351142D01*
X320202236Y-244351142D02*
X319249855Y-244113047D01*
X319249855Y-244113047D02*
X318773665Y-243874952D01*
X318773665Y-243874952D02*
X318535570Y-243636857D01*
X318535570Y-243636857D02*
X318297474Y-243160666D01*
X318297474Y-243160666D02*
X318297474Y-242684476D01*
X318297474Y-242684476D02*
X318535570Y-242208285D01*
X318535570Y-242208285D02*
X318773665Y-241970190D01*
X318773665Y-241970190D02*
X319249855Y-241732095D01*
X319249855Y-241732095D02*
X320440332Y-241732095D01*
X320440332Y-241732095D02*
X321154617Y-241970190D01*
X323297475Y-244113047D02*
X324964141Y-244113047D01*
X325678427Y-246732095D02*
X323297475Y-246732095D01*
X323297475Y-246732095D02*
X323297475Y-241732095D01*
X323297475Y-241732095D02*
X325678427Y-241732095D01*
X327821285Y-244113047D02*
X329487951Y-244113047D01*
X330202237Y-246732095D02*
X327821285Y-246732095D01*
X327821285Y-246732095D02*
X327821285Y-241732095D01*
X327821285Y-241732095D02*
X330202237Y-241732095D01*
X335440333Y-241732095D02*
X338297476Y-241732095D01*
X336868904Y-246732095D02*
X336868904Y-241732095D01*
X339964143Y-246732095D02*
X339964143Y-241732095D01*
X339964143Y-244113047D02*
X342821286Y-244113047D01*
X342821286Y-246732095D02*
X342821286Y-241732095D01*
X345202238Y-244113047D02*
X346868904Y-244113047D01*
X347583190Y-246732095D02*
X345202238Y-246732095D01*
X345202238Y-246732095D02*
X345202238Y-241732095D01*
X345202238Y-241732095D02*
X347583190Y-241732095D01*
X353535572Y-246732095D02*
X353535572Y-241732095D01*
X353535572Y-241732095D02*
X355202238Y-245303523D01*
X355202238Y-245303523D02*
X356868905Y-241732095D01*
X356868905Y-241732095D02*
X356868905Y-246732095D01*
X359249858Y-241732095D02*
X359249858Y-245779714D01*
X359249858Y-245779714D02*
X359487953Y-246255904D01*
X359487953Y-246255904D02*
X359726048Y-246494000D01*
X359726048Y-246494000D02*
X360202239Y-246732095D01*
X360202239Y-246732095D02*
X361154620Y-246732095D01*
X361154620Y-246732095D02*
X361630810Y-246494000D01*
X361630810Y-246494000D02*
X361868905Y-246255904D01*
X361868905Y-246255904D02*
X362107001Y-245779714D01*
X362107001Y-245779714D02*
X362107001Y-241732095D01*
X364249857Y-246494000D02*
X364964143Y-246732095D01*
X364964143Y-246732095D02*
X366154619Y-246732095D01*
X366154619Y-246732095D02*
X366630810Y-246494000D01*
X366630810Y-246494000D02*
X366868905Y-246255904D01*
X366868905Y-246255904D02*
X367107000Y-245779714D01*
X367107000Y-245779714D02*
X367107000Y-245303523D01*
X367107000Y-245303523D02*
X366868905Y-244827333D01*
X366868905Y-244827333D02*
X366630810Y-244589238D01*
X366630810Y-244589238D02*
X366154619Y-244351142D01*
X366154619Y-244351142D02*
X365202238Y-244113047D01*
X365202238Y-244113047D02*
X364726048Y-243874952D01*
X364726048Y-243874952D02*
X364487953Y-243636857D01*
X364487953Y-243636857D02*
X364249857Y-243160666D01*
X364249857Y-243160666D02*
X364249857Y-242684476D01*
X364249857Y-242684476D02*
X364487953Y-242208285D01*
X364487953Y-242208285D02*
X364726048Y-241970190D01*
X364726048Y-241970190D02*
X365202238Y-241732095D01*
X365202238Y-241732095D02*
X366392715Y-241732095D01*
X366392715Y-241732095D02*
X367107000Y-241970190D01*
X369249858Y-246732095D02*
X369249858Y-241732095D01*
X374487953Y-246255904D02*
X374249857Y-246494000D01*
X374249857Y-246494000D02*
X373535572Y-246732095D01*
X373535572Y-246732095D02*
X373059381Y-246732095D01*
X373059381Y-246732095D02*
X372345095Y-246494000D01*
X372345095Y-246494000D02*
X371868905Y-246017809D01*
X371868905Y-246017809D02*
X371630810Y-245541619D01*
X371630810Y-245541619D02*
X371392714Y-244589238D01*
X371392714Y-244589238D02*
X371392714Y-243874952D01*
X371392714Y-243874952D02*
X371630810Y-242922571D01*
X371630810Y-242922571D02*
X371868905Y-242446380D01*
X371868905Y-242446380D02*
X372345095Y-241970190D01*
X372345095Y-241970190D02*
X373059381Y-241732095D01*
X373059381Y-241732095D02*
X373535572Y-241732095D01*
X373535572Y-241732095D02*
X374249857Y-241970190D01*
X374249857Y-241970190D02*
X374487953Y-242208285D01*
D11*
%TO.C,154*%
X248929200Y-236270800D03*
%TD*%
%TO.C,152*%
X243849200Y-236270800D03*
%TD*%
%TO.C,150*%
X238769200Y-236270800D03*
%TD*%
%TO.C,149*%
X274329200Y-233730800D03*
%TD*%
%TO.C,142*%
X256549200Y-233730800D03*
%TD*%
%TO.C,134*%
X274329200Y-231190800D03*
%TD*%
%TO.C,131*%
X266709200Y-231190800D03*
%TD*%
%TO.C,147*%
X269249200Y-233730800D03*
%TD*%
%TO.C,146*%
X266709200Y-233730800D03*
%TD*%
%TO.C,143*%
X259089200Y-233730800D03*
%TD*%
%TO.C,132*%
X269249200Y-231190800D03*
%TD*%
%TO.C,133*%
X271789200Y-231190800D03*
%TD*%
%TO.C,141*%
X254009200Y-233730800D03*
%TD*%
%TO.C,138*%
X246389200Y-233730800D03*
%TD*%
%TO.C,145*%
X264169200Y-233730800D03*
%TD*%
%TO.C,137*%
X243849200Y-233730800D03*
%TD*%
%TO.C,144*%
X261629200Y-233730800D03*
%TD*%
%TO.C,151*%
X241309200Y-236270800D03*
%TD*%
%TO.C,139*%
X248929200Y-233730800D03*
%TD*%
%TO.C,153*%
X246389200Y-236270800D03*
%TD*%
%TO.C,135*%
X238769200Y-233730800D03*
%TD*%
%TO.C,140*%
X251469200Y-233730800D03*
%TD*%
%TO.C,148*%
X271789200Y-233730800D03*
%TD*%
%TO.C,136*%
X241309200Y-233730800D03*
%TD*%
%TO.C,129*%
X261629200Y-231190800D03*
%TD*%
%TO.C,127*%
X256549200Y-231190800D03*
%TD*%
%TO.C,125*%
X251469200Y-231190800D03*
%TD*%
%TO.C,122*%
X243849200Y-231190800D03*
%TD*%
%TO.C,117*%
X269249200Y-228650800D03*
%TD*%
%TO.C,108*%
X246389200Y-228650800D03*
%TD*%
%TO.C,113*%
X259089200Y-228650800D03*
%TD*%
%TO.C,111*%
X254009200Y-228650800D03*
%TD*%
%TO.C,118*%
X271789200Y-228650800D03*
%TD*%
%TO.C,116*%
X266709200Y-228650800D03*
%TD*%
%TO.C,114*%
X261629200Y-228650800D03*
%TD*%
%TO.C,119*%
X274329200Y-228650800D03*
%TD*%
%TO.C,110*%
X251469200Y-228650800D03*
%TD*%
%TO.C,120*%
X238769200Y-231190800D03*
%TD*%
%TO.C,107*%
X243849200Y-228650800D03*
%TD*%
%TO.C,115*%
X264169200Y-228650800D03*
%TD*%
%TO.C,121*%
X241309200Y-231190800D03*
%TD*%
%TO.C,106*%
X241309200Y-228650800D03*
%TD*%
%TO.C,109*%
X248929200Y-228650800D03*
%TD*%
%TO.C,112*%
X256549200Y-228650800D03*
%TD*%
%TO.C,123*%
X246389200Y-231190800D03*
%TD*%
%TO.C,130*%
X264169200Y-231190800D03*
%TD*%
%TO.C,128*%
X259089200Y-231190800D03*
%TD*%
%TO.C,126*%
X254009200Y-231190800D03*
%TD*%
%TO.C,124*%
X248929200Y-231190800D03*
%TD*%
%TO.C,208*%
X271789200Y-243890800D03*
%TD*%
%TO.C,206*%
X266709200Y-243890800D03*
%TD*%
%TO.C,204*%
X261629200Y-243890800D03*
%TD*%
%TO.C,196*%
X241309200Y-243890800D03*
%TD*%
%TO.C,187*%
X256549200Y-241350800D03*
%TD*%
%TO.C,198*%
X246389200Y-243890800D03*
%TD*%
%TO.C,203*%
X259089200Y-243890800D03*
%TD*%
%TO.C,201*%
X254009200Y-243890800D03*
%TD*%
%TO.C,193*%
X271789200Y-241350800D03*
%TD*%
%TO.C,191*%
X266709200Y-241350800D03*
%TD*%
%TO.C,189*%
X261629200Y-241350800D03*
%TD*%
%TO.C,199*%
X248929200Y-243890800D03*
%TD*%
%TO.C,195*%
X238769200Y-243890800D03*
%TD*%
%TO.C,188*%
X259089200Y-241350800D03*
%TD*%
%TO.C,200*%
X251469200Y-243890800D03*
%TD*%
%TO.C,192*%
X269249200Y-241350800D03*
%TD*%
%TO.C,194*%
X274329200Y-241350800D03*
%TD*%
%TO.C,202*%
X256549200Y-243890800D03*
%TD*%
%TO.C,207*%
X269249200Y-243890800D03*
%TD*%
%TO.C,197*%
X243849200Y-243890800D03*
%TD*%
%TO.C,209*%
X274329200Y-243890800D03*
%TD*%
%TO.C,190*%
X264169200Y-241350800D03*
%TD*%
%TO.C,205*%
X264169200Y-243890800D03*
%TD*%
%TO.C,177*%
X269249200Y-238810800D03*
%TD*%
%TO.C,185*%
X251469200Y-241350800D03*
%TD*%
%TO.C,184*%
X248929200Y-241350800D03*
%TD*%
%TO.C,182*%
X243849200Y-241350800D03*
%TD*%
%TO.C,183*%
X246389200Y-241350800D03*
%TD*%
%TO.C,180*%
X238769200Y-241350800D03*
%TD*%
%TO.C,181*%
X241309200Y-241350800D03*
%TD*%
%TO.C,179*%
X274329200Y-238810800D03*
%TD*%
%TO.C,178*%
X271789200Y-238810800D03*
%TD*%
%TO.C,171*%
X254009200Y-238810800D03*
%TD*%
%TO.C,161*%
X266709200Y-236270800D03*
%TD*%
%TO.C,156*%
X254009200Y-236270800D03*
%TD*%
%TO.C,158*%
X259089200Y-236270800D03*
%TD*%
%TO.C,162*%
X269249200Y-236270800D03*
%TD*%
%TO.C,176*%
X266709200Y-238810800D03*
%TD*%
%TO.C,164*%
X274329200Y-236270800D03*
%TD*%
%TO.C,159*%
X261629200Y-236270800D03*
%TD*%
%TO.C,165*%
X238769200Y-238810800D03*
%TD*%
%TO.C,167*%
X243849200Y-238810800D03*
%TD*%
%TO.C,155*%
X251469200Y-236270800D03*
%TD*%
%TO.C,163*%
X271789200Y-236270800D03*
%TD*%
%TO.C,186*%
X254009200Y-241350800D03*
%TD*%
%TO.C,157*%
X256549200Y-236270800D03*
%TD*%
%TO.C,173*%
X259089200Y-238810800D03*
%TD*%
%TO.C,160*%
X264169200Y-236270800D03*
%TD*%
%TO.C,172*%
X256549200Y-238810800D03*
%TD*%
%TO.C,169*%
X248929200Y-238810800D03*
%TD*%
%TO.C,174*%
X261629200Y-238810800D03*
%TD*%
%TO.C,168*%
X246389200Y-238810800D03*
%TD*%
%TO.C,166*%
X241309200Y-238810800D03*
%TD*%
%TO.C,175*%
X264169200Y-238810800D03*
%TD*%
%TO.C,170*%
X251469200Y-238810800D03*
%TD*%
%TO.C,38*%
X259089200Y-215950800D03*
%TD*%
%TO.C,36*%
X254009200Y-215950800D03*
%TD*%
%TO.C,35*%
X251469200Y-215950800D03*
%TD*%
%TO.C,23*%
X259089200Y-213410800D03*
%TD*%
%TO.C,29*%
X274329200Y-213410800D03*
%TD*%
%TO.C,19*%
X248929200Y-213410800D03*
%TD*%
%TO.C,24*%
X261629200Y-213410800D03*
%TD*%
%TO.C,28*%
X271789200Y-213410800D03*
%TD*%
%TO.C,32*%
X243849200Y-215950800D03*
%TD*%
%TO.C,25*%
X264169200Y-213410800D03*
%TD*%
%TO.C,33*%
X246389200Y-215950800D03*
%TD*%
%TO.C,27*%
X269249200Y-213410800D03*
%TD*%
%TO.C,26*%
X266709200Y-213410800D03*
%TD*%
%TO.C,22*%
X256549200Y-213410800D03*
%TD*%
%TO.C,21*%
X254009200Y-213410800D03*
%TD*%
%TO.C,20*%
X251469200Y-213410800D03*
%TD*%
%TO.C,16*%
X241309200Y-213410800D03*
%TD*%
%TO.C,34*%
X248929200Y-215950800D03*
%TD*%
%TO.C,41*%
X266709200Y-215950800D03*
%TD*%
%TO.C,40*%
X264169200Y-215950800D03*
%TD*%
%TO.C,39*%
X261629200Y-215950800D03*
%TD*%
%TO.C,37*%
X256549200Y-215950800D03*
%TD*%
%TO.C,31*%
X241309200Y-215950800D03*
%TD*%
%TO.C,30*%
X238769200Y-215950800D03*
%TD*%
%TO.C,17*%
X243849200Y-213410800D03*
%TD*%
%TO.C,18*%
X246389200Y-213410800D03*
%TD*%
%TO.C,105*%
X238769200Y-228650800D03*
%TD*%
%TO.C,104*%
X274329200Y-226110800D03*
%TD*%
%TO.C,103*%
X271789200Y-226110800D03*
%TD*%
%TO.C,102*%
X269249200Y-226110800D03*
%TD*%
%TO.C,94*%
X248929200Y-226110800D03*
%TD*%
%TO.C,88*%
X271789200Y-223570800D03*
%TD*%
%TO.C,100*%
X264169200Y-226110800D03*
%TD*%
%TO.C,80*%
X251469200Y-223570800D03*
%TD*%
%TO.C,98*%
X259089200Y-226110800D03*
%TD*%
%TO.C,90*%
X238769200Y-226110800D03*
%TD*%
%TO.C,99*%
X261629200Y-226110800D03*
%TD*%
%TO.C,93*%
X246389200Y-226110800D03*
%TD*%
%TO.C,97*%
X256549200Y-226110800D03*
%TD*%
%TO.C,96*%
X254009200Y-226110800D03*
%TD*%
%TO.C,86*%
X266709200Y-223570800D03*
%TD*%
%TO.C,85*%
X264169200Y-223570800D03*
%TD*%
%TO.C,91*%
X241309200Y-226110800D03*
%TD*%
%TO.C,87*%
X269249200Y-223570800D03*
%TD*%
%TO.C,95*%
X251469200Y-226110800D03*
%TD*%
%TO.C,92*%
X243849200Y-226110800D03*
%TD*%
%TO.C,84*%
X261629200Y-223570800D03*
%TD*%
%TO.C,81*%
X254009200Y-223570800D03*
%TD*%
%TO.C,82*%
X256549200Y-223570800D03*
%TD*%
%TO.C,83*%
X259089200Y-223570800D03*
%TD*%
%TO.C,79*%
X248929200Y-223570800D03*
%TD*%
%TO.C,101*%
X266709200Y-226110800D03*
%TD*%
%TO.C,89*%
X274329200Y-223570800D03*
%TD*%
%TO.C,77*%
X243849200Y-223570800D03*
%TD*%
%TO.C,71*%
X266709200Y-221030800D03*
%TD*%
%TO.C,63*%
X246389200Y-221030800D03*
%TD*%
%TO.C,70*%
X264169200Y-221030800D03*
%TD*%
%TO.C,67*%
X256549200Y-221030800D03*
%TD*%
%TO.C,76*%
X241309200Y-223570800D03*
%TD*%
%TO.C,69*%
X261629200Y-221030800D03*
%TD*%
%TO.C,75*%
X238769200Y-223570800D03*
%TD*%
%TO.C,74*%
X274329200Y-221030800D03*
%TD*%
%TO.C,66*%
X254009200Y-221030800D03*
%TD*%
%TO.C,68*%
X259089200Y-221030800D03*
%TD*%
%TO.C,72*%
X269249200Y-221030800D03*
%TD*%
%TO.C,73*%
X271789200Y-221030800D03*
%TD*%
%TO.C,65*%
X251469200Y-221030800D03*
%TD*%
%TO.C,61*%
X241309200Y-221030800D03*
%TD*%
%TO.C,57*%
X269249200Y-218490800D03*
%TD*%
%TO.C,56*%
X266709200Y-218490800D03*
%TD*%
%TO.C,44*%
X274329200Y-215950800D03*
%TD*%
%TO.C,52*%
X256549200Y-218490800D03*
%TD*%
%TO.C,64*%
X248929200Y-221030800D03*
%TD*%
%TO.C,55*%
X264169200Y-218490800D03*
%TD*%
%TO.C,78*%
X246389200Y-223570800D03*
%TD*%
%TO.C,53*%
X259089200Y-218490800D03*
%TD*%
%TO.C,54*%
X261629200Y-218490800D03*
%TD*%
%TO.C,42*%
X269249200Y-215950800D03*
%TD*%
%TO.C,46*%
X241309200Y-218490800D03*
%TD*%
%TO.C,43*%
X271789200Y-215950800D03*
%TD*%
%TO.C,62*%
X243849200Y-221030800D03*
%TD*%
%TO.C,58*%
X271789200Y-218490800D03*
%TD*%
%TO.C,47*%
X243849200Y-218490800D03*
%TD*%
%TO.C,50*%
X251469200Y-218490800D03*
%TD*%
%TO.C,45*%
X238769200Y-218490800D03*
%TD*%
%TO.C,59*%
X274329200Y-218490800D03*
%TD*%
%TO.C,51*%
X254009200Y-218490800D03*
%TD*%
%TO.C,48*%
X246389200Y-218490800D03*
%TD*%
%TO.C,60*%
X238769200Y-221030800D03*
%TD*%
%TO.C,49*%
X248929200Y-218490800D03*
%TD*%
%TO.C,15*%
X238769200Y-213410800D03*
%TD*%
D12*
%TO.C,J11*%
X236220000Y-213360000D03*
D11*
X236220000Y-215900000D03*
X236220000Y-218440000D03*
X236220000Y-220980000D03*
X236220000Y-223520000D03*
X236220000Y-226060000D03*
%TD*%
D12*
%TO.C,J10*%
X236220000Y-231140000D03*
D11*
X236220000Y-233680000D03*
X236220000Y-236220000D03*
X236220000Y-238760000D03*
X236220000Y-241300000D03*
X236220000Y-243840000D03*
%TD*%
D13*
%TO.C,H6*%
X168521494Y-20116800D03*
%TD*%
%TO.C,H5*%
X260295200Y-205282800D03*
%TD*%
%TO.C,H4*%
X107295200Y-205282800D03*
%TD*%
%TO.C,H3*%
X321501754Y-20116800D03*
%TD*%
D14*
%TO.C,H2*%
X376936000Y-20167600D03*
%TD*%
%TO.C,H1*%
X52171600Y-20167600D03*
%TD*%
D15*
%TO.C,C179*%
X147672683Y-35849793D03*
X148632683Y-35849793D03*
%TD*%
D16*
%TO.C,D414*%
X299445200Y-164390240D03*
X302745200Y-164390240D03*
X302745200Y-159490240D03*
X299445200Y-159490240D03*
%TD*%
D15*
%TO.C,C485*%
X341392636Y-58175176D03*
X342352636Y-58175176D03*
%TD*%
D16*
%TO.C,D54*%
X217845200Y-43074760D03*
X221145200Y-43074760D03*
X221145200Y-38174760D03*
X217845200Y-38174760D03*
%TD*%
D15*
%TO.C,C522*%
X361538390Y-113411000D03*
X362498390Y-113411000D03*
%TD*%
D16*
%TO.C,D279*%
X228045200Y-120275520D03*
X231345200Y-120275520D03*
X231345200Y-115375520D03*
X228045200Y-115375520D03*
%TD*%
D17*
%TO.C,R8*%
X74312700Y-245338600D03*
X76137700Y-245338600D03*
%TD*%
D15*
%TO.C,C180*%
X147672683Y-47126941D03*
X148632683Y-47126941D03*
%TD*%
%TO.C,C516*%
X361784210Y-47126941D03*
X362744210Y-47126941D03*
%TD*%
%TO.C,C259*%
X198651618Y-35849793D03*
X199611618Y-35849793D03*
%TD*%
%TO.C,C514*%
X361781290Y-24784115D03*
X362741290Y-24784115D03*
%TD*%
%TO.C,C268*%
X198536902Y-135365431D03*
X199496902Y-135365431D03*
%TD*%
%TO.C,C505*%
X351350797Y-102362000D03*
X352310797Y-102362000D03*
%TD*%
%TO.C,C83*%
X86497961Y-35849793D03*
X87457961Y-35849793D03*
%TD*%
D18*
%TO.C,C21*%
X90906600Y-225623000D03*
X90906600Y-224663000D03*
%TD*%
D15*
%TO.C,C249*%
X188349309Y-102362000D03*
X189309309Y-102362000D03*
%TD*%
D16*
%TO.C,D126*%
X299445200Y-65132120D03*
X302745200Y-65132120D03*
X302745200Y-60232120D03*
X299445200Y-60232120D03*
%TD*%
%TO.C,D140*%
X115845200Y-76160800D03*
X119145200Y-76160800D03*
X119145200Y-71260800D03*
X115845200Y-71260800D03*
%TD*%
D19*
%TO.C,C13*%
X148818600Y-240921600D03*
X148818600Y-241881600D03*
%TD*%
D15*
%TO.C,C184*%
X147598937Y-91319881D03*
X148558937Y-91319881D03*
%TD*%
D16*
%TO.C,D512*%
X319845200Y-197476280D03*
X323145200Y-197476280D03*
X323145200Y-192576280D03*
X319845200Y-192576280D03*
%TD*%
%TO.C,D208*%
X156645200Y-98218160D03*
X159945200Y-98218160D03*
X159945200Y-93318160D03*
X156645200Y-93318160D03*
%TD*%
D20*
%TO.C,U5*%
X96139000Y-223026200D03*
X94869000Y-223026200D03*
X93599000Y-223026200D03*
X92329000Y-223026200D03*
X92329000Y-227976200D03*
X93599000Y-227976200D03*
X94869000Y-227976200D03*
X96139000Y-227976200D03*
%TD*%
D15*
%TO.C,C190*%
X147598937Y-157470057D03*
X148558937Y-157470057D03*
%TD*%
D18*
%TO.C,C33*%
X174758200Y-248455600D03*
X174758200Y-247495600D03*
%TD*%
D16*
%TO.C,D516*%
X360645200Y-197476280D03*
X363945200Y-197476280D03*
X363945200Y-192576280D03*
X360645200Y-192576280D03*
%TD*%
D15*
%TO.C,C528*%
X361538390Y-179705000D03*
X362498390Y-179705000D03*
%TD*%
D16*
%TO.C,D197*%
X370845200Y-87189480D03*
X374145200Y-87189480D03*
X374145200Y-82289480D03*
X370845200Y-82289480D03*
%TD*%
D15*
%TO.C,C488*%
X341163204Y-91319881D03*
X342123204Y-91319881D03*
%TD*%
%TO.C,C302*%
X218912088Y-157470057D03*
X219872088Y-157470057D03*
%TD*%
%TO.C,C444*%
X310600425Y-135365431D03*
X311560425Y-135365431D03*
%TD*%
%TO.C,C534*%
X371980000Y-69215000D03*
X372940000Y-69215000D03*
%TD*%
D16*
%TO.C,D501*%
X207645200Y-197476280D03*
X210945200Y-197476280D03*
X210945200Y-192576280D03*
X207645200Y-192576280D03*
%TD*%
%TO.C,D269*%
X126045200Y-120275520D03*
X129345200Y-120275520D03*
X129345200Y-115375520D03*
X126045200Y-115375520D03*
%TD*%
%TO.C,D337*%
X166845200Y-142332880D03*
X170145200Y-142332880D03*
X170145200Y-137432880D03*
X166845200Y-137432880D03*
%TD*%
D15*
%TO.C,C510*%
X351350797Y-157470057D03*
X352310797Y-157470057D03*
%TD*%
D16*
%TO.C,D324*%
X360645200Y-131304200D03*
X363945200Y-131304200D03*
X363945200Y-126404200D03*
X360645200Y-126404200D03*
%TD*%
%TO.C,D186*%
X258645200Y-87189480D03*
X261945200Y-87189480D03*
X261945200Y-82289480D03*
X258645200Y-82289480D03*
%TD*%
%TO.C,D222*%
X299445200Y-98218160D03*
X302745200Y-98218160D03*
X302745200Y-93318160D03*
X299445200Y-93318160D03*
%TD*%
%TO.C,D399*%
X146445200Y-164390240D03*
X149745200Y-164390240D03*
X149745200Y-159490240D03*
X146445200Y-159490240D03*
%TD*%
%TO.C,D270*%
X136245200Y-120275520D03*
X139545200Y-120275520D03*
X139545200Y-115375520D03*
X136245200Y-115375520D03*
%TD*%
%TO.C,D508*%
X279045200Y-197476280D03*
X282345200Y-197476280D03*
X282345200Y-192576280D03*
X279045200Y-192576280D03*
%TD*%
%TO.C,D329*%
X85245200Y-142332880D03*
X88545200Y-142332880D03*
X88545200Y-137432880D03*
X85245200Y-137432880D03*
%TD*%
%TO.C,D260*%
X360645200Y-109246840D03*
X363945200Y-109246840D03*
X363945200Y-104346840D03*
X360645200Y-104346840D03*
%TD*%
%TO.C,D210*%
X177045200Y-98218160D03*
X180345200Y-98218160D03*
X180345200Y-93318160D03*
X177045200Y-93318160D03*
%TD*%
D15*
%TO.C,C198*%
X157868470Y-69215000D03*
X158828470Y-69215000D03*
%TD*%
D16*
%TO.C,D109*%
X126045200Y-65132120D03*
X129345200Y-65132120D03*
X129345200Y-60232120D03*
X126045200Y-60232120D03*
%TD*%
%TO.C,D412*%
X279045200Y-164390240D03*
X282345200Y-164390240D03*
X282345200Y-159490240D03*
X279045200Y-159490240D03*
%TD*%
D12*
%TO.C,J4*%
X168224200Y-239242600D03*
D11*
X168224200Y-236702600D03*
X168224200Y-234162600D03*
X168224200Y-231622600D03*
%TD*%
D15*
%TO.C,C237*%
X178161716Y-146558000D03*
X179121716Y-146558000D03*
%TD*%
D12*
%TO.C,J5*%
X52608800Y-204469600D03*
D11*
X50068800Y-204469600D03*
%TD*%
D16*
%TO.C,D235*%
X105645200Y-109246840D03*
X108945200Y-109246840D03*
X108945200Y-104346840D03*
X105645200Y-104346840D03*
%TD*%
D15*
%TO.C,C295*%
X219043192Y-80271646D03*
X220003192Y-80271646D03*
%TD*%
%TO.C,C313*%
X229099681Y-102362000D03*
X230059681Y-102362000D03*
%TD*%
D16*
%TO.C,D502*%
X217845200Y-197476280D03*
X221145200Y-197476280D03*
X221145200Y-192576280D03*
X217845200Y-192576280D03*
%TD*%
D21*
%TO.C,D4*%
X129286000Y-225551400D03*
X129286000Y-223676400D03*
%TD*%
D16*
%TO.C,D477*%
X289245200Y-186447600D03*
X292545200Y-186447600D03*
X292545200Y-181547600D03*
X289245200Y-181547600D03*
%TD*%
D15*
%TO.C,C333*%
X239287274Y-146558000D03*
X240247274Y-146558000D03*
%TD*%
D16*
%TO.C,D428*%
X115845200Y-175418920D03*
X119145200Y-175418920D03*
X119145200Y-170518920D03*
X115845200Y-170518920D03*
%TD*%
D12*
%TO.C,J2*%
X139329400Y-244703200D03*
D11*
X136789400Y-244703200D03*
X134249400Y-244703200D03*
%TD*%
D16*
%TO.C,D178*%
X177045200Y-87189480D03*
X180345200Y-87189480D03*
X180345200Y-82289480D03*
X177045200Y-82289480D03*
%TD*%
D15*
%TO.C,C185*%
X147598937Y-102362000D03*
X148558937Y-102362000D03*
%TD*%
D16*
%TO.C,D484*%
X360645200Y-186447600D03*
X363945200Y-186447600D03*
X363945200Y-181547600D03*
X360645200Y-181547600D03*
%TD*%
%TO.C,D188*%
X279045200Y-87189480D03*
X282345200Y-87189480D03*
X282345200Y-82289480D03*
X279045200Y-82289480D03*
%TD*%
D22*
%TO.C,C30*%
X83513400Y-236118400D03*
X86463400Y-236118400D03*
%TD*%
D19*
%TO.C,C10*%
X147751800Y-240921600D03*
X147751800Y-241881600D03*
%TD*%
D16*
%TO.C,D81*%
X166845200Y-54103440D03*
X170145200Y-54103440D03*
X170145200Y-49203440D03*
X166845200Y-49203440D03*
%TD*%
D15*
%TO.C,C99*%
X96693748Y-35849793D03*
X97653748Y-35849793D03*
%TD*%
%TO.C,C120*%
X106848565Y-91319881D03*
X107808565Y-91319881D03*
%TD*%
D16*
%TO.C,D124*%
X279045200Y-65132120D03*
X282345200Y-65132120D03*
X282345200Y-60232120D03*
X279045200Y-60232120D03*
%TD*%
D15*
%TO.C,C387*%
X280217914Y-35849793D03*
X281177914Y-35849793D03*
%TD*%
D16*
%TO.C,D92*%
X279045200Y-54103440D03*
X282345200Y-54103440D03*
X282345200Y-49203440D03*
X279045200Y-49203440D03*
%TD*%
D15*
%TO.C,C70*%
X76302174Y-69215000D03*
X77262174Y-69215000D03*
%TD*%
%TO.C,C43*%
X55910600Y-124464586D03*
X56870600Y-124464586D03*
%TD*%
D16*
%TO.C,D345*%
X248445200Y-142332880D03*
X251745200Y-142332880D03*
X251745200Y-137432880D03*
X248445200Y-137432880D03*
%TD*%
D15*
%TO.C,C515*%
X361784210Y-35849793D03*
X362744210Y-35849793D03*
%TD*%
D16*
%TO.C,D478*%
X299445200Y-186447600D03*
X302745200Y-186447600D03*
X302745200Y-181547600D03*
X299445200Y-181547600D03*
%TD*%
%TO.C,D90*%
X258645200Y-54103440D03*
X261945200Y-54103440D03*
X261945200Y-49203440D03*
X258645200Y-49203440D03*
%TD*%
D15*
%TO.C,C170*%
X137411344Y-113411000D03*
X138371344Y-113411000D03*
%TD*%
D23*
%TO.C,R3*%
X140413200Y-239445800D03*
X139393200Y-239445800D03*
%TD*%
D16*
%TO.C,D430*%
X136245200Y-175418920D03*
X139545200Y-175418920D03*
X139545200Y-170518920D03*
X136245200Y-170518920D03*
%TD*%
%TO.C,D236*%
X115845200Y-109246840D03*
X119145200Y-109246840D03*
X119145200Y-104346840D03*
X115845200Y-104346840D03*
%TD*%
D17*
%TO.C,R19*%
X104853100Y-232791000D03*
X106678100Y-232791000D03*
%TD*%
D16*
%TO.C,D196*%
X360645200Y-87189480D03*
X363945200Y-87189480D03*
X363945200Y-82289480D03*
X360645200Y-82289480D03*
%TD*%
D15*
%TO.C,C399*%
X280037646Y-168783000D03*
X280997646Y-168783000D03*
%TD*%
D24*
%TO.C,R17*%
X98374200Y-240993300D03*
X98374200Y-239168300D03*
%TD*%
D16*
%TO.C,D276*%
X197445200Y-120275520D03*
X200745200Y-120275520D03*
X200745200Y-115375520D03*
X197445200Y-115375520D03*
%TD*%
D15*
%TO.C,C262*%
X198651618Y-69215000D03*
X199611618Y-69215000D03*
%TD*%
%TO.C,C457*%
X320788018Y-102362000D03*
X321748018Y-102362000D03*
%TD*%
D16*
%TO.C,D389*%
X370845200Y-153361560D03*
X374145200Y-153361560D03*
X374145200Y-148461560D03*
X370845200Y-148461560D03*
%TD*%
D15*
%TO.C,C174*%
X137411344Y-157470057D03*
X138371344Y-157470057D03*
%TD*%
D25*
%TO.C,JP2*%
X213690200Y-224144600D03*
X213690200Y-222844600D03*
%TD*%
D16*
%TO.C,D320*%
X319845200Y-131304200D03*
X323145200Y-131304200D03*
X323145200Y-126404200D03*
X319845200Y-126404200D03*
%TD*%
%TO.C,D27*%
X268858334Y-32046080D03*
X272158334Y-32046080D03*
X272158334Y-27146080D03*
X268858334Y-27146080D03*
%TD*%
%TO.C,D118*%
X217845200Y-65132120D03*
X221145200Y-65132120D03*
X221145200Y-60232120D03*
X217845200Y-60232120D03*
%TD*%
D15*
%TO.C,C371*%
X270022127Y-35849793D03*
X270982127Y-35849793D03*
%TD*%
D16*
%TO.C,D315*%
X268845200Y-131304200D03*
X272145200Y-131304200D03*
X272145200Y-126404200D03*
X268845200Y-126404200D03*
%TD*%
D15*
%TO.C,C530*%
X371980000Y-24784115D03*
X372940000Y-24784115D03*
%TD*%
D16*
%TO.C,D232*%
X75045200Y-109246840D03*
X78345200Y-109246840D03*
X78345200Y-104346840D03*
X75045200Y-104346840D03*
%TD*%
%TO.C,D312*%
X238245200Y-131304200D03*
X241545200Y-131304200D03*
X241545200Y-126404200D03*
X238245200Y-126404200D03*
%TD*%
D15*
%TO.C,C392*%
X280037646Y-91319881D03*
X280997646Y-91319881D03*
%TD*%
%TO.C,C497*%
X341124712Y-190881000D03*
X342084712Y-190881000D03*
%TD*%
D16*
%TO.C,D42*%
X95445200Y-43074760D03*
X98745200Y-43074760D03*
X98745200Y-38174760D03*
X95445200Y-38174760D03*
%TD*%
D15*
%TO.C,C148*%
X127281109Y-47126941D03*
X128241109Y-47126941D03*
%TD*%
D16*
%TO.C,D330*%
X95445200Y-142332880D03*
X98745200Y-142332880D03*
X98745200Y-137432880D03*
X95445200Y-137432880D03*
%TD*%
%TO.C,D167*%
X64845200Y-87189480D03*
X68145200Y-87189480D03*
X68145200Y-82289480D03*
X64845200Y-82289480D03*
%TD*%
%TO.C,D302*%
X136245200Y-131304200D03*
X139545200Y-131304200D03*
X139545200Y-126404200D03*
X136245200Y-126404200D03*
%TD*%
D15*
%TO.C,C309*%
X229238979Y-58175176D03*
X230198979Y-58175176D03*
%TD*%
%TO.C,C533*%
X371980000Y-58175176D03*
X372940000Y-58175176D03*
%TD*%
D23*
%TO.C,R6*%
X139981400Y-235432600D03*
X138961400Y-235432600D03*
%TD*%
D15*
%TO.C,C57*%
X66098193Y-102362000D03*
X67058193Y-102362000D03*
%TD*%
%TO.C,C508*%
X351350797Y-135365431D03*
X352310797Y-135365431D03*
%TD*%
D16*
%TO.C,D443*%
X268845200Y-175418920D03*
X272145200Y-175418920D03*
X272145200Y-170518920D03*
X268845200Y-170518920D03*
%TD*%
%TO.C,D360*%
X75045200Y-153361560D03*
X78345200Y-153361560D03*
X78345200Y-148461560D03*
X75045200Y-148461560D03*
%TD*%
%TO.C,D243*%
X187245200Y-109246840D03*
X190545200Y-109246840D03*
X190545200Y-104346840D03*
X187245200Y-104346840D03*
%TD*%
%TO.C,D436*%
X197445200Y-175418920D03*
X200745200Y-175418920D03*
X200745200Y-170518920D03*
X197445200Y-170518920D03*
%TD*%
%TO.C,D413*%
X289245200Y-164390240D03*
X292545200Y-164390240D03*
X292545200Y-159490240D03*
X289245200Y-159490240D03*
%TD*%
D15*
%TO.C,C41*%
X55910600Y-102362000D03*
X56870600Y-102362000D03*
%TD*%
%TO.C,C420*%
X300609488Y-47126941D03*
X301569488Y-47126941D03*
%TD*%
%TO.C,C353*%
X249398926Y-190881000D03*
X250358926Y-190881000D03*
%TD*%
%TO.C,C263*%
X198651618Y-80271646D03*
X199611618Y-80271646D03*
%TD*%
D16*
%TO.C,D353*%
X330045200Y-142332880D03*
X333345200Y-142332880D03*
X333345200Y-137432880D03*
X330045200Y-137432880D03*
%TD*%
%TO.C,D130*%
X340245200Y-65132120D03*
X343545200Y-65132120D03*
X343545200Y-60232120D03*
X340245200Y-60232120D03*
%TD*%
D15*
%TO.C,C200*%
X157786530Y-91319881D03*
X158746530Y-91319881D03*
%TD*%
D16*
%TO.C,D300*%
X115845200Y-131304200D03*
X119145200Y-131304200D03*
X119145200Y-126404200D03*
X115845200Y-126404200D03*
%TD*%
D15*
%TO.C,C147*%
X127281109Y-35849793D03*
X128241109Y-35849793D03*
%TD*%
D16*
%TO.C,D265*%
X85245200Y-120275520D03*
X88545200Y-120275520D03*
X88545200Y-115375520D03*
X85245200Y-115375520D03*
%TD*%
%TO.C,D400*%
X156645200Y-164390240D03*
X159945200Y-164390240D03*
X159945200Y-159490240D03*
X156645200Y-159490240D03*
%TD*%
%TO.C,D154*%
X258645200Y-76160800D03*
X261945200Y-76160800D03*
X261945200Y-71260800D03*
X258645200Y-71260800D03*
%TD*%
D15*
%TO.C,C417*%
X290165942Y-190881000D03*
X291125942Y-190881000D03*
%TD*%
%TO.C,C233*%
X178161716Y-102362000D03*
X179121716Y-102362000D03*
%TD*%
%TO.C,C463*%
X320788018Y-168783000D03*
X321748018Y-168783000D03*
%TD*%
%TO.C,C218*%
X167974123Y-113411000D03*
X168934123Y-113411000D03*
%TD*%
%TO.C,C144*%
X117036158Y-179705000D03*
X117996158Y-179705000D03*
%TD*%
D16*
%TO.C,D250*%
X258645200Y-109246840D03*
X261945200Y-109246840D03*
X261945200Y-104346840D03*
X258645200Y-104346840D03*
%TD*%
%TO.C,D289*%
X330045200Y-120275520D03*
X333345200Y-120275520D03*
X333345200Y-115375520D03*
X330045200Y-115375520D03*
%TD*%
D15*
%TO.C,C395*%
X280037646Y-124464586D03*
X280997646Y-124464586D03*
%TD*%
%TO.C,C491*%
X341163204Y-124464586D03*
X342123204Y-124464586D03*
%TD*%
D16*
%TO.C,D393*%
X85245200Y-164390240D03*
X88545200Y-164390240D03*
X88545200Y-159490240D03*
X85245200Y-159490240D03*
%TD*%
%TO.C,D65*%
X330045200Y-43074760D03*
X333345200Y-43074760D03*
X333345200Y-38174760D03*
X330045200Y-38174760D03*
%TD*%
%TO.C,D57*%
X248445200Y-43074760D03*
X251745200Y-43074760D03*
X251745200Y-38174760D03*
X248445200Y-38174760D03*
%TD*%
D23*
%TO.C,R27*%
X59132200Y-226415600D03*
X58112200Y-226415600D03*
%TD*%
D15*
%TO.C,C53*%
X66106387Y-58175176D03*
X67066387Y-58175176D03*
%TD*%
D16*
%TO.C,D223*%
X309645200Y-98218160D03*
X312945200Y-98218160D03*
X312945200Y-93318160D03*
X309645200Y-93318160D03*
%TD*%
D15*
%TO.C,C381*%
X269850053Y-146558000D03*
X270810053Y-146558000D03*
%TD*%
%TO.C,C310*%
X229238979Y-69215000D03*
X230198979Y-69215000D03*
%TD*%
D16*
%TO.C,D203*%
X105645200Y-98218160D03*
X108945200Y-98218160D03*
X108945200Y-93318160D03*
X105645200Y-93318160D03*
%TD*%
%TO.C,D433*%
X166845200Y-175418920D03*
X170145200Y-175418920D03*
X170145200Y-170518920D03*
X166845200Y-170518920D03*
%TD*%
%TO.C,D301*%
X126045200Y-131304200D03*
X129345200Y-131304200D03*
X129345200Y-126404200D03*
X126045200Y-126404200D03*
%TD*%
D15*
%TO.C,C351*%
X249474867Y-168783000D03*
X250434867Y-168783000D03*
%TD*%
%TO.C,C211*%
X168064257Y-35849793D03*
X169024257Y-35849793D03*
%TD*%
D16*
%TO.C,D231*%
X64845200Y-109246840D03*
X68145200Y-109246840D03*
X68145200Y-104346840D03*
X64845200Y-104346840D03*
%TD*%
D24*
%TO.C,R21*%
X88620600Y-239215300D03*
X88620600Y-237390300D03*
%TD*%
D15*
%TO.C,C539*%
X371726000Y-124464586D03*
X372686000Y-124464586D03*
%TD*%
D16*
%TO.C,D214*%
X217845200Y-98218160D03*
X221145200Y-98218160D03*
X221145200Y-93318160D03*
X217845200Y-93318160D03*
%TD*%
D15*
%TO.C,C145*%
X116906124Y-190881000D03*
X117866124Y-190881000D03*
%TD*%
%TO.C,C159*%
X127223751Y-168783000D03*
X128183751Y-168783000D03*
%TD*%
D16*
%TO.C,D64*%
X319845200Y-43074760D03*
X323145200Y-43074760D03*
X323145200Y-38174760D03*
X319845200Y-38174760D03*
%TD*%
%TO.C,D468*%
X197445200Y-186447600D03*
X200745200Y-186447600D03*
X200745200Y-181547600D03*
X197445200Y-181547600D03*
%TD*%
D15*
%TO.C,C427*%
X300412832Y-124464586D03*
X301372832Y-124464586D03*
%TD*%
%TO.C,C187*%
X147598937Y-124464586D03*
X148558937Y-124464586D03*
%TD*%
%TO.C,C537*%
X371726000Y-102362000D03*
X372686000Y-102362000D03*
%TD*%
D16*
%TO.C,D51*%
X187245200Y-43074760D03*
X190545200Y-43074760D03*
X190545200Y-38174760D03*
X187245200Y-38174760D03*
%TD*%
%TO.C,D359*%
X64845200Y-153361560D03*
X68145200Y-153361560D03*
X68145200Y-148461560D03*
X64845200Y-148461560D03*
%TD*%
%TO.C,D282*%
X258645200Y-120275520D03*
X261945200Y-120275520D03*
X261945200Y-115375520D03*
X258645200Y-115375520D03*
%TD*%
%TO.C,D194*%
X340245200Y-87189480D03*
X343545200Y-87189480D03*
X343545200Y-82289480D03*
X340245200Y-82289480D03*
%TD*%
%TO.C,D138*%
X95445200Y-76160800D03*
X98745200Y-76160800D03*
X98745200Y-71260800D03*
X95445200Y-71260800D03*
%TD*%
D15*
%TO.C,C35*%
X55910600Y-35849793D03*
X56870600Y-35849793D03*
%TD*%
%TO.C,C307*%
X229238979Y-35849793D03*
X230198979Y-35849793D03*
%TD*%
%TO.C,C73*%
X76285786Y-102362000D03*
X77245786Y-102362000D03*
%TD*%
%TO.C,C377*%
X269850053Y-102362000D03*
X270810053Y-102362000D03*
%TD*%
%TO.C,C182*%
X147672683Y-69215000D03*
X148632683Y-69215000D03*
%TD*%
%TO.C,C58*%
X66098193Y-113411000D03*
X67058193Y-113411000D03*
%TD*%
D16*
%TO.C,D401*%
X166845200Y-164390240D03*
X170145200Y-164390240D03*
X170145200Y-159490240D03*
X166845200Y-159490240D03*
%TD*%
D15*
%TO.C,C203*%
X157786530Y-124464586D03*
X158746530Y-124464586D03*
%TD*%
D16*
%TO.C,D233*%
X85245200Y-109246840D03*
X88545200Y-109246840D03*
X88545200Y-104346840D03*
X85245200Y-104346840D03*
%TD*%
D15*
%TO.C,C311*%
X229238979Y-80271646D03*
X230198979Y-80271646D03*
%TD*%
D17*
%TO.C,R14*%
X79732500Y-240334800D03*
X81557500Y-240334800D03*
%TD*%
D16*
%TO.C,D176*%
X156645200Y-87189480D03*
X159945200Y-87189480D03*
X159945200Y-82289480D03*
X156645200Y-82289480D03*
%TD*%
D15*
%TO.C,C96*%
X86473379Y-179705000D03*
X87433379Y-179705000D03*
%TD*%
D26*
%TO.C,SW1*%
X153661600Y-246024400D03*
X159661600Y-246024400D03*
X153661600Y-249774400D03*
X159661600Y-249774400D03*
%TD*%
D15*
%TO.C,C327*%
X239434766Y-80271646D03*
X240394766Y-80271646D03*
%TD*%
%TO.C,C278*%
X208847405Y-69215000D03*
X209807405Y-69215000D03*
%TD*%
D16*
%TO.C,D409*%
X248445200Y-164390240D03*
X251745200Y-164390240D03*
X251745200Y-159490240D03*
X248445200Y-159490240D03*
%TD*%
D15*
%TO.C,C197*%
X157868470Y-58175176D03*
X158828470Y-58175176D03*
%TD*%
D16*
%TO.C,D446*%
X299445200Y-175418920D03*
X302745200Y-175418920D03*
X302745200Y-170518920D03*
X299445200Y-170518920D03*
%TD*%
%TO.C,D161*%
X330045200Y-76160800D03*
X333345200Y-76160800D03*
X333345200Y-71260800D03*
X330045200Y-71260800D03*
%TD*%
%TO.C,D172*%
X115845200Y-87189480D03*
X119145200Y-87189480D03*
X119145200Y-82289480D03*
X115845200Y-82289480D03*
%TD*%
%TO.C,D423*%
X64845200Y-175418920D03*
X68145200Y-175418920D03*
X68145200Y-170518920D03*
X64845200Y-170518920D03*
%TD*%
%TO.C,D327*%
X64845200Y-142332880D03*
X68145200Y-142332880D03*
X68145200Y-137432880D03*
X64845200Y-137432880D03*
%TD*%
D15*
%TO.C,C157*%
X127223751Y-146558000D03*
X128183751Y-146558000D03*
%TD*%
D27*
%TO.C,U4*%
X91710800Y-246254900D03*
X91710800Y-248184900D03*
X92760800Y-248184900D03*
X92760800Y-246254900D03*
%TD*%
D16*
%TO.C,D355*%
X350445200Y-142332880D03*
X353745200Y-142332880D03*
X353745200Y-137432880D03*
X350445200Y-137432880D03*
%TD*%
%TO.C,D323*%
X350445200Y-131304200D03*
X353745200Y-131304200D03*
X353745200Y-126404200D03*
X350445200Y-126404200D03*
%TD*%
%TO.C,D82*%
X177045200Y-54103440D03*
X180345200Y-54103440D03*
X180345200Y-49203440D03*
X177045200Y-49203440D03*
%TD*%
D15*
%TO.C,C498*%
X351582606Y-24784115D03*
X352542606Y-24784115D03*
%TD*%
D16*
%TO.C,D427*%
X105645200Y-175418920D03*
X108945200Y-175418920D03*
X108945200Y-170518920D03*
X105645200Y-170518920D03*
%TD*%
%TO.C,D408*%
X238245200Y-164390240D03*
X241545200Y-164390240D03*
X241545200Y-159490240D03*
X238245200Y-159490240D03*
%TD*%
D15*
%TO.C,C431*%
X300412832Y-168783000D03*
X301372832Y-168783000D03*
%TD*%
%TO.C,C343*%
X249630553Y-80271646D03*
X250590553Y-80271646D03*
%TD*%
D16*
%TO.C,D475*%
X268845200Y-186447600D03*
X272145200Y-186447600D03*
X272145200Y-181547600D03*
X268845200Y-181547600D03*
%TD*%
%TO.C,D367*%
X146445200Y-153361560D03*
X149745200Y-153361560D03*
X149745200Y-148461560D03*
X146445200Y-148461560D03*
%TD*%
D15*
%TO.C,C447*%
X310600425Y-168783000D03*
X311560425Y-168783000D03*
%TD*%
%TO.C,C172*%
X137411344Y-135365431D03*
X138371344Y-135365431D03*
%TD*%
D16*
%TO.C,D68*%
X360645200Y-43074760D03*
X363945200Y-43074760D03*
X363945200Y-38174760D03*
X360645200Y-38174760D03*
%TD*%
D24*
%TO.C,R10*%
X76073000Y-242085500D03*
X76073000Y-240260500D03*
%TD*%
D15*
%TO.C,C287*%
X208724495Y-168783000D03*
X209684495Y-168783000D03*
%TD*%
D28*
%TO.C,C6*%
X140332400Y-236499400D03*
X139372400Y-236499400D03*
%TD*%
D15*
%TO.C,C158*%
X127223751Y-157470057D03*
X128183751Y-157470057D03*
%TD*%
%TO.C,C141*%
X117036158Y-146558000D03*
X117996158Y-146558000D03*
%TD*%
%TO.C,C475*%
X330975611Y-124464586D03*
X331935611Y-124464586D03*
%TD*%
D16*
%TO.C,D8*%
X75083338Y-32046080D03*
X78383338Y-32046080D03*
X78383338Y-27146080D03*
X75083338Y-27146080D03*
%TD*%
%TO.C,D242*%
X177045200Y-109246840D03*
X180345200Y-109246840D03*
X180345200Y-104346840D03*
X177045200Y-104346840D03*
%TD*%
D15*
%TO.C,C188*%
X147598937Y-135365431D03*
X148558937Y-135365431D03*
%TD*%
D18*
%TO.C,C9*%
X144170400Y-231518400D03*
X144170400Y-230558400D03*
%TD*%
D15*
%TO.C,C369*%
X259590680Y-190881000D03*
X260550680Y-190881000D03*
%TD*%
D19*
%TO.C,C549*%
X218871800Y-238785400D03*
X218871800Y-239745400D03*
%TD*%
D15*
%TO.C,C291*%
X219043192Y-35849793D03*
X220003192Y-35849793D03*
%TD*%
D16*
%TO.C,D149*%
X207645200Y-76160800D03*
X210945200Y-76160800D03*
X210945200Y-71260800D03*
X207645200Y-71260800D03*
%TD*%
%TO.C,D369*%
X166845200Y-153361560D03*
X170145200Y-153361560D03*
X170145200Y-148461560D03*
X166845200Y-148461560D03*
%TD*%
%TO.C,D145*%
X166845200Y-76160800D03*
X170145200Y-76160800D03*
X170145200Y-71260800D03*
X166845200Y-71260800D03*
%TD*%
D29*
%TO.C,C19*%
X67007000Y-239928400D03*
X64057000Y-239928400D03*
%TD*%
D15*
%TO.C,C512*%
X351350797Y-179705000D03*
X352310797Y-179705000D03*
%TD*%
%TO.C,C286*%
X208724495Y-157470057D03*
X209684495Y-157470057D03*
%TD*%
D16*
%TO.C,D448*%
X319845200Y-175418920D03*
X323145200Y-175418920D03*
X323145200Y-170518920D03*
X319845200Y-170518920D03*
%TD*%
%TO.C,D287*%
X309645200Y-120275520D03*
X312945200Y-120275520D03*
X312945200Y-115375520D03*
X309645200Y-115375520D03*
%TD*%
D15*
%TO.C,C282*%
X208724495Y-113411000D03*
X209684495Y-113411000D03*
%TD*%
D16*
%TO.C,D384*%
X319845200Y-153361560D03*
X323145200Y-153361560D03*
X323145200Y-148461560D03*
X319845200Y-148461560D03*
%TD*%
D12*
%TO.C,TP7*%
X86791800Y-247573800D03*
%TD*%
D15*
%TO.C,C133*%
X117085322Y-58175176D03*
X118045322Y-58175176D03*
%TD*%
%TO.C,C525*%
X361538390Y-146558000D03*
X362498390Y-146558000D03*
%TD*%
D16*
%TO.C,D505*%
X248445200Y-197476280D03*
X251745200Y-197476280D03*
X251745200Y-192576280D03*
X248445200Y-192576280D03*
%TD*%
%TO.C,D262*%
X54645200Y-120275520D03*
X57945200Y-120275520D03*
X57945200Y-115375520D03*
X54645200Y-115375520D03*
%TD*%
%TO.C,D20*%
X197467546Y-32046080D03*
X200767546Y-32046080D03*
X200767546Y-27146080D03*
X197467546Y-27146080D03*
%TD*%
D15*
%TO.C,C346*%
X249474867Y-113411000D03*
X250434867Y-113411000D03*
%TD*%
D16*
%TO.C,D13*%
X126076758Y-32046080D03*
X129376758Y-32046080D03*
X129376758Y-27146080D03*
X126076758Y-27146080D03*
%TD*%
%TO.C,D391*%
X64845200Y-164390240D03*
X68145200Y-164390240D03*
X68145200Y-159490240D03*
X64845200Y-159490240D03*
%TD*%
D15*
%TO.C,C49*%
X55755600Y-190881000D03*
X56715600Y-190881000D03*
%TD*%
%TO.C,C464*%
X320788018Y-179705000D03*
X321748018Y-179705000D03*
%TD*%
%TO.C,C213*%
X168064257Y-58175176D03*
X169024257Y-58175176D03*
%TD*%
%TO.C,C446*%
X310600425Y-157470057D03*
X311560425Y-157470057D03*
%TD*%
%TO.C,C59*%
X66098193Y-124464586D03*
X67058193Y-124464586D03*
%TD*%
D16*
%TO.C,D24*%
X238262282Y-32046080D03*
X241562282Y-32046080D03*
X241562282Y-27146080D03*
X238262282Y-27146080D03*
%TD*%
D15*
%TO.C,C206*%
X157786530Y-157470057D03*
X158746530Y-157470057D03*
%TD*%
%TO.C,C196*%
X157868470Y-47126941D03*
X158828470Y-47126941D03*
%TD*%
%TO.C,C195*%
X157868470Y-35849793D03*
X158828470Y-35849793D03*
%TD*%
%TO.C,C354*%
X259794450Y-24772646D03*
X260754450Y-24772646D03*
%TD*%
%TO.C,C349*%
X249474867Y-146558000D03*
X250434867Y-146558000D03*
%TD*%
%TO.C,C397*%
X280037646Y-146558000D03*
X280997646Y-146558000D03*
%TD*%
%TO.C,C490*%
X341163204Y-113411000D03*
X342123204Y-113411000D03*
%TD*%
%TO.C,C14*%
X149890600Y-240538000D03*
X150850600Y-240538000D03*
%TD*%
D16*
%TO.C,D258*%
X340245200Y-109246840D03*
X343545200Y-109246840D03*
X343545200Y-104346840D03*
X340245200Y-104346840D03*
%TD*%
D15*
%TO.C,C334*%
X239287274Y-157470057D03*
X240247274Y-157470057D03*
%TD*%
%TO.C,C471*%
X331196849Y-80271646D03*
X332156849Y-80271646D03*
%TD*%
%TO.C,C175*%
X137411344Y-168783000D03*
X138371344Y-168783000D03*
%TD*%
D16*
%TO.C,D225*%
X330045200Y-98218160D03*
X333345200Y-98218160D03*
X333345200Y-93318160D03*
X330045200Y-93318160D03*
%TD*%
D15*
%TO.C,C283*%
X208724495Y-124464586D03*
X209684495Y-124464586D03*
%TD*%
%TO.C,C386*%
X280191818Y-24780292D03*
X281151818Y-24780292D03*
%TD*%
D16*
%TO.C,D93*%
X289245200Y-54103440D03*
X292545200Y-54103440D03*
X292545200Y-49203440D03*
X289245200Y-49203440D03*
%TD*%
D15*
%TO.C,C92*%
X86473379Y-135365431D03*
X87433379Y-135365431D03*
%TD*%
D16*
%TO.C,D22*%
X217864914Y-32046080D03*
X221164914Y-32046080D03*
X221164914Y-27146080D03*
X217864914Y-27146080D03*
%TD*%
%TO.C,D120*%
X238245200Y-65132120D03*
X241545200Y-65132120D03*
X241545200Y-60232120D03*
X238245200Y-60232120D03*
%TD*%
D15*
%TO.C,C89*%
X86473379Y-102362000D03*
X87433379Y-102362000D03*
%TD*%
%TO.C,C293*%
X219043192Y-58175176D03*
X220003192Y-58175176D03*
%TD*%
%TO.C,C409*%
X290225239Y-102362000D03*
X291185239Y-102362000D03*
%TD*%
D16*
%TO.C,D498*%
X177045200Y-197476280D03*
X180345200Y-197476280D03*
X180345200Y-192576280D03*
X177045200Y-192576280D03*
%TD*%
%TO.C,D291*%
X350445200Y-120275520D03*
X353745200Y-120275520D03*
X353745200Y-115375520D03*
X350445200Y-115375520D03*
%TD*%
%TO.C,D379*%
X268845200Y-153361560D03*
X272145200Y-153361560D03*
X272145200Y-148461560D03*
X268845200Y-148461560D03*
%TD*%
%TO.C,D37*%
X370845200Y-32046080D03*
X374145200Y-32046080D03*
X374145200Y-27146080D03*
X370845200Y-27146080D03*
%TD*%
D15*
%TO.C,C368*%
X259662460Y-179705000D03*
X260622460Y-179705000D03*
%TD*%
%TO.C,C100*%
X96693748Y-47126941D03*
X97653748Y-47126941D03*
%TD*%
D16*
%TO.C,D207*%
X146445200Y-98218160D03*
X149745200Y-98218160D03*
X149745200Y-93318160D03*
X146445200Y-93318160D03*
%TD*%
%TO.C,D303*%
X146445200Y-131304200D03*
X149745200Y-131304200D03*
X149745200Y-126404200D03*
X146445200Y-126404200D03*
%TD*%
D15*
%TO.C,C299*%
X218912088Y-124464586D03*
X219872088Y-124464586D03*
%TD*%
%TO.C,C350*%
X249474867Y-157470057D03*
X250434867Y-157470057D03*
%TD*%
%TO.C,C439*%
X310805275Y-80271646D03*
X311765275Y-80271646D03*
%TD*%
D16*
%TO.C,D343*%
X228045200Y-142332880D03*
X231345200Y-142332880D03*
X231345200Y-137432880D03*
X228045200Y-137432880D03*
%TD*%
D15*
%TO.C,C413*%
X290225239Y-146558000D03*
X291185239Y-146558000D03*
%TD*%
D16*
%TO.C,D220*%
X279045200Y-98218160D03*
X282345200Y-98218160D03*
X282345200Y-93318160D03*
X279045200Y-93318160D03*
%TD*%
D15*
%TO.C,C192*%
X147598937Y-179705000D03*
X148558937Y-179705000D03*
%TD*%
D16*
%TO.C,D438*%
X217845200Y-175418920D03*
X221145200Y-175418920D03*
X221145200Y-170518920D03*
X217845200Y-170518920D03*
%TD*%
%TO.C,D137*%
X85245200Y-76160800D03*
X88545200Y-76160800D03*
X88545200Y-71260800D03*
X85245200Y-71260800D03*
%TD*%
D15*
%TO.C,C509*%
X351350797Y-146558000D03*
X352310797Y-146558000D03*
%TD*%
D16*
%TO.C,D28*%
X279057018Y-32046080D03*
X282357018Y-32046080D03*
X282357018Y-27146080D03*
X279057018Y-27146080D03*
%TD*%
D15*
%TO.C,C216*%
X167974123Y-91319881D03*
X168934123Y-91319881D03*
%TD*%
D16*
%TO.C,D75*%
X105645200Y-54103440D03*
X108945200Y-54103440D03*
X108945200Y-49203440D03*
X105645200Y-49203440D03*
%TD*%
D15*
%TO.C,C242*%
X188403662Y-25007531D03*
X189363662Y-25007531D03*
%TD*%
%TO.C,C506*%
X351350797Y-113411000D03*
X352310797Y-113411000D03*
%TD*%
%TO.C,C493*%
X341163204Y-146558000D03*
X342123204Y-146558000D03*
%TD*%
D16*
%TO.C,D263*%
X64845200Y-120275520D03*
X68145200Y-120275520D03*
X68145200Y-115375520D03*
X64845200Y-115375520D03*
%TD*%
D15*
%TO.C,C290*%
X218999714Y-25007533D03*
X219959714Y-25007533D03*
%TD*%
%TO.C,C226*%
X178180000Y-24888432D03*
X179140000Y-24888432D03*
%TD*%
D16*
%TO.C,D241*%
X166845200Y-109246840D03*
X170145200Y-109246840D03*
X170145200Y-104346840D03*
X166845200Y-104346840D03*
%TD*%
%TO.C,D6*%
X54645200Y-32046080D03*
X57945200Y-32046080D03*
X57945200Y-27146080D03*
X54645200Y-27146080D03*
%TD*%
D15*
%TO.C,C228*%
X178260044Y-47126941D03*
X179220044Y-47126941D03*
%TD*%
D16*
%TO.C,D23*%
X228063598Y-32046080D03*
X231363598Y-32046080D03*
X231363598Y-27146080D03*
X228063598Y-27146080D03*
%TD*%
D12*
%TO.C,J3*%
X68884800Y-249656600D03*
D11*
X66344800Y-249656600D03*
%TD*%
D15*
%TO.C,C423*%
X300609488Y-80271646D03*
X301569488Y-80271646D03*
%TD*%
D16*
%TO.C,D354*%
X340245200Y-142332880D03*
X343545200Y-142332880D03*
X343545200Y-137432880D03*
X340245200Y-137432880D03*
%TD*%
%TO.C,D451*%
X350445200Y-175418920D03*
X353745200Y-175418920D03*
X353745200Y-170518920D03*
X350445200Y-170518920D03*
%TD*%
D15*
%TO.C,C502*%
X351588423Y-69215000D03*
X352548423Y-69215000D03*
%TD*%
%TO.C,C253*%
X188349309Y-146558000D03*
X189309309Y-146558000D03*
%TD*%
%TO.C,C68*%
X76302174Y-47126941D03*
X77262174Y-47126941D03*
%TD*%
D28*
%TO.C,C15*%
X136116000Y-231114600D03*
X135156000Y-231114600D03*
%TD*%
D15*
%TO.C,C40*%
X55910600Y-91319881D03*
X56870600Y-91319881D03*
%TD*%
D16*
%TO.C,D91*%
X268845200Y-54103440D03*
X272145200Y-54103440D03*
X272145200Y-49203440D03*
X268845200Y-49203440D03*
%TD*%
%TO.C,D511*%
X309645200Y-197476280D03*
X312945200Y-197476280D03*
X312945200Y-192576280D03*
X309645200Y-192576280D03*
%TD*%
%TO.C,D249*%
X248445200Y-109246840D03*
X251745200Y-109246840D03*
X251745200Y-104346840D03*
X248445200Y-104346840D03*
%TD*%
D15*
%TO.C,C476*%
X330975611Y-135365431D03*
X331935611Y-135365431D03*
%TD*%
D16*
%TO.C,D461*%
X126045200Y-186447600D03*
X129345200Y-186447600D03*
X129345200Y-181547600D03*
X126045200Y-181547600D03*
%TD*%
%TO.C,D342*%
X217845200Y-142332880D03*
X221145200Y-142332880D03*
X221145200Y-137432880D03*
X217845200Y-137432880D03*
%TD*%
%TO.C,D274*%
X177045200Y-120275520D03*
X180345200Y-120275520D03*
X180345200Y-115375520D03*
X177045200Y-115375520D03*
%TD*%
D15*
%TO.C,C407*%
X290413701Y-80271646D03*
X291373701Y-80271646D03*
%TD*%
D16*
%TO.C,D31*%
X309653070Y-32046080D03*
X312953070Y-32046080D03*
X312953070Y-27146080D03*
X309653070Y-27146080D03*
%TD*%
%TO.C,D83*%
X187245200Y-54103440D03*
X190545200Y-54103440D03*
X190545200Y-49203440D03*
X187245200Y-49203440D03*
%TD*%
D15*
%TO.C,C261*%
X198651618Y-58175176D03*
X199611618Y-58175176D03*
%TD*%
%TO.C,C143*%
X117036158Y-168783000D03*
X117996158Y-168783000D03*
%TD*%
%TO.C,C355*%
X259826340Y-35849793D03*
X260786340Y-35849793D03*
%TD*%
D21*
%TO.C,D1*%
X139763500Y-225649000D03*
X139763500Y-223774000D03*
%TD*%
D16*
%TO.C,D122*%
X258645200Y-65132120D03*
X261945200Y-65132120D03*
X261945200Y-60232120D03*
X258645200Y-60232120D03*
%TD*%
%TO.C,D132*%
X360645200Y-65132120D03*
X363945200Y-65132120D03*
X363945200Y-60232120D03*
X360645200Y-60232120D03*
%TD*%
%TO.C,D299*%
X105645200Y-131304200D03*
X108945200Y-131304200D03*
X108945200Y-126404200D03*
X105645200Y-126404200D03*
%TD*%
%TO.C,D331*%
X105645200Y-142332880D03*
X108945200Y-142332880D03*
X108945200Y-137432880D03*
X105645200Y-137432880D03*
%TD*%
%TO.C,D311*%
X228045200Y-131304200D03*
X231345200Y-131304200D03*
X231345200Y-126404200D03*
X228045200Y-126404200D03*
%TD*%
%TO.C,D151*%
X228045200Y-76160800D03*
X231345200Y-76160800D03*
X231345200Y-71260800D03*
X228045200Y-71260800D03*
%TD*%
D15*
%TO.C,C440*%
X310600425Y-91319881D03*
X311560425Y-91319881D03*
%TD*%
D19*
%TO.C,C18*%
X84023200Y-219407800D03*
X84023200Y-220367800D03*
%TD*%
D16*
%TO.C,D482*%
X340245200Y-186447600D03*
X343545200Y-186447600D03*
X343545200Y-181547600D03*
X340245200Y-181547600D03*
%TD*%
D15*
%TO.C,C489*%
X341163204Y-102362000D03*
X342123204Y-102362000D03*
%TD*%
D16*
%TO.C,D98*%
X340245200Y-54103440D03*
X343545200Y-54103440D03*
X343545200Y-49203440D03*
X340245200Y-49203440D03*
%TD*%
D15*
%TO.C,C389*%
X280217914Y-58175176D03*
X281177914Y-58175176D03*
%TD*%
D16*
%TO.C,D164*%
X360645200Y-76160800D03*
X363945200Y-76160800D03*
X363945200Y-71260800D03*
X360645200Y-71260800D03*
%TD*%
D15*
%TO.C,C365*%
X259662460Y-146558000D03*
X260622460Y-146558000D03*
%TD*%
%TO.C,C106*%
X96660972Y-113411000D03*
X97620972Y-113411000D03*
%TD*%
D16*
%TO.C,D112*%
X156645200Y-65132120D03*
X159945200Y-65132120D03*
X159945200Y-60232120D03*
X156645200Y-60232120D03*
%TD*%
D15*
%TO.C,C341*%
X249630553Y-58175176D03*
X250590553Y-58175176D03*
%TD*%
D16*
%TO.C,D382*%
X299445200Y-153361560D03*
X302745200Y-153361560D03*
X302745200Y-148461560D03*
X299445200Y-148461560D03*
%TD*%
%TO.C,D53*%
X207645200Y-43074760D03*
X210945200Y-43074760D03*
X210945200Y-38174760D03*
X207645200Y-38174760D03*
%TD*%
D30*
%TO.C,U6*%
X90985800Y-234518200D03*
X90985800Y-235788200D03*
X90985800Y-237058200D03*
X90985800Y-238328200D03*
X95935800Y-238328200D03*
X95935800Y-237058200D03*
X95935800Y-235788200D03*
X95935800Y-234518200D03*
%TD*%
D16*
%TO.C,D209*%
X166845200Y-98218160D03*
X170145200Y-98218160D03*
X170145200Y-93318160D03*
X166845200Y-93318160D03*
%TD*%
%TO.C,D273*%
X166845200Y-120275520D03*
X170145200Y-120275520D03*
X170145200Y-115375520D03*
X166845200Y-115375520D03*
%TD*%
D15*
%TO.C,C64*%
X66098193Y-179705000D03*
X67058193Y-179705000D03*
%TD*%
D16*
%TO.C,D94*%
X299445200Y-54103440D03*
X302745200Y-54103440D03*
X302745200Y-49203440D03*
X299445200Y-49203440D03*
%TD*%
%TO.C,D271*%
X146445200Y-120275520D03*
X149745200Y-120275520D03*
X149745200Y-115375520D03*
X146445200Y-115375520D03*
%TD*%
D15*
%TO.C,C323*%
X239434766Y-35849793D03*
X240394766Y-35849793D03*
%TD*%
D16*
%TO.C,D100*%
X360645200Y-54103440D03*
X363945200Y-54103440D03*
X363945200Y-49203440D03*
X360645200Y-49203440D03*
%TD*%
%TO.C,D143*%
X146445200Y-76160800D03*
X149745200Y-76160800D03*
X149745200Y-71260800D03*
X146445200Y-71260800D03*
%TD*%
%TO.C,D35*%
X350447806Y-32046080D03*
X353747806Y-32046080D03*
X353747806Y-27146080D03*
X350447806Y-27146080D03*
%TD*%
D15*
%TO.C,C55*%
X66106387Y-80271646D03*
X67066387Y-80271646D03*
%TD*%
%TO.C,C449*%
X310549450Y-190881000D03*
X311509450Y-190881000D03*
%TD*%
D16*
%TO.C,D335*%
X146445200Y-142332880D03*
X149745200Y-142332880D03*
X149745200Y-137432880D03*
X146445200Y-137432880D03*
%TD*%
D15*
%TO.C,C102*%
X96693748Y-69215000D03*
X97653748Y-69215000D03*
%TD*%
D16*
%TO.C,D280*%
X238245200Y-120275520D03*
X241545200Y-120275520D03*
X241545200Y-115375520D03*
X238245200Y-115375520D03*
%TD*%
D15*
%TO.C,C135*%
X117085322Y-80271646D03*
X118045322Y-80271646D03*
%TD*%
D16*
%TO.C,D177*%
X166845200Y-87189480D03*
X170145200Y-87189480D03*
X170145200Y-82289480D03*
X166845200Y-82289480D03*
%TD*%
%TO.C,D466*%
X177045200Y-186447600D03*
X180345200Y-186447600D03*
X180345200Y-181547600D03*
X177045200Y-181547600D03*
%TD*%
D29*
%TO.C,C22*%
X80773800Y-247599200D03*
X77823800Y-247599200D03*
%TD*%
D26*
%TO.C,SW2*%
X145460200Y-246024400D03*
X151460200Y-246024400D03*
X145460200Y-249774400D03*
X151460200Y-249774400D03*
%TD*%
D15*
%TO.C,C356*%
X259826340Y-47126941D03*
X260786340Y-47126941D03*
%TD*%
D16*
%TO.C,D385*%
X330045200Y-153361560D03*
X333345200Y-153361560D03*
X333345200Y-148461560D03*
X330045200Y-148461560D03*
%TD*%
D15*
%TO.C,C450*%
X320986554Y-24776469D03*
X321946554Y-24776469D03*
%TD*%
%TO.C,C366*%
X259662460Y-157470057D03*
X260622460Y-157470057D03*
%TD*%
%TO.C,C456*%
X320788018Y-91319881D03*
X321748018Y-91319881D03*
%TD*%
D18*
%TO.C,C32*%
X122859800Y-236649200D03*
X122859800Y-235689200D03*
%TD*%
D16*
%TO.C,D405*%
X207645200Y-164390240D03*
X210945200Y-164390240D03*
X210945200Y-159490240D03*
X207645200Y-159490240D03*
%TD*%
D15*
%TO.C,C78*%
X76285786Y-157470057D03*
X77245786Y-157470057D03*
%TD*%
%TO.C,C445*%
X310600425Y-146558000D03*
X311560425Y-146558000D03*
%TD*%
D18*
%TO.C,C29*%
X110718600Y-235353800D03*
X110718600Y-234393800D03*
%TD*%
D16*
%TO.C,D493*%
X126045200Y-197476280D03*
X129345200Y-197476280D03*
X129345200Y-192576280D03*
X126045200Y-192576280D03*
%TD*%
%TO.C,D515*%
X350445200Y-197476280D03*
X353745200Y-197476280D03*
X353745200Y-192576280D03*
X350445200Y-192576280D03*
%TD*%
%TO.C,D66*%
X340245200Y-43074760D03*
X343545200Y-43074760D03*
X343545200Y-38174760D03*
X340245200Y-38174760D03*
%TD*%
D15*
%TO.C,C385*%
X269782434Y-190881000D03*
X270742434Y-190881000D03*
%TD*%
D16*
%TO.C,D84*%
X197445200Y-54103440D03*
X200745200Y-54103440D03*
X200745200Y-49203440D03*
X197445200Y-49203440D03*
%TD*%
D15*
%TO.C,C442*%
X310600425Y-113411000D03*
X311560425Y-113411000D03*
%TD*%
D16*
%TO.C,D15*%
X146474126Y-32046080D03*
X149774126Y-32046080D03*
X149774126Y-27146080D03*
X146474126Y-27146080D03*
%TD*%
%TO.C,D341*%
X207645200Y-142332880D03*
X210945200Y-142332880D03*
X210945200Y-137432880D03*
X207645200Y-137432880D03*
%TD*%
D15*
%TO.C,C214*%
X168064257Y-69215000D03*
X169024257Y-69215000D03*
%TD*%
D23*
%TO.C,R4*%
X155524200Y-237032800D03*
X154504200Y-237032800D03*
%TD*%
D15*
%TO.C,C315*%
X229099681Y-124464586D03*
X230059681Y-124464586D03*
%TD*%
D16*
%TO.C,D159*%
X309645200Y-76160800D03*
X312945200Y-76160800D03*
X312945200Y-71260800D03*
X309645200Y-71260800D03*
%TD*%
D23*
%TO.C,R37*%
X202313000Y-240157000D03*
X201293000Y-240157000D03*
%TD*%
D15*
%TO.C,C74*%
X76285786Y-113411000D03*
X77245786Y-113411000D03*
%TD*%
D16*
%TO.C,D317*%
X289245200Y-131304200D03*
X292545200Y-131304200D03*
X292545200Y-126404200D03*
X289245200Y-126404200D03*
%TD*%
D15*
%TO.C,C77*%
X76285786Y-146558000D03*
X77245786Y-146558000D03*
%TD*%
%TO.C,C116*%
X106889535Y-47126941D03*
X107849535Y-47126941D03*
%TD*%
D16*
%TO.C,D228*%
X360645200Y-98218160D03*
X363945200Y-98218160D03*
X363945200Y-93318160D03*
X360645200Y-93318160D03*
%TD*%
%TO.C,D432*%
X156645200Y-175418920D03*
X159945200Y-175418920D03*
X159945200Y-170518920D03*
X156645200Y-170518920D03*
%TD*%
D15*
%TO.C,C252*%
X188349309Y-135365431D03*
X189309309Y-135365431D03*
%TD*%
D16*
%TO.C,D419*%
X350445200Y-164390240D03*
X353745200Y-164390240D03*
X353745200Y-159490240D03*
X350445200Y-159490240D03*
%TD*%
D15*
%TO.C,C429*%
X300412832Y-146558000D03*
X301372832Y-146558000D03*
%TD*%
D16*
%TO.C,D407*%
X228045200Y-164390240D03*
X231345200Y-164390240D03*
X231345200Y-159490240D03*
X228045200Y-159490240D03*
%TD*%
D15*
%TO.C,C305*%
X218823664Y-190881000D03*
X219783664Y-190881000D03*
%TD*%
D17*
%TO.C,R11*%
X77802100Y-245338600D03*
X79627100Y-245338600D03*
%TD*%
D15*
%TO.C,C523*%
X361538390Y-124464586D03*
X362498390Y-124464586D03*
%TD*%
%TO.C,C437*%
X310805275Y-58175176D03*
X311765275Y-58175176D03*
%TD*%
%TO.C,C95*%
X86473379Y-168783000D03*
X87433379Y-168783000D03*
%TD*%
D16*
%TO.C,D410*%
X258645200Y-164390240D03*
X261945200Y-164390240D03*
X261945200Y-159490240D03*
X258645200Y-159490240D03*
%TD*%
%TO.C,D322*%
X340245200Y-131304200D03*
X343545200Y-131304200D03*
X343545200Y-126404200D03*
X340245200Y-126404200D03*
%TD*%
D15*
%TO.C,C324*%
X239434766Y-47126941D03*
X240394766Y-47126941D03*
%TD*%
D16*
%TO.C,D107*%
X105645200Y-65132120D03*
X108945200Y-65132120D03*
X108945200Y-60232120D03*
X105645200Y-60232120D03*
%TD*%
%TO.C,D486*%
X54645200Y-197476280D03*
X57945200Y-197476280D03*
X57945200Y-192576280D03*
X54645200Y-192576280D03*
%TD*%
D15*
%TO.C,C60*%
X66098193Y-135365431D03*
X67058193Y-135365431D03*
%TD*%
D16*
%TO.C,D30*%
X299454386Y-32046080D03*
X302754386Y-32046080D03*
X302754386Y-27146080D03*
X299454386Y-27146080D03*
%TD*%
D15*
%TO.C,C441*%
X310600425Y-102362000D03*
X311560425Y-102362000D03*
%TD*%
D16*
%TO.C,D325*%
X370845200Y-131304200D03*
X374145200Y-131304200D03*
X374145200Y-126404200D03*
X370845200Y-126404200D03*
%TD*%
D15*
%TO.C,C50*%
X66068000Y-25030471D03*
X67028000Y-25030471D03*
%TD*%
D16*
%TO.C,D168*%
X75045200Y-87189480D03*
X78345200Y-87189480D03*
X78345200Y-82289480D03*
X75045200Y-82289480D03*
%TD*%
D15*
%TO.C,C37*%
X55910600Y-58175176D03*
X56870600Y-58175176D03*
%TD*%
D29*
%TO.C,C23*%
X95048600Y-244273700D03*
X92098600Y-244273700D03*
%TD*%
D15*
%TO.C,C330*%
X239287274Y-113411000D03*
X240247274Y-113411000D03*
%TD*%
%TO.C,C451*%
X321001062Y-35849793D03*
X321961062Y-35849793D03*
%TD*%
%TO.C,C518*%
X361784210Y-69215000D03*
X362744210Y-69215000D03*
%TD*%
%TO.C,C478*%
X330975611Y-157470057D03*
X331935611Y-157470057D03*
%TD*%
%TO.C,C499*%
X351588423Y-35849793D03*
X352548423Y-35849793D03*
%TD*%
D16*
%TO.C,D504*%
X238245200Y-197476280D03*
X241545200Y-197476280D03*
X241545200Y-192576280D03*
X238245200Y-192576280D03*
%TD*%
%TO.C,D346*%
X258645200Y-142332880D03*
X261945200Y-142332880D03*
X261945200Y-137432880D03*
X258645200Y-137432880D03*
%TD*%
%TO.C,D165*%
X370845200Y-76160800D03*
X374145200Y-76160800D03*
X374145200Y-71260800D03*
X370845200Y-71260800D03*
%TD*%
D15*
%TO.C,C526*%
X361538390Y-157470057D03*
X362498390Y-157470057D03*
%TD*%
D16*
%TO.C,D509*%
X289245200Y-197476280D03*
X292545200Y-197476280D03*
X292545200Y-192576280D03*
X289245200Y-192576280D03*
%TD*%
%TO.C,D157*%
X289245200Y-76160800D03*
X292545200Y-76160800D03*
X292545200Y-71260800D03*
X289245200Y-71260800D03*
%TD*%
%TO.C,D219*%
X268845200Y-98218160D03*
X272145200Y-98218160D03*
X272145200Y-93318160D03*
X268845200Y-93318160D03*
%TD*%
D15*
%TO.C,C39*%
X55910600Y-80271646D03*
X56870600Y-80271646D03*
%TD*%
D16*
%TO.C,D29*%
X289255702Y-32046080D03*
X292555702Y-32046080D03*
X292555702Y-27146080D03*
X289255702Y-27146080D03*
%TD*%
D15*
%TO.C,C348*%
X249474867Y-135365431D03*
X250434867Y-135365431D03*
%TD*%
D16*
%TO.C,D61*%
X289245200Y-43074760D03*
X292545200Y-43074760D03*
X292545200Y-38174760D03*
X289245200Y-38174760D03*
%TD*%
D15*
%TO.C,C63*%
X66098193Y-168783000D03*
X67058193Y-168783000D03*
%TD*%
%TO.C,C362*%
X259662460Y-113411000D03*
X260622460Y-113411000D03*
%TD*%
%TO.C,C412*%
X290225239Y-135365431D03*
X291185239Y-135365431D03*
%TD*%
D16*
%TO.C,D58*%
X258645200Y-43074760D03*
X261945200Y-43074760D03*
X261945200Y-38174760D03*
X258645200Y-38174760D03*
%TD*%
%TO.C,D17*%
X166871494Y-32046080D03*
X170171494Y-32046080D03*
X170171494Y-27146080D03*
X166871494Y-27146080D03*
%TD*%
D15*
%TO.C,C245*%
X188455831Y-58175176D03*
X189415831Y-58175176D03*
%TD*%
D16*
%TO.C,D357*%
X370845200Y-142332880D03*
X374145200Y-142332880D03*
X374145200Y-137432880D03*
X370845200Y-137432880D03*
%TD*%
%TO.C,D431*%
X146445200Y-175418920D03*
X149745200Y-175418920D03*
X149745200Y-170518920D03*
X146445200Y-170518920D03*
%TD*%
D15*
%TO.C,C75*%
X76285786Y-124464586D03*
X77245786Y-124464586D03*
%TD*%
D16*
%TO.C,D332*%
X115845200Y-142332880D03*
X119145200Y-142332880D03*
X119145200Y-137432880D03*
X115845200Y-137432880D03*
%TD*%
D15*
%TO.C,C418*%
X300589186Y-24776469D03*
X301549186Y-24776469D03*
%TD*%
%TO.C,C115*%
X106889535Y-35849793D03*
X107849535Y-35849793D03*
%TD*%
D31*
%TO.C,U1*%
X156802400Y-225964400D03*
X155532400Y-225964400D03*
X154262400Y-225964400D03*
X152992400Y-225964400D03*
X152992400Y-231364400D03*
X154262400Y-231364400D03*
X155532400Y-231364400D03*
X156802400Y-231364400D03*
D32*
X154897400Y-228664400D03*
%TD*%
D16*
%TO.C,D481*%
X330045200Y-186447600D03*
X333345200Y-186447600D03*
X333345200Y-181547600D03*
X330045200Y-181547600D03*
%TD*%
%TO.C,D358*%
X54645200Y-153361560D03*
X57945200Y-153361560D03*
X57945200Y-148461560D03*
X54645200Y-148461560D03*
%TD*%
D15*
%TO.C,C110*%
X96660972Y-157470057D03*
X97620972Y-157470057D03*
%TD*%
%TO.C,C337*%
X239207172Y-190881000D03*
X240167172Y-190881000D03*
%TD*%
%TO.C,C248*%
X188349309Y-91319881D03*
X189309309Y-91319881D03*
%TD*%
%TO.C,C331*%
X239287274Y-124464586D03*
X240247274Y-124464586D03*
%TD*%
%TO.C,C474*%
X330975611Y-113411000D03*
X331935611Y-113411000D03*
%TD*%
D12*
%TO.C,TP4*%
X100203000Y-231267000D03*
%TD*%
D33*
%TO.C,J8*%
X193015200Y-247294400D03*
X193665200Y-247294400D03*
X194315200Y-247294400D03*
X194965200Y-247294400D03*
X195615200Y-247294400D03*
D34*
X190815200Y-249994400D03*
D35*
X191415200Y-249994400D03*
D36*
X191815200Y-247294400D03*
D37*
X193315200Y-249994400D03*
X195315200Y-249994400D03*
D36*
X196815200Y-247294400D03*
D35*
X197215200Y-249994400D03*
D34*
X197815200Y-249994400D03*
%TD*%
D15*
%TO.C,C11*%
X149913400Y-236601000D03*
X150873400Y-236601000D03*
%TD*%
%TO.C,C545*%
X371700000Y-190881000D03*
X372660000Y-190881000D03*
%TD*%
D16*
%TO.C,D16*%
X156672810Y-32046080D03*
X159972810Y-32046080D03*
X159972810Y-27146080D03*
X156672810Y-27146080D03*
%TD*%
D15*
%TO.C,C191*%
X147598937Y-168783000D03*
X148558937Y-168783000D03*
%TD*%
D16*
%TO.C,D456*%
X75045200Y-186447600D03*
X78345200Y-186447600D03*
X78345200Y-181547600D03*
X75045200Y-181547600D03*
%TD*%
%TO.C,D32*%
X319851754Y-32046080D03*
X323151754Y-32046080D03*
X323151754Y-27146080D03*
X319851754Y-27146080D03*
%TD*%
%TO.C,D180*%
X197445200Y-87189480D03*
X200745200Y-87189480D03*
X200745200Y-82289480D03*
X197445200Y-82289480D03*
%TD*%
D15*
%TO.C,C76*%
X76285786Y-135365431D03*
X77245786Y-135365431D03*
%TD*%
%TO.C,C319*%
X229099681Y-168783000D03*
X230059681Y-168783000D03*
%TD*%
D16*
%TO.C,D388*%
X360645200Y-153361560D03*
X363945200Y-153361560D03*
X363945200Y-148461560D03*
X360645200Y-148461560D03*
%TD*%
D15*
%TO.C,C462*%
X320788018Y-157470057D03*
X321748018Y-157470057D03*
%TD*%
D28*
%TO.C,C24*%
X116329400Y-229717600D03*
X115369400Y-229717600D03*
%TD*%
D15*
%TO.C,C127*%
X106848565Y-168783000D03*
X107808565Y-168783000D03*
%TD*%
D38*
%TO.C,J6*%
X62027600Y-212024200D03*
D39*
X55727600Y-212024200D03*
D40*
X59127600Y-216824200D03*
%TD*%
D16*
%TO.C,D474*%
X258645200Y-186447600D03*
X261945200Y-186447600D03*
X261945200Y-181547600D03*
X258645200Y-181547600D03*
%TD*%
D15*
%TO.C,C532*%
X371980000Y-47126941D03*
X372940000Y-47126941D03*
%TD*%
D16*
%TO.C,D95*%
X309645200Y-54103440D03*
X312945200Y-54103440D03*
X312945200Y-49203440D03*
X309645200Y-49203440D03*
%TD*%
D15*
%TO.C,C61*%
X66098193Y-146558000D03*
X67058193Y-146558000D03*
%TD*%
D16*
%TO.C,D507*%
X268845200Y-197476280D03*
X272145200Y-197476280D03*
X272145200Y-192576280D03*
X268845200Y-192576280D03*
%TD*%
D15*
%TO.C,C16*%
X135130600Y-236651800D03*
X136090600Y-236651800D03*
%TD*%
D41*
%TO.C,C27*%
X110198200Y-230860600D03*
X108648200Y-230860600D03*
%TD*%
D15*
%TO.C,C483*%
X341392636Y-35849793D03*
X342352636Y-35849793D03*
%TD*%
%TO.C,C65*%
X65947354Y-190881000D03*
X66907354Y-190881000D03*
%TD*%
D16*
%TO.C,D376*%
X238245200Y-153361560D03*
X241545200Y-153361560D03*
X241545200Y-148461560D03*
X238245200Y-148461560D03*
%TD*%
D15*
%TO.C,C123*%
X106848565Y-124464586D03*
X107808565Y-124464586D03*
%TD*%
D16*
%TO.C,D463*%
X146445200Y-186447600D03*
X149745200Y-186447600D03*
X149745200Y-181547600D03*
X146445200Y-181547600D03*
%TD*%
D15*
%TO.C,C336*%
X239287274Y-179705000D03*
X240247274Y-179705000D03*
%TD*%
D16*
%TO.C,D40*%
X75045200Y-43074760D03*
X78345200Y-43074760D03*
X78345200Y-38174760D03*
X75045200Y-38174760D03*
%TD*%
%TO.C,D439*%
X228045200Y-175418920D03*
X231345200Y-175418920D03*
X231345200Y-170518920D03*
X228045200Y-170518920D03*
%TD*%
D15*
%TO.C,C244*%
X188455831Y-47126941D03*
X189415831Y-47126941D03*
%TD*%
%TO.C,C130*%
X116980000Y-25146000D03*
X117940000Y-25146000D03*
%TD*%
D16*
%TO.C,D169*%
X85245200Y-87189480D03*
X88545200Y-87189480D03*
X88545200Y-82289480D03*
X85245200Y-82289480D03*
%TD*%
%TO.C,D56*%
X238245200Y-43074760D03*
X241545200Y-43074760D03*
X241545200Y-38174760D03*
X238245200Y-38174760D03*
%TD*%
%TO.C,D63*%
X309645200Y-43074760D03*
X312945200Y-43074760D03*
X312945200Y-38174760D03*
X309645200Y-38174760D03*
%TD*%
%TO.C,D485*%
X370845200Y-186447600D03*
X374145200Y-186447600D03*
X374145200Y-181547600D03*
X370845200Y-181547600D03*
%TD*%
%TO.C,D108*%
X115845200Y-65132120D03*
X119145200Y-65132120D03*
X119145200Y-60232120D03*
X115845200Y-60232120D03*
%TD*%
%TO.C,D290*%
X340245200Y-120275520D03*
X343545200Y-120275520D03*
X343545200Y-115375520D03*
X340245200Y-115375520D03*
%TD*%
%TO.C,D259*%
X350445200Y-109246840D03*
X353745200Y-109246840D03*
X353745200Y-104346840D03*
X350445200Y-104346840D03*
%TD*%
%TO.C,D144*%
X156645200Y-76160800D03*
X159945200Y-76160800D03*
X159945200Y-71260800D03*
X156645200Y-71260800D03*
%TD*%
D15*
%TO.C,C455*%
X321001062Y-80271646D03*
X321961062Y-80271646D03*
%TD*%
%TO.C,C140*%
X117036158Y-135365431D03*
X117996158Y-135365431D03*
%TD*%
%TO.C,C375*%
X270022127Y-80271646D03*
X270982127Y-80271646D03*
%TD*%
D16*
%TO.C,D163*%
X350445200Y-76160800D03*
X353745200Y-76160800D03*
X353745200Y-71260800D03*
X350445200Y-71260800D03*
%TD*%
%TO.C,D33*%
X330050438Y-32046080D03*
X333350438Y-32046080D03*
X333350438Y-27146080D03*
X330050438Y-27146080D03*
%TD*%
D15*
%TO.C,C160*%
X127223751Y-179705000D03*
X128183751Y-179705000D03*
%TD*%
D16*
%TO.C,D256*%
X319845200Y-109246840D03*
X323145200Y-109246840D03*
X323145200Y-104346840D03*
X319845200Y-104346840D03*
%TD*%
%TO.C,D230*%
X54645200Y-109246840D03*
X57945200Y-109246840D03*
X57945200Y-104346840D03*
X54645200Y-104346840D03*
%TD*%
%TO.C,D152*%
X238245200Y-76160800D03*
X241545200Y-76160800D03*
X241545200Y-71260800D03*
X238245200Y-71260800D03*
%TD*%
%TO.C,D26*%
X258659650Y-32046080D03*
X261959650Y-32046080D03*
X261959650Y-27146080D03*
X258659650Y-27146080D03*
%TD*%
%TO.C,D136*%
X75045200Y-76160800D03*
X78345200Y-76160800D03*
X78345200Y-71260800D03*
X75045200Y-71260800D03*
%TD*%
D30*
%TO.C,U7*%
X113603000Y-231089200D03*
X113603000Y-232359200D03*
X113603000Y-233629200D03*
X113603000Y-234899200D03*
X118553000Y-234899200D03*
X118553000Y-233629200D03*
X118553000Y-232359200D03*
X118553000Y-231089200D03*
%TD*%
D16*
%TO.C,D356*%
X360645200Y-142332880D03*
X363945200Y-142332880D03*
X363945200Y-137432880D03*
X360645200Y-137432880D03*
%TD*%
D15*
%TO.C,C251*%
X188349309Y-124464586D03*
X189309309Y-124464586D03*
%TD*%
%TO.C,C459*%
X320788018Y-124464586D03*
X321748018Y-124464586D03*
%TD*%
%TO.C,C81*%
X76139108Y-190881000D03*
X77099108Y-190881000D03*
%TD*%
%TO.C,C98*%
X96580000Y-25030471D03*
X97540000Y-25030471D03*
%TD*%
%TO.C,C94*%
X86473379Y-157470057D03*
X87433379Y-157470057D03*
%TD*%
D16*
%TO.C,D226*%
X340245200Y-98218160D03*
X343545200Y-98218160D03*
X343545200Y-93318160D03*
X340245200Y-93318160D03*
%TD*%
D15*
%TO.C,C380*%
X269850053Y-135365431D03*
X270810053Y-135365431D03*
%TD*%
%TO.C,C178*%
X147710000Y-25016968D03*
X148670000Y-25016968D03*
%TD*%
%TO.C,C138*%
X117036158Y-113411000D03*
X117996158Y-113411000D03*
%TD*%
%TO.C,C221*%
X167974123Y-146558000D03*
X168934123Y-146558000D03*
%TD*%
D42*
%TO.C,R32*%
X129295750Y-221645500D03*
X129295750Y-220625500D03*
%TD*%
D17*
%TO.C,R20*%
X108612300Y-232791000D03*
X110437300Y-232791000D03*
%TD*%
D15*
%TO.C,C277*%
X208847405Y-58175176D03*
X209807405Y-58175176D03*
%TD*%
D16*
%TO.C,D59*%
X268845200Y-43074760D03*
X272145200Y-43074760D03*
X272145200Y-38174760D03*
X268845200Y-38174760D03*
%TD*%
D15*
%TO.C,C201*%
X157786530Y-102362000D03*
X158746530Y-102362000D03*
%TD*%
%TO.C,C332*%
X239287274Y-135365431D03*
X240247274Y-135365431D03*
%TD*%
D16*
%TO.C,D146*%
X177045200Y-76160800D03*
X180345200Y-76160800D03*
X180345200Y-71260800D03*
X177045200Y-71260800D03*
%TD*%
D15*
%TO.C,C500*%
X351588423Y-47126941D03*
X352548423Y-47126941D03*
%TD*%
D42*
%TO.C,R30*%
X136275874Y-221743100D03*
X136275874Y-220723100D03*
%TD*%
D16*
%TO.C,D467*%
X187245200Y-186447600D03*
X190545200Y-186447600D03*
X190545200Y-181547600D03*
X187245200Y-181547600D03*
%TD*%
%TO.C,D348*%
X279045200Y-142332880D03*
X282345200Y-142332880D03*
X282345200Y-137432880D03*
X279045200Y-137432880D03*
%TD*%
D43*
%TO.C,R35*%
X201468800Y-236855000D03*
X202488800Y-236855000D03*
%TD*%
D16*
%TO.C,D464*%
X156645200Y-186447600D03*
X159945200Y-186447600D03*
X159945200Y-181547600D03*
X156645200Y-181547600D03*
%TD*%
%TO.C,D14*%
X136275442Y-32046080D03*
X139575442Y-32046080D03*
X139575442Y-27146080D03*
X136275442Y-27146080D03*
%TD*%
%TO.C,D500*%
X197445200Y-197476280D03*
X200745200Y-197476280D03*
X200745200Y-192576280D03*
X197445200Y-192576280D03*
%TD*%
D15*
%TO.C,C163*%
X137476896Y-35849793D03*
X138436896Y-35849793D03*
%TD*%
%TO.C,C270*%
X198536902Y-157470057D03*
X199496902Y-157470057D03*
%TD*%
%TO.C,C108*%
X96660972Y-135365431D03*
X97620972Y-135365431D03*
%TD*%
%TO.C,C85*%
X86497961Y-58175176D03*
X87457961Y-58175176D03*
%TD*%
%TO.C,C256*%
X188349309Y-179705000D03*
X189309309Y-179705000D03*
%TD*%
D16*
%TO.C,D72*%
X75045200Y-54103440D03*
X78345200Y-54103440D03*
X78345200Y-49203440D03*
X75045200Y-49203440D03*
%TD*%
D15*
%TO.C,C419*%
X300609488Y-35849793D03*
X301569488Y-35849793D03*
%TD*%
D16*
%TO.C,D237*%
X126045200Y-109246840D03*
X129345200Y-109246840D03*
X129345200Y-104346840D03*
X126045200Y-104346840D03*
%TD*%
D15*
%TO.C,C84*%
X86497961Y-47126941D03*
X87457961Y-47126941D03*
%TD*%
D42*
%TO.C,R28*%
X175872400Y-248485600D03*
X175872400Y-247465600D03*
%TD*%
D16*
%TO.C,D326*%
X54645200Y-142332880D03*
X57945200Y-142332880D03*
X57945200Y-137432880D03*
X54645200Y-137432880D03*
%TD*%
D15*
%TO.C,C481*%
X330932958Y-190881000D03*
X331892958Y-190881000D03*
%TD*%
%TO.C,C153*%
X127223751Y-102362000D03*
X128183751Y-102362000D03*
%TD*%
D16*
%TO.C,D455*%
X64845200Y-186447600D03*
X68145200Y-186447600D03*
X68145200Y-181547600D03*
X64845200Y-181547600D03*
%TD*%
%TO.C,D479*%
X309645200Y-186447600D03*
X312945200Y-186447600D03*
X312945200Y-181547600D03*
X309645200Y-181547600D03*
%TD*%
%TO.C,D171*%
X105645200Y-87189480D03*
X108945200Y-87189480D03*
X108945200Y-82289480D03*
X105645200Y-82289480D03*
%TD*%
D44*
%TO.C,J9*%
X209169000Y-229743000D03*
X204089000Y-230759000D03*
X204089000Y-228727000D03*
D45*
X207899000Y-229108000D03*
X207899000Y-230378000D03*
X206629000Y-229108000D03*
X206629000Y-230378000D03*
X205359000Y-229108000D03*
X205359000Y-230378000D03*
%TD*%
D12*
%TO.C,TP3*%
X101041200Y-246735600D03*
%TD*%
D43*
%TO.C,R38*%
X201293000Y-241300000D03*
X202313000Y-241300000D03*
%TD*%
D15*
%TO.C,C328*%
X239287274Y-91319881D03*
X240247274Y-91319881D03*
%TD*%
D16*
%TO.C,D378*%
X258645200Y-153361560D03*
X261945200Y-153361560D03*
X261945200Y-148461560D03*
X258645200Y-148461560D03*
%TD*%
D15*
%TO.C,C415*%
X290225239Y-168783000D03*
X291185239Y-168783000D03*
%TD*%
D16*
%TO.C,D76*%
X115845200Y-54103440D03*
X119145200Y-54103440D03*
X119145200Y-49203440D03*
X115845200Y-49203440D03*
%TD*%
D15*
%TO.C,C358*%
X259826340Y-69215000D03*
X260786340Y-69215000D03*
%TD*%
%TO.C,C210*%
X167980000Y-24842301D03*
X168940000Y-24842301D03*
%TD*%
%TO.C,C231*%
X178260044Y-80271646D03*
X179220044Y-80271646D03*
%TD*%
%TO.C,C161*%
X127097878Y-190881000D03*
X128057878Y-190881000D03*
%TD*%
D21*
%TO.C,D5*%
X143256000Y-225649000D03*
X143256000Y-223774000D03*
%TD*%
D15*
%TO.C,C87*%
X86497961Y-80271646D03*
X87457961Y-80271646D03*
%TD*%
%TO.C,C66*%
X76050200Y-25030471D03*
X77010200Y-25030471D03*
%TD*%
%TO.C,C338*%
X249580000Y-24772646D03*
X250540000Y-24772646D03*
%TD*%
D16*
%TO.C,D497*%
X166845200Y-197476280D03*
X170145200Y-197476280D03*
X170145200Y-192576280D03*
X166845200Y-192576280D03*
%TD*%
D15*
%TO.C,C97*%
X86330862Y-190881000D03*
X87290862Y-190881000D03*
%TD*%
D16*
%TO.C,D48*%
X156645200Y-43074760D03*
X159945200Y-43074760D03*
X159945200Y-38174760D03*
X156645200Y-38174760D03*
%TD*%
D17*
%TO.C,R34*%
X92305500Y-232511600D03*
X94130500Y-232511600D03*
%TD*%
D16*
%TO.C,D36*%
X360646490Y-32046080D03*
X363946490Y-32046080D03*
X363946490Y-27146080D03*
X360646490Y-27146080D03*
%TD*%
D15*
%TO.C,C56*%
X66098193Y-91319881D03*
X67058193Y-91319881D03*
%TD*%
%TO.C,C250*%
X188349309Y-113411000D03*
X189309309Y-113411000D03*
%TD*%
D16*
%TO.C,D12*%
X115878074Y-32046080D03*
X119178074Y-32046080D03*
X119178074Y-27146080D03*
X115878074Y-27146080D03*
%TD*%
D15*
%TO.C,C266*%
X198536902Y-113411000D03*
X199496902Y-113411000D03*
%TD*%
D19*
%TO.C,C7*%
X144170400Y-240896200D03*
X144170400Y-241856200D03*
%TD*%
D16*
%TO.C,D390*%
X54645200Y-164390240D03*
X57945200Y-164390240D03*
X57945200Y-159490240D03*
X54645200Y-159490240D03*
%TD*%
D15*
%TO.C,C93*%
X86473379Y-146558000D03*
X87433379Y-146558000D03*
%TD*%
D16*
%TO.C,D452*%
X360645200Y-175418920D03*
X363945200Y-175418920D03*
X363945200Y-170518920D03*
X360645200Y-170518920D03*
%TD*%
D15*
%TO.C,C322*%
X239550000Y-24772646D03*
X240510000Y-24772646D03*
%TD*%
D16*
%TO.C,D187*%
X268845200Y-87189480D03*
X272145200Y-87189480D03*
X272145200Y-82289480D03*
X268845200Y-82289480D03*
%TD*%
%TO.C,D418*%
X340245200Y-164390240D03*
X343545200Y-164390240D03*
X343545200Y-159490240D03*
X340245200Y-159490240D03*
%TD*%
%TO.C,D487*%
X64845200Y-197476280D03*
X68145200Y-197476280D03*
X68145200Y-192576280D03*
X64845200Y-192576280D03*
%TD*%
D15*
%TO.C,C465*%
X320741204Y-190881000D03*
X321701204Y-190881000D03*
%TD*%
D16*
%TO.C,D7*%
X64884654Y-32046080D03*
X68184654Y-32046080D03*
X68184654Y-27146080D03*
X64884654Y-27146080D03*
%TD*%
D15*
%TO.C,C156*%
X127223751Y-135365431D03*
X128183751Y-135365431D03*
%TD*%
D16*
%TO.C,D43*%
X105645200Y-43074760D03*
X108945200Y-43074760D03*
X108945200Y-38174760D03*
X105645200Y-38174760D03*
%TD*%
D15*
%TO.C,C301*%
X218912088Y-146558000D03*
X219872088Y-146558000D03*
%TD*%
D12*
%TO.C,TP5*%
X88366600Y-228371400D03*
%TD*%
D16*
%TO.C,D239*%
X146445200Y-109246840D03*
X149745200Y-109246840D03*
X149745200Y-104346840D03*
X146445200Y-104346840D03*
%TD*%
D15*
%TO.C,C430*%
X300412832Y-157470057D03*
X301372832Y-157470057D03*
%TD*%
D16*
%TO.C,D212*%
X197445200Y-98218160D03*
X200745200Y-98218160D03*
X200745200Y-93318160D03*
X197445200Y-93318160D03*
%TD*%
%TO.C,D160*%
X319845200Y-76160800D03*
X323145200Y-76160800D03*
X323145200Y-71260800D03*
X319845200Y-71260800D03*
%TD*%
%TO.C,D295*%
X64845200Y-131304200D03*
X68145200Y-131304200D03*
X68145200Y-126404200D03*
X64845200Y-126404200D03*
%TD*%
D46*
%TO.C,J7*%
X51673000Y-243713000D03*
X58673000Y-243713000D03*
D47*
X56273000Y-240463000D03*
X53273000Y-240463000D03*
X61373000Y-246963000D03*
X60273000Y-240463000D03*
%TD*%
D16*
%TO.C,D170*%
X95445200Y-87189480D03*
X98745200Y-87189480D03*
X98745200Y-82289480D03*
X95445200Y-82289480D03*
%TD*%
D19*
%TO.C,C547*%
X217373200Y-242674200D03*
X217373200Y-243634200D03*
%TD*%
D16*
%TO.C,D78*%
X136245200Y-54103440D03*
X139545200Y-54103440D03*
X139545200Y-49203440D03*
X136245200Y-49203440D03*
%TD*%
D15*
%TO.C,C176*%
X137411344Y-179705000D03*
X138371344Y-179705000D03*
%TD*%
D16*
%TO.C,D371*%
X187245200Y-153361560D03*
X190545200Y-153361560D03*
X190545200Y-148461560D03*
X187245200Y-148461560D03*
%TD*%
D15*
%TO.C,C90*%
X86473379Y-113411000D03*
X87433379Y-113411000D03*
%TD*%
D48*
%TO.C,C26*%
X100888800Y-241733600D03*
X100888800Y-238783600D03*
%TD*%
D16*
%TO.C,D362*%
X95445200Y-153361560D03*
X98745200Y-153361560D03*
X98745200Y-148461560D03*
X95445200Y-148461560D03*
%TD*%
%TO.C,D277*%
X207645200Y-120275520D03*
X210945200Y-120275520D03*
X210945200Y-115375520D03*
X207645200Y-115375520D03*
%TD*%
D15*
%TO.C,C303*%
X218912088Y-168783000D03*
X219872088Y-168783000D03*
%TD*%
D16*
%TO.C,D441*%
X248445200Y-175418920D03*
X251745200Y-175418920D03*
X251745200Y-170518920D03*
X248445200Y-170518920D03*
%TD*%
D15*
%TO.C,C12*%
X149890600Y-239496600D03*
X150850600Y-239496600D03*
%TD*%
D43*
%TO.C,R7*%
X206879000Y-233502200D03*
X207899000Y-233502200D03*
%TD*%
D15*
%TO.C,C265*%
X198536902Y-102362000D03*
X199496902Y-102362000D03*
%TD*%
D26*
%TO.C,SW3*%
X166751000Y-246049800D03*
X172751000Y-246049800D03*
X166751000Y-249799800D03*
X172751000Y-249799800D03*
%TD*%
D15*
%TO.C,C373*%
X270022127Y-58175176D03*
X270982127Y-58175176D03*
%TD*%
D16*
%TO.C,D370*%
X177045200Y-153361560D03*
X180345200Y-153361560D03*
X180345200Y-148461560D03*
X177045200Y-148461560D03*
%TD*%
%TO.C,D254*%
X299445200Y-109246840D03*
X302745200Y-109246840D03*
X302745200Y-104346840D03*
X299445200Y-104346840D03*
%TD*%
%TO.C,D234*%
X95445200Y-109246840D03*
X98745200Y-109246840D03*
X98745200Y-104346840D03*
X95445200Y-104346840D03*
%TD*%
D15*
%TO.C,C320*%
X229099681Y-179705000D03*
X230059681Y-179705000D03*
%TD*%
D16*
%TO.C,D372*%
X197445200Y-153361560D03*
X200745200Y-153361560D03*
X200745200Y-148461560D03*
X197445200Y-148461560D03*
%TD*%
%TO.C,D238*%
X136245200Y-109246840D03*
X139545200Y-109246840D03*
X139545200Y-104346840D03*
X136245200Y-104346840D03*
%TD*%
D15*
%TO.C,C154*%
X127223751Y-113411000D03*
X128183751Y-113411000D03*
%TD*%
%TO.C,C296*%
X218912088Y-91319881D03*
X219872088Y-91319881D03*
%TD*%
%TO.C,C391*%
X280217914Y-80271646D03*
X281177914Y-80271646D03*
%TD*%
%TO.C,C443*%
X310600425Y-124464586D03*
X311560425Y-124464586D03*
%TD*%
%TO.C,C54*%
X66106387Y-69215000D03*
X67066387Y-69215000D03*
%TD*%
D16*
%TO.C,D247*%
X228045200Y-109246840D03*
X231345200Y-109246840D03*
X231345200Y-104346840D03*
X228045200Y-104346840D03*
%TD*%
%TO.C,D147*%
X187245200Y-76160800D03*
X190545200Y-76160800D03*
X190545200Y-71260800D03*
X187245200Y-71260800D03*
%TD*%
%TO.C,D304*%
X156645200Y-131304200D03*
X159945200Y-131304200D03*
X159945200Y-126404200D03*
X156645200Y-126404200D03*
%TD*%
%TO.C,D134*%
X54645200Y-76160800D03*
X57945200Y-76160800D03*
X57945200Y-71260800D03*
X54645200Y-71260800D03*
%TD*%
%TO.C,D417*%
X330045200Y-164390240D03*
X333345200Y-164390240D03*
X333345200Y-159490240D03*
X330045200Y-159490240D03*
%TD*%
%TO.C,D213*%
X207645200Y-98218160D03*
X210945200Y-98218160D03*
X210945200Y-93318160D03*
X207645200Y-93318160D03*
%TD*%
%TO.C,D375*%
X228045200Y-153361560D03*
X231345200Y-153361560D03*
X231345200Y-148461560D03*
X228045200Y-148461560D03*
%TD*%
D15*
%TO.C,C164*%
X137476896Y-47126941D03*
X138436896Y-47126941D03*
%TD*%
D16*
%TO.C,D128*%
X319845200Y-65132120D03*
X323145200Y-65132120D03*
X323145200Y-60232120D03*
X319845200Y-60232120D03*
%TD*%
D15*
%TO.C,C82*%
X86070000Y-25030471D03*
X87030000Y-25030471D03*
%TD*%
D24*
%TO.C,R16*%
X98374200Y-237462700D03*
X98374200Y-235637700D03*
%TD*%
D16*
%TO.C,D272*%
X156645200Y-120275520D03*
X159945200Y-120275520D03*
X159945200Y-115375520D03*
X156645200Y-115375520D03*
%TD*%
D15*
%TO.C,C279*%
X208847405Y-80271646D03*
X209807405Y-80271646D03*
%TD*%
%TO.C,C316*%
X229099681Y-135365431D03*
X230059681Y-135365431D03*
%TD*%
D24*
%TO.C,R13*%
X73812400Y-241171100D03*
X73812400Y-239346100D03*
%TD*%
D15*
%TO.C,C480*%
X330975611Y-179705000D03*
X331935611Y-179705000D03*
%TD*%
D16*
%TO.C,D142*%
X136245200Y-76160800D03*
X139545200Y-76160800D03*
X139545200Y-71260800D03*
X136245200Y-71260800D03*
%TD*%
D15*
%TO.C,C486*%
X341392636Y-69215000D03*
X342352636Y-69215000D03*
%TD*%
%TO.C,C452*%
X321001062Y-47126941D03*
X321961062Y-47126941D03*
%TD*%
%TO.C,C360*%
X259662460Y-91319881D03*
X260622460Y-91319881D03*
%TD*%
D16*
%TO.C,D415*%
X309645200Y-164390240D03*
X312945200Y-164390240D03*
X312945200Y-159490240D03*
X309645200Y-159490240D03*
%TD*%
D15*
%TO.C,C51*%
X66106387Y-35849793D03*
X67066387Y-35849793D03*
%TD*%
D16*
%TO.C,D218*%
X258645200Y-98218160D03*
X261945200Y-98218160D03*
X261945200Y-93318160D03*
X258645200Y-93318160D03*
%TD*%
%TO.C,D73*%
X85245200Y-54103440D03*
X88545200Y-54103440D03*
X88545200Y-49203440D03*
X85245200Y-49203440D03*
%TD*%
D15*
%TO.C,C67*%
X76302174Y-35849793D03*
X77262174Y-35849793D03*
%TD*%
D49*
%TO.C,U2*%
X147786400Y-232807900D03*
X147386400Y-232807900D03*
X146986400Y-232807900D03*
X146586400Y-232807900D03*
X146186400Y-232807900D03*
X145786400Y-232807900D03*
X145386400Y-232807900D03*
X144986400Y-232807900D03*
X144586400Y-232807900D03*
X144186400Y-232807900D03*
X143786400Y-232807900D03*
X143386400Y-232807900D03*
X142986400Y-232807900D03*
X142586400Y-232807900D03*
D50*
X141748900Y-233645400D03*
X141748900Y-234045400D03*
X141748900Y-234445400D03*
X141748900Y-234845400D03*
X141748900Y-235245400D03*
X141748900Y-235645400D03*
X141748900Y-236045400D03*
X141748900Y-236445400D03*
X141748900Y-236845400D03*
X141748900Y-237245400D03*
X141748900Y-237645400D03*
X141748900Y-238045400D03*
X141748900Y-238445400D03*
X141748900Y-238845400D03*
D49*
X142586400Y-239682900D03*
X142986400Y-239682900D03*
X143386400Y-239682900D03*
X143786400Y-239682900D03*
X144186400Y-239682900D03*
X144586400Y-239682900D03*
X144986400Y-239682900D03*
X145386400Y-239682900D03*
X145786400Y-239682900D03*
X146186400Y-239682900D03*
X146586400Y-239682900D03*
X146986400Y-239682900D03*
X147386400Y-239682900D03*
X147786400Y-239682900D03*
D50*
X148623900Y-238845400D03*
X148623900Y-238445400D03*
X148623900Y-238045400D03*
X148623900Y-237645400D03*
X148623900Y-237245400D03*
X148623900Y-236845400D03*
X148623900Y-236445400D03*
X148623900Y-236045400D03*
X148623900Y-235645400D03*
X148623900Y-235245400D03*
X148623900Y-234845400D03*
X148623900Y-234445400D03*
X148623900Y-234045400D03*
X148623900Y-233645400D03*
D51*
X145186400Y-236245400D03*
%TD*%
D16*
%TO.C,D266*%
X95445200Y-120275520D03*
X98745200Y-120275520D03*
X98745200Y-115375520D03*
X95445200Y-115375520D03*
%TD*%
D23*
%TO.C,R5*%
X155524200Y-238159000D03*
X154504200Y-238159000D03*
%TD*%
D15*
%TO.C,C225*%
X167864894Y-190881000D03*
X168824894Y-190881000D03*
%TD*%
D16*
%TO.C,D133*%
X370845200Y-65132120D03*
X374145200Y-65132120D03*
X374145200Y-60232120D03*
X370845200Y-60232120D03*
%TD*%
%TO.C,D193*%
X330045200Y-87189480D03*
X333345200Y-87189480D03*
X333345200Y-82289480D03*
X330045200Y-82289480D03*
%TD*%
%TO.C,D513*%
X330045200Y-197476280D03*
X333345200Y-197476280D03*
X333345200Y-192576280D03*
X330045200Y-192576280D03*
%TD*%
D15*
%TO.C,C137*%
X117036158Y-102362000D03*
X117996158Y-102362000D03*
%TD*%
%TO.C,C136*%
X117036158Y-91319881D03*
X117996158Y-91319881D03*
%TD*%
%TO.C,C285*%
X208724495Y-146558000D03*
X209684495Y-146558000D03*
%TD*%
%TO.C,C224*%
X167974123Y-179705000D03*
X168934123Y-179705000D03*
%TD*%
D16*
%TO.C,D373*%
X207645200Y-153361560D03*
X210945200Y-153361560D03*
X210945200Y-148461560D03*
X207645200Y-148461560D03*
%TD*%
%TO.C,D199*%
X64845200Y-98218160D03*
X68145200Y-98218160D03*
X68145200Y-93318160D03*
X64845200Y-93318160D03*
%TD*%
%TO.C,D50*%
X177045200Y-43074760D03*
X180345200Y-43074760D03*
X180345200Y-38174760D03*
X177045200Y-38174760D03*
%TD*%
%TO.C,D470*%
X217845200Y-186447600D03*
X221145200Y-186447600D03*
X221145200Y-181547600D03*
X217845200Y-181547600D03*
%TD*%
%TO.C,D123*%
X268845200Y-65132120D03*
X272145200Y-65132120D03*
X272145200Y-60232120D03*
X268845200Y-60232120D03*
%TD*%
%TO.C,D309*%
X207645200Y-131304200D03*
X210945200Y-131304200D03*
X210945200Y-126404200D03*
X207645200Y-126404200D03*
%TD*%
D21*
%TO.C,D2*%
X136271000Y-225649000D03*
X136271000Y-223774000D03*
%TD*%
D15*
%TO.C,C128*%
X106848565Y-179705000D03*
X107808565Y-179705000D03*
%TD*%
%TO.C,C494*%
X341163204Y-157470057D03*
X342123204Y-157470057D03*
%TD*%
D16*
%TO.C,D38*%
X54645200Y-43074760D03*
X57945200Y-43074760D03*
X57945200Y-38174760D03*
X54645200Y-38174760D03*
%TD*%
D15*
%TO.C,C458*%
X320788018Y-113411000D03*
X321748018Y-113411000D03*
%TD*%
D16*
%TO.C,D240*%
X156645200Y-109246840D03*
X159945200Y-109246840D03*
X159945200Y-104346840D03*
X156645200Y-104346840D03*
%TD*%
D15*
%TO.C,C38*%
X55910600Y-69215000D03*
X56870600Y-69215000D03*
%TD*%
D16*
%TO.C,D319*%
X309645200Y-131304200D03*
X312945200Y-131304200D03*
X312945200Y-126404200D03*
X309645200Y-126404200D03*
%TD*%
%TO.C,D406*%
X217845200Y-164390240D03*
X221145200Y-164390240D03*
X221145200Y-159490240D03*
X217845200Y-159490240D03*
%TD*%
%TO.C,D333*%
X126045200Y-142332880D03*
X129345200Y-142332880D03*
X129345200Y-137432880D03*
X126045200Y-137432880D03*
%TD*%
D15*
%TO.C,C326*%
X239434766Y-69215000D03*
X240394766Y-69215000D03*
%TD*%
D16*
%TO.C,D444*%
X279045200Y-175418920D03*
X282345200Y-175418920D03*
X282345200Y-170518920D03*
X279045200Y-170518920D03*
%TD*%
D15*
%TO.C,C193*%
X147481386Y-190881000D03*
X148441386Y-190881000D03*
%TD*%
%TO.C,C300*%
X218912088Y-135365431D03*
X219872088Y-135365431D03*
%TD*%
D16*
%TO.C,D368*%
X156645200Y-153361560D03*
X159945200Y-153361560D03*
X159945200Y-148461560D03*
X156645200Y-148461560D03*
%TD*%
D12*
%TO.C,TP2*%
X69545200Y-233426000D03*
%TD*%
D16*
%TO.C,D217*%
X248445200Y-98218160D03*
X251745200Y-98218160D03*
X251745200Y-93318160D03*
X248445200Y-93318160D03*
%TD*%
%TO.C,D383*%
X309645200Y-153361560D03*
X312945200Y-153361560D03*
X312945200Y-148461560D03*
X309645200Y-148461560D03*
%TD*%
%TO.C,D281*%
X248445200Y-120275520D03*
X251745200Y-120275520D03*
X251745200Y-115375520D03*
X248445200Y-115375520D03*
%TD*%
%TO.C,D449*%
X330045200Y-175418920D03*
X333345200Y-175418920D03*
X333345200Y-170518920D03*
X330045200Y-170518920D03*
%TD*%
%TO.C,D328*%
X75045200Y-142332880D03*
X78345200Y-142332880D03*
X78345200Y-137432880D03*
X75045200Y-137432880D03*
%TD*%
D29*
%TO.C,C20*%
X66981600Y-237312200D03*
X64031600Y-237312200D03*
%TD*%
D15*
%TO.C,C435*%
X310805275Y-35849793D03*
X311765275Y-35849793D03*
%TD*%
%TO.C,C109*%
X96660972Y-146558000D03*
X97620972Y-146558000D03*
%TD*%
%TO.C,C405*%
X290413701Y-58175176D03*
X291373701Y-58175176D03*
%TD*%
D16*
%TO.C,D245*%
X207645200Y-109246840D03*
X210945200Y-109246840D03*
X210945200Y-104346840D03*
X207645200Y-104346840D03*
%TD*%
%TO.C,D350*%
X299445200Y-142332880D03*
X302745200Y-142332880D03*
X302745200Y-137432880D03*
X299445200Y-137432880D03*
%TD*%
%TO.C,D380*%
X279045200Y-153361560D03*
X282345200Y-153361560D03*
X282345200Y-148461560D03*
X279045200Y-148461560D03*
%TD*%
D15*
%TO.C,C378*%
X269850053Y-113411000D03*
X270810053Y-113411000D03*
%TD*%
D16*
%TO.C,D251*%
X268845200Y-109246840D03*
X272145200Y-109246840D03*
X272145200Y-104346840D03*
X268845200Y-104346840D03*
%TD*%
D15*
%TO.C,C517*%
X361784210Y-58175176D03*
X362744210Y-58175176D03*
%TD*%
D16*
%TO.C,D10*%
X95480706Y-32046080D03*
X98780706Y-32046080D03*
X98780706Y-27146080D03*
X95480706Y-27146080D03*
%TD*%
D15*
%TO.C,C421*%
X300609488Y-58175176D03*
X301569488Y-58175176D03*
%TD*%
D16*
%TO.C,D473*%
X248445200Y-186447600D03*
X251745200Y-186447600D03*
X251745200Y-181547600D03*
X248445200Y-181547600D03*
%TD*%
%TO.C,D80*%
X156645200Y-54103440D03*
X159945200Y-54103440D03*
X159945200Y-49203440D03*
X156645200Y-49203440D03*
%TD*%
D52*
%TO.C,Y1*%
X136409800Y-234957800D03*
X136409800Y-232757800D03*
X134709800Y-232757800D03*
X134709800Y-234957800D03*
%TD*%
D28*
%TO.C,C4*%
X140180000Y-237540800D03*
X139220000Y-237540800D03*
%TD*%
D16*
%TO.C,D227*%
X350445200Y-98218160D03*
X353745200Y-98218160D03*
X353745200Y-93318160D03*
X350445200Y-93318160D03*
%TD*%
%TO.C,D184*%
X238245200Y-87189480D03*
X241545200Y-87189480D03*
X241545200Y-82289480D03*
X238245200Y-82289480D03*
%TD*%
%TO.C,D202*%
X95445200Y-98218160D03*
X98745200Y-98218160D03*
X98745200Y-93318160D03*
X95445200Y-93318160D03*
%TD*%
%TO.C,D398*%
X136245200Y-164390240D03*
X139545200Y-164390240D03*
X139545200Y-159490240D03*
X136245200Y-159490240D03*
%TD*%
D25*
%TO.C,JP1*%
X210769200Y-224144600D03*
X210769200Y-222844600D03*
%TD*%
D15*
%TO.C,C171*%
X137411344Y-124464586D03*
X138371344Y-124464586D03*
%TD*%
D16*
%TO.C,D255*%
X309645200Y-109246840D03*
X312945200Y-109246840D03*
X312945200Y-104346840D03*
X309645200Y-104346840D03*
%TD*%
%TO.C,D459*%
X105645200Y-186447600D03*
X108945200Y-186447600D03*
X108945200Y-181547600D03*
X105645200Y-181547600D03*
%TD*%
D15*
%TO.C,C479*%
X330975611Y-168783000D03*
X331935611Y-168783000D03*
%TD*%
%TO.C,C165*%
X137476896Y-58175176D03*
X138436896Y-58175176D03*
%TD*%
D16*
%TO.C,D45*%
X126045200Y-43074760D03*
X129345200Y-43074760D03*
X129345200Y-38174760D03*
X126045200Y-38174760D03*
%TD*%
D15*
%TO.C,C484*%
X341392636Y-47126941D03*
X342352636Y-47126941D03*
%TD*%
%TO.C,C511*%
X351350797Y-168783000D03*
X352310797Y-168783000D03*
%TD*%
%TO.C,C542*%
X371726000Y-157470057D03*
X372686000Y-157470057D03*
%TD*%
D16*
%TO.C,D49*%
X166845200Y-43074760D03*
X170145200Y-43074760D03*
X170145200Y-38174760D03*
X166845200Y-38174760D03*
%TD*%
D23*
%TO.C,R1*%
X156326300Y-223545400D03*
X155306300Y-223545400D03*
%TD*%
D16*
%TO.C,D264*%
X75045200Y-120275520D03*
X78345200Y-120275520D03*
X78345200Y-115375520D03*
X75045200Y-115375520D03*
%TD*%
D15*
%TO.C,C205*%
X157786530Y-146558000D03*
X158746530Y-146558000D03*
%TD*%
%TO.C,C276*%
X208847405Y-47126941D03*
X209807405Y-47126941D03*
%TD*%
D16*
%TO.C,D298*%
X95445200Y-131304200D03*
X98745200Y-131304200D03*
X98745200Y-126404200D03*
X95445200Y-126404200D03*
%TD*%
D15*
%TO.C,C294*%
X219043192Y-69215000D03*
X220003192Y-69215000D03*
%TD*%
D16*
%TO.C,D394*%
X95445200Y-164390240D03*
X98745200Y-164390240D03*
X98745200Y-159490240D03*
X95445200Y-159490240D03*
%TD*%
D15*
%TO.C,C468*%
X331196849Y-47126941D03*
X332156849Y-47126941D03*
%TD*%
%TO.C,C126*%
X106848565Y-157470057D03*
X107808565Y-157470057D03*
%TD*%
D16*
%TO.C,D155*%
X268845200Y-76160800D03*
X272145200Y-76160800D03*
X272145200Y-71260800D03*
X268845200Y-71260800D03*
%TD*%
%TO.C,D499*%
X187245200Y-197476280D03*
X190545200Y-197476280D03*
X190545200Y-192576280D03*
X187245200Y-192576280D03*
%TD*%
%TO.C,D9*%
X85282022Y-32046080D03*
X88582022Y-32046080D03*
X88582022Y-27146080D03*
X85282022Y-27146080D03*
%TD*%
%TO.C,D74*%
X95445200Y-54103440D03*
X98745200Y-54103440D03*
X98745200Y-49203440D03*
X95445200Y-49203440D03*
%TD*%
D15*
%TO.C,C434*%
X310787870Y-24776469D03*
X311747870Y-24776469D03*
%TD*%
%TO.C,C288*%
X208724495Y-179705000D03*
X209684495Y-179705000D03*
%TD*%
D16*
%TO.C,D307*%
X187245200Y-131304200D03*
X190545200Y-131304200D03*
X190545200Y-126404200D03*
X187245200Y-126404200D03*
%TD*%
%TO.C,D113*%
X166845200Y-65132120D03*
X170145200Y-65132120D03*
X170145200Y-60232120D03*
X166845200Y-60232120D03*
%TD*%
D15*
%TO.C,C124*%
X106848565Y-135365431D03*
X107808565Y-135365431D03*
%TD*%
D16*
%TO.C,D395*%
X105645200Y-164390240D03*
X108945200Y-164390240D03*
X108945200Y-159490240D03*
X105645200Y-159490240D03*
%TD*%
D15*
%TO.C,C34*%
X55910600Y-25030471D03*
X56870600Y-25030471D03*
%TD*%
%TO.C,C121*%
X106848565Y-102362000D03*
X107808565Y-102362000D03*
%TD*%
D16*
%TO.C,D305*%
X166845200Y-131304200D03*
X170145200Y-131304200D03*
X170145200Y-126404200D03*
X166845200Y-126404200D03*
%TD*%
%TO.C,D114*%
X177045200Y-65132120D03*
X180345200Y-65132120D03*
X180345200Y-60232120D03*
X177045200Y-60232120D03*
%TD*%
D15*
%TO.C,C240*%
X178161716Y-179705000D03*
X179121716Y-179705000D03*
%TD*%
D16*
%TO.C,D450*%
X340245200Y-175418920D03*
X343545200Y-175418920D03*
X343545200Y-170518920D03*
X340245200Y-170518920D03*
%TD*%
D15*
%TO.C,C72*%
X76285786Y-91319881D03*
X77245786Y-91319881D03*
%TD*%
%TO.C,C257*%
X188248402Y-190881000D03*
X189208402Y-190881000D03*
%TD*%
D16*
%TO.C,D47*%
X146445200Y-43074760D03*
X149745200Y-43074760D03*
X149745200Y-38174760D03*
X146445200Y-38174760D03*
%TD*%
D43*
%TO.C,R12*%
X201468800Y-237947200D03*
X202488800Y-237947200D03*
%TD*%
D16*
%TO.C,D344*%
X238245200Y-142332880D03*
X241545200Y-142332880D03*
X241545200Y-137432880D03*
X238245200Y-137432880D03*
%TD*%
D15*
%TO.C,C384*%
X269850053Y-179705000D03*
X270810053Y-179705000D03*
%TD*%
D16*
%TO.C,D416*%
X319845200Y-164390240D03*
X323145200Y-164390240D03*
X323145200Y-159490240D03*
X319845200Y-159490240D03*
%TD*%
%TO.C,D318*%
X299445200Y-131304200D03*
X302745200Y-131304200D03*
X302745200Y-126404200D03*
X299445200Y-126404200D03*
%TD*%
D15*
%TO.C,C345*%
X249474867Y-102362000D03*
X250434867Y-102362000D03*
%TD*%
%TO.C,C239*%
X178161716Y-168783000D03*
X179121716Y-168783000D03*
%TD*%
D16*
%TO.C,D97*%
X330045200Y-54103440D03*
X333345200Y-54103440D03*
X333345200Y-49203440D03*
X330045200Y-49203440D03*
%TD*%
%TO.C,D480*%
X319845200Y-186447600D03*
X323145200Y-186447600D03*
X323145200Y-181547600D03*
X319845200Y-181547600D03*
%TD*%
%TO.C,D402*%
X177045200Y-164390240D03*
X180345200Y-164390240D03*
X180345200Y-159490240D03*
X177045200Y-159490240D03*
%TD*%
D15*
%TO.C,C112*%
X96660972Y-179705000D03*
X97620972Y-179705000D03*
%TD*%
D16*
%TO.C,D215*%
X228045200Y-98218160D03*
X231345200Y-98218160D03*
X231345200Y-93318160D03*
X228045200Y-93318160D03*
%TD*%
%TO.C,D244*%
X197445200Y-109246840D03*
X200745200Y-109246840D03*
X200745200Y-104346840D03*
X197445200Y-104346840D03*
%TD*%
%TO.C,D411*%
X268845200Y-164390240D03*
X272145200Y-164390240D03*
X272145200Y-159490240D03*
X268845200Y-159490240D03*
%TD*%
D15*
%TO.C,C222*%
X167974123Y-157470057D03*
X168934123Y-157470057D03*
%TD*%
D16*
%TO.C,D469*%
X207645200Y-186447600D03*
X210945200Y-186447600D03*
X210945200Y-181547600D03*
X207645200Y-181547600D03*
%TD*%
D15*
%TO.C,C416*%
X290225239Y-179705000D03*
X291185239Y-179705000D03*
%TD*%
D16*
%TO.C,D253*%
X289245200Y-109246840D03*
X292545200Y-109246840D03*
X292545200Y-104346840D03*
X289245200Y-104346840D03*
%TD*%
D23*
%TO.C,R2*%
X158536100Y-223545400D03*
X157516100Y-223545400D03*
%TD*%
D15*
%TO.C,C267*%
X198536902Y-124464586D03*
X199496902Y-124464586D03*
%TD*%
D16*
%TO.C,D211*%
X187245200Y-98218160D03*
X190545200Y-98218160D03*
X190545200Y-93318160D03*
X187245200Y-93318160D03*
%TD*%
D15*
%TO.C,C367*%
X259662460Y-168783000D03*
X260622460Y-168783000D03*
%TD*%
D16*
%TO.C,D294*%
X54645200Y-131304200D03*
X57945200Y-131304200D03*
X57945200Y-126404200D03*
X54645200Y-126404200D03*
%TD*%
D15*
%TO.C,C274*%
X208792365Y-25007531D03*
X209752365Y-25007531D03*
%TD*%
D16*
%TO.C,D293*%
X370845200Y-120275520D03*
X374145200Y-120275520D03*
X374145200Y-115375520D03*
X370845200Y-115375520D03*
%TD*%
%TO.C,D55*%
X228045200Y-43074760D03*
X231345200Y-43074760D03*
X231345200Y-38174760D03*
X228045200Y-38174760D03*
%TD*%
%TO.C,D70*%
X54645200Y-54103440D03*
X57945200Y-54103440D03*
X57945200Y-49203440D03*
X54645200Y-49203440D03*
%TD*%
D15*
%TO.C,C223*%
X167974123Y-168783000D03*
X168934123Y-168783000D03*
%TD*%
%TO.C,C531*%
X371980000Y-35849793D03*
X372940000Y-35849793D03*
%TD*%
D16*
%TO.C,D321*%
X330045200Y-131304200D03*
X333345200Y-131304200D03*
X333345200Y-126404200D03*
X330045200Y-126404200D03*
%TD*%
D15*
%TO.C,C487*%
X341392636Y-80271646D03*
X342352636Y-80271646D03*
%TD*%
D16*
%TO.C,D471*%
X228045200Y-186447600D03*
X231345200Y-186447600D03*
X231345200Y-181547600D03*
X228045200Y-181547600D03*
%TD*%
%TO.C,D284*%
X279045200Y-120275520D03*
X282345200Y-120275520D03*
X282345200Y-115375520D03*
X279045200Y-115375520D03*
%TD*%
%TO.C,D285*%
X289245200Y-120275520D03*
X292545200Y-120275520D03*
X292545200Y-115375520D03*
X289245200Y-115375520D03*
%TD*%
D15*
%TO.C,C69*%
X76302174Y-58175176D03*
X77262174Y-58175176D03*
%TD*%
D16*
%TO.C,D115*%
X187245200Y-65132120D03*
X190545200Y-65132120D03*
X190545200Y-60232120D03*
X187245200Y-60232120D03*
%TD*%
%TO.C,D429*%
X126045200Y-175418920D03*
X129345200Y-175418920D03*
X129345200Y-170518920D03*
X126045200Y-170518920D03*
%TD*%
D15*
%TO.C,C238*%
X178161716Y-157470057D03*
X179121716Y-157470057D03*
%TD*%
%TO.C,C235*%
X178161716Y-124464586D03*
X179121716Y-124464586D03*
%TD*%
D16*
%TO.C,D21*%
X207666230Y-32046080D03*
X210966230Y-32046080D03*
X210966230Y-27146080D03*
X207666230Y-27146080D03*
%TD*%
%TO.C,D104*%
X75045200Y-65132120D03*
X78345200Y-65132120D03*
X78345200Y-60232120D03*
X75045200Y-60232120D03*
%TD*%
D15*
%TO.C,C107*%
X96660972Y-124464586D03*
X97620972Y-124464586D03*
%TD*%
D53*
%TO.C,R36*%
X217728800Y-238760000D03*
X217728800Y-239780000D03*
%TD*%
D15*
%TO.C,C321*%
X229015418Y-190881000D03*
X229975418Y-190881000D03*
%TD*%
D16*
%TO.C,D101*%
X370845200Y-54103440D03*
X374145200Y-54103440D03*
X374145200Y-49203440D03*
X370845200Y-49203440D03*
%TD*%
D15*
%TO.C,C269*%
X198536902Y-146558000D03*
X199496902Y-146558000D03*
%TD*%
%TO.C,C105*%
X96660972Y-102362000D03*
X97620972Y-102362000D03*
%TD*%
D16*
%TO.C,D44*%
X115845200Y-43074760D03*
X119145200Y-43074760D03*
X119145200Y-38174760D03*
X115845200Y-38174760D03*
%TD*%
%TO.C,D404*%
X197445200Y-164390240D03*
X200745200Y-164390240D03*
X200745200Y-159490240D03*
X197445200Y-159490240D03*
%TD*%
D15*
%TO.C,C204*%
X157786530Y-135365431D03*
X158746530Y-135365431D03*
%TD*%
%TO.C,C544*%
X371726000Y-179705000D03*
X372686000Y-179705000D03*
%TD*%
%TO.C,C448*%
X310600425Y-179705000D03*
X311560425Y-179705000D03*
%TD*%
D17*
%TO.C,R15*%
X79732500Y-238252000D03*
X81557500Y-238252000D03*
%TD*%
D15*
%TO.C,C477*%
X330975611Y-146558000D03*
X331935611Y-146558000D03*
%TD*%
D16*
%TO.C,D491*%
X105645200Y-192576280D03*
X108945200Y-192576280D03*
X108945200Y-197476280D03*
X105645200Y-197476280D03*
%TD*%
D15*
%TO.C,C406*%
X290413701Y-69215000D03*
X291373701Y-69215000D03*
%TD*%
%TO.C,C461*%
X320788018Y-146558000D03*
X321748018Y-146558000D03*
%TD*%
%TO.C,C361*%
X259662460Y-102362000D03*
X260622460Y-102362000D03*
%TD*%
%TO.C,C44*%
X55910600Y-135365431D03*
X56870600Y-135365431D03*
%TD*%
%TO.C,C414*%
X290225239Y-157470057D03*
X291185239Y-157470057D03*
%TD*%
%TO.C,C535*%
X371980000Y-80271646D03*
X372940000Y-80271646D03*
%TD*%
%TO.C,C513*%
X351316466Y-190881000D03*
X352276466Y-190881000D03*
%TD*%
%TO.C,C524*%
X361538390Y-135365431D03*
X362498390Y-135365431D03*
%TD*%
D16*
%TO.C,D514*%
X340245200Y-197476280D03*
X343545200Y-197476280D03*
X343545200Y-192576280D03*
X340245200Y-192576280D03*
%TD*%
D15*
%TO.C,C194*%
X157780000Y-24842301D03*
X158740000Y-24842301D03*
%TD*%
%TO.C,C46*%
X55910600Y-157470057D03*
X56870600Y-157470057D03*
%TD*%
D16*
%TO.C,D179*%
X187245200Y-87189480D03*
X190545200Y-87189480D03*
X190545200Y-82289480D03*
X187245200Y-82289480D03*
%TD*%
D15*
%TO.C,C298*%
X218912088Y-113411000D03*
X219872088Y-113411000D03*
%TD*%
D16*
%TO.C,D447*%
X309645200Y-175418920D03*
X312945200Y-175418920D03*
X312945200Y-170518920D03*
X309645200Y-170518920D03*
%TD*%
D15*
%TO.C,C425*%
X300412832Y-102362000D03*
X301372832Y-102362000D03*
%TD*%
%TO.C,C227*%
X178260044Y-35849793D03*
X179220044Y-35849793D03*
%TD*%
%TO.C,C492*%
X341163204Y-135365431D03*
X342123204Y-135365431D03*
%TD*%
%TO.C,C149*%
X127281109Y-58175176D03*
X128241109Y-58175176D03*
%TD*%
D16*
%TO.C,D216*%
X238245200Y-98218160D03*
X241545200Y-98218160D03*
X241545200Y-93318160D03*
X238245200Y-93318160D03*
%TD*%
D15*
%TO.C,C357*%
X259826340Y-58175176D03*
X260786340Y-58175176D03*
%TD*%
D16*
%TO.C,D39*%
X64845200Y-43074760D03*
X68145200Y-43074760D03*
X68145200Y-38174760D03*
X64845200Y-38174760D03*
%TD*%
%TO.C,D110*%
X136245200Y-65132120D03*
X139545200Y-65132120D03*
X139545200Y-60232120D03*
X136245200Y-60232120D03*
%TD*%
D15*
%TO.C,C215*%
X168064257Y-80271646D03*
X169024257Y-80271646D03*
%TD*%
D17*
%TO.C,R9*%
X92051500Y-242036600D03*
X93876500Y-242036600D03*
%TD*%
D16*
%TO.C,D191*%
X309645200Y-87189480D03*
X312945200Y-87189480D03*
X312945200Y-82289480D03*
X309645200Y-82289480D03*
%TD*%
%TO.C,D141*%
X126045200Y-76160800D03*
X129345200Y-76160800D03*
X129345200Y-71260800D03*
X126045200Y-71260800D03*
%TD*%
%TO.C,D135*%
X64845200Y-76160800D03*
X68145200Y-76160800D03*
X68145200Y-71260800D03*
X64845200Y-71260800D03*
%TD*%
D15*
%TO.C,C212*%
X168064257Y-47126941D03*
X169024257Y-47126941D03*
%TD*%
D16*
%TO.C,D349*%
X289245200Y-142332880D03*
X292545200Y-142332880D03*
X292545200Y-137432880D03*
X289245200Y-137432880D03*
%TD*%
%TO.C,D424*%
X75045200Y-175418920D03*
X78345200Y-175418920D03*
X78345200Y-170518920D03*
X75045200Y-170518920D03*
%TD*%
%TO.C,D248*%
X238245200Y-109246840D03*
X241545200Y-109246840D03*
X241545200Y-104346840D03*
X238245200Y-104346840D03*
%TD*%
D15*
%TO.C,C536*%
X371726000Y-91319881D03*
X372686000Y-91319881D03*
%TD*%
%TO.C,C52*%
X66106387Y-47126941D03*
X67066387Y-47126941D03*
%TD*%
%TO.C,C71*%
X76302174Y-80271646D03*
X77262174Y-80271646D03*
%TD*%
D16*
%TO.C,D158*%
X299445200Y-76160800D03*
X302745200Y-76160800D03*
X302745200Y-71260800D03*
X299445200Y-71260800D03*
%TD*%
D21*
%TO.C,D3*%
X132778500Y-225552000D03*
X132778500Y-223677000D03*
%TD*%
D16*
%TO.C,D314*%
X258645200Y-131304200D03*
X261945200Y-131304200D03*
X261945200Y-126404200D03*
X258645200Y-126404200D03*
%TD*%
D15*
%TO.C,C454*%
X321001062Y-69215000D03*
X321961062Y-69215000D03*
%TD*%
%TO.C,C155*%
X127223751Y-124464586D03*
X128183751Y-124464586D03*
%TD*%
%TO.C,C275*%
X208847405Y-35849793D03*
X209807405Y-35849793D03*
%TD*%
%TO.C,C424*%
X300412832Y-91319881D03*
X301372832Y-91319881D03*
%TD*%
D16*
%TO.C,D396*%
X115845200Y-164390240D03*
X119145200Y-164390240D03*
X119145200Y-159490240D03*
X115845200Y-159490240D03*
%TD*%
D15*
%TO.C,C344*%
X249474867Y-91319881D03*
X250434867Y-91319881D03*
%TD*%
D16*
%TO.C,D19*%
X187268862Y-32046080D03*
X190568862Y-32046080D03*
X190568862Y-27146080D03*
X187268862Y-27146080D03*
%TD*%
D15*
%TO.C,C181*%
X147672683Y-58175176D03*
X148632683Y-58175176D03*
%TD*%
D16*
%TO.C,D119*%
X228045200Y-65132120D03*
X231345200Y-65132120D03*
X231345200Y-60232120D03*
X228045200Y-60232120D03*
%TD*%
%TO.C,D283*%
X268845200Y-120275520D03*
X272145200Y-120275520D03*
X272145200Y-115375520D03*
X268845200Y-115375520D03*
%TD*%
D15*
%TO.C,C359*%
X259826340Y-80271646D03*
X260786340Y-80271646D03*
%TD*%
D16*
%TO.C,D364*%
X115845200Y-153361560D03*
X119145200Y-153361560D03*
X119145200Y-148461560D03*
X115845200Y-148461560D03*
%TD*%
D18*
%TO.C,C2*%
X158419800Y-230045200D03*
X158419800Y-229085200D03*
%TD*%
D16*
%TO.C,D190*%
X299445200Y-87189480D03*
X302745200Y-87189480D03*
X302745200Y-82289480D03*
X299445200Y-82289480D03*
%TD*%
%TO.C,D62*%
X299445200Y-43074760D03*
X302745200Y-43074760D03*
X302745200Y-38174760D03*
X299445200Y-38174760D03*
%TD*%
D15*
%TO.C,C272*%
X198536902Y-179705000D03*
X199496902Y-179705000D03*
%TD*%
%TO.C,C177*%
X137289632Y-190881000D03*
X138249632Y-190881000D03*
%TD*%
D16*
%TO.C,D352*%
X319845200Y-142332880D03*
X323145200Y-142332880D03*
X323145200Y-137432880D03*
X319845200Y-137432880D03*
%TD*%
%TO.C,D340*%
X197445200Y-142332880D03*
X200745200Y-142332880D03*
X200745200Y-137432880D03*
X197445200Y-137432880D03*
%TD*%
D15*
%TO.C,C273*%
X198440156Y-190881000D03*
X199400156Y-190881000D03*
%TD*%
%TO.C,C289*%
X208631910Y-190881000D03*
X209591910Y-190881000D03*
%TD*%
%TO.C,C150*%
X127281109Y-69215000D03*
X128241109Y-69215000D03*
%TD*%
D16*
%TO.C,D221*%
X289245200Y-98218160D03*
X292545200Y-98218160D03*
X292545200Y-93318160D03*
X289245200Y-93318160D03*
%TD*%
D15*
%TO.C,C426*%
X300412832Y-113411000D03*
X301372832Y-113411000D03*
%TD*%
%TO.C,C5*%
X149888000Y-238429800D03*
X150848000Y-238429800D03*
%TD*%
%TO.C,C236*%
X178161716Y-135365431D03*
X179121716Y-135365431D03*
%TD*%
%TO.C,C86*%
X86497961Y-69215000D03*
X87457961Y-69215000D03*
%TD*%
D16*
%TO.C,D205*%
X126045200Y-98218160D03*
X129345200Y-98218160D03*
X129345200Y-93318160D03*
X126045200Y-93318160D03*
%TD*%
D15*
%TO.C,C111*%
X96660972Y-168783000D03*
X97620972Y-168783000D03*
%TD*%
D16*
%TO.C,D445*%
X289245200Y-175418920D03*
X292545200Y-175418920D03*
X292545200Y-170518920D03*
X289245200Y-170518920D03*
%TD*%
D15*
%TO.C,C543*%
X371726000Y-168783000D03*
X372686000Y-168783000D03*
%TD*%
%TO.C,C364*%
X259662460Y-135365431D03*
X260622460Y-135365431D03*
%TD*%
D16*
%TO.C,D437*%
X207645200Y-175418920D03*
X210945200Y-175418920D03*
X210945200Y-170518920D03*
X207645200Y-170518920D03*
%TD*%
D15*
%TO.C,C297*%
X218912088Y-102362000D03*
X219872088Y-102362000D03*
%TD*%
%TO.C,C117*%
X106889535Y-58175176D03*
X107849535Y-58175176D03*
%TD*%
%TO.C,C390*%
X280217914Y-69215000D03*
X281177914Y-69215000D03*
%TD*%
D18*
%TO.C,C1*%
X159486600Y-230045200D03*
X159486600Y-229085200D03*
%TD*%
D16*
%TO.C,D392*%
X75045200Y-164390240D03*
X78345200Y-164390240D03*
X78345200Y-159490240D03*
X75045200Y-159490240D03*
%TD*%
%TO.C,D257*%
X330045200Y-109246840D03*
X333345200Y-109246840D03*
X333345200Y-104346840D03*
X330045200Y-104346840D03*
%TD*%
%TO.C,D41*%
X85245200Y-43074760D03*
X88545200Y-43074760D03*
X88545200Y-38174760D03*
X85245200Y-38174760D03*
%TD*%
D12*
%TO.C,TP6*%
X122301000Y-230632000D03*
%TD*%
D15*
%TO.C,C104*%
X96660972Y-91319881D03*
X97620972Y-91319881D03*
%TD*%
D19*
%TO.C,C548*%
X218541600Y-242674200D03*
X218541600Y-243634200D03*
%TD*%
D28*
%TO.C,C25*%
X94434600Y-239750600D03*
X93474600Y-239750600D03*
%TD*%
D15*
%TO.C,C317*%
X229099681Y-146558000D03*
X230059681Y-146558000D03*
%TD*%
D16*
%TO.C,D195*%
X350445200Y-87189480D03*
X353745200Y-87189480D03*
X353745200Y-82289480D03*
X350445200Y-82289480D03*
%TD*%
%TO.C,D472*%
X238245200Y-186447600D03*
X241545200Y-186447600D03*
X241545200Y-181547600D03*
X238245200Y-181547600D03*
%TD*%
%TO.C,D495*%
X146445200Y-197476280D03*
X149745200Y-197476280D03*
X149745200Y-192576280D03*
X146445200Y-192576280D03*
%TD*%
D15*
%TO.C,C400*%
X280037646Y-179705000D03*
X280997646Y-179705000D03*
%TD*%
%TO.C,C314*%
X229099681Y-113411000D03*
X230059681Y-113411000D03*
%TD*%
D16*
%TO.C,D351*%
X309645200Y-142332880D03*
X312945200Y-142332880D03*
X312945200Y-137432880D03*
X309645200Y-137432880D03*
%TD*%
D15*
%TO.C,C247*%
X188455831Y-80271646D03*
X189415831Y-80271646D03*
%TD*%
D54*
%TO.C,U9*%
X215869600Y-244210000D03*
X215869600Y-243410000D03*
X215869600Y-242610000D03*
X215869600Y-241810000D03*
X215869600Y-241010000D03*
X215869600Y-240210000D03*
X215869600Y-239410000D03*
X215869600Y-238610000D03*
X215869600Y-237810000D03*
X215869600Y-237010000D03*
X215869600Y-236210000D03*
D55*
X214769600Y-235310000D03*
X213969600Y-235310000D03*
X213169600Y-235310000D03*
X212369600Y-235310000D03*
X211569600Y-235310000D03*
X210769600Y-235310000D03*
X209969600Y-235310000D03*
X209169600Y-235310000D03*
X208369600Y-235310000D03*
X207569600Y-235310000D03*
X206769600Y-235310000D03*
X205969600Y-235310000D03*
X205169600Y-235310000D03*
D54*
X204069600Y-236210000D03*
X204069600Y-237010000D03*
X204069600Y-237810000D03*
X204069600Y-238610000D03*
X204069600Y-239410000D03*
X204069600Y-240210000D03*
X204069600Y-241010000D03*
X204069600Y-241810000D03*
X204069600Y-242610000D03*
X204069600Y-243410000D03*
X204069600Y-244210000D03*
D55*
X205169600Y-245110000D03*
X205969600Y-245110000D03*
X206769600Y-245110000D03*
X207569600Y-245110000D03*
X208369600Y-245110000D03*
X209169600Y-245110000D03*
X209969600Y-245110000D03*
X210769600Y-245110000D03*
X211569600Y-245110000D03*
X212369600Y-245110000D03*
X213169600Y-245110000D03*
X213969600Y-245110000D03*
X214769600Y-245110000D03*
D56*
X211944600Y-242185000D03*
D57*
X211944600Y-240210000D03*
X211944600Y-238235000D03*
X209969600Y-242185000D03*
X209969600Y-240210000D03*
X209969600Y-238235000D03*
X207994600Y-242185000D03*
X207994600Y-240210000D03*
X207994600Y-238235000D03*
D58*
X204019600Y-245160000D03*
X204019600Y-235260000D03*
X215919600Y-235260000D03*
X215919600Y-245160000D03*
%TD*%
D15*
%TO.C,C229*%
X178260044Y-58175176D03*
X179220044Y-58175176D03*
%TD*%
D16*
%TO.C,D162*%
X340245200Y-76160800D03*
X343545200Y-76160800D03*
X343545200Y-71260800D03*
X340245200Y-71260800D03*
%TD*%
D15*
%TO.C,C281*%
X208724495Y-102362000D03*
X209684495Y-102362000D03*
%TD*%
D16*
%TO.C,D462*%
X136245200Y-186447600D03*
X139545200Y-186447600D03*
X139545200Y-181547600D03*
X136245200Y-181547600D03*
%TD*%
D15*
%TO.C,C370*%
X269993134Y-24772646D03*
X270953134Y-24772646D03*
%TD*%
%TO.C,C254*%
X188349309Y-157470057D03*
X189309309Y-157470057D03*
%TD*%
%TO.C,C232*%
X178161716Y-91319881D03*
X179121716Y-91319881D03*
%TD*%
%TO.C,C208*%
X157786530Y-179705000D03*
X158746530Y-179705000D03*
%TD*%
%TO.C,C306*%
X229198398Y-25007533D03*
X230158398Y-25007533D03*
%TD*%
D16*
%TO.C,D88*%
X238245200Y-54103440D03*
X241545200Y-54103440D03*
X241545200Y-49203440D03*
X238245200Y-49203440D03*
%TD*%
%TO.C,D25*%
X248460966Y-32046080D03*
X251760966Y-32046080D03*
X251760966Y-27146080D03*
X248460966Y-27146080D03*
%TD*%
%TO.C,D192*%
X319845200Y-87189480D03*
X323145200Y-87189480D03*
X323145200Y-82289480D03*
X319845200Y-82289480D03*
%TD*%
D19*
%TO.C,C17*%
X78359000Y-220093600D03*
X78359000Y-221053600D03*
%TD*%
D15*
%TO.C,C527*%
X361538390Y-168783000D03*
X362498390Y-168783000D03*
%TD*%
D16*
%TO.C,D435*%
X187245200Y-175418920D03*
X190545200Y-175418920D03*
X190545200Y-170518920D03*
X187245200Y-170518920D03*
%TD*%
D15*
%TO.C,C466*%
X331185238Y-24784115D03*
X332145238Y-24784115D03*
%TD*%
D16*
%TO.C,D175*%
X146445200Y-87189480D03*
X149745200Y-87189480D03*
X149745200Y-82289480D03*
X146445200Y-82289480D03*
%TD*%
%TO.C,D200*%
X75045200Y-98218160D03*
X78345200Y-98218160D03*
X78345200Y-93318160D03*
X75045200Y-93318160D03*
%TD*%
D15*
%TO.C,C146*%
X127310000Y-25142177D03*
X128270000Y-25142177D03*
%TD*%
D16*
%TO.C,D292*%
X360645200Y-120275520D03*
X363945200Y-120275520D03*
X363945200Y-115375520D03*
X360645200Y-115375520D03*
%TD*%
D15*
%TO.C,C432*%
X300412832Y-179705000D03*
X301372832Y-179705000D03*
%TD*%
D16*
%TO.C,D131*%
X350445200Y-65132120D03*
X353745200Y-65132120D03*
X353745200Y-60232120D03*
X350445200Y-60232120D03*
%TD*%
%TO.C,D89*%
X248445200Y-54103440D03*
X251745200Y-54103440D03*
X251745200Y-49203440D03*
X248445200Y-49203440D03*
%TD*%
D12*
%TO.C,TP1*%
X69545200Y-244348000D03*
%TD*%
D16*
%TO.C,D86*%
X217845200Y-54103440D03*
X221145200Y-54103440D03*
X221145200Y-49203440D03*
X217845200Y-49203440D03*
%TD*%
D15*
%TO.C,C101*%
X96693748Y-58175176D03*
X97653748Y-58175176D03*
%TD*%
%TO.C,C199*%
X157868470Y-80271646D03*
X158828470Y-80271646D03*
%TD*%
D23*
%TO.C,R26*%
X59133200Y-228955600D03*
X58113200Y-228955600D03*
%TD*%
D15*
%TO.C,C113*%
X96522616Y-190881000D03*
X97482616Y-190881000D03*
%TD*%
%TO.C,C246*%
X188455831Y-69215000D03*
X189415831Y-69215000D03*
%TD*%
%TO.C,C264*%
X198536902Y-91319881D03*
X199496902Y-91319881D03*
%TD*%
D16*
%TO.C,D52*%
X197445200Y-43074760D03*
X200745200Y-43074760D03*
X200745200Y-38174760D03*
X197445200Y-38174760D03*
%TD*%
D15*
%TO.C,C167*%
X137476896Y-80271646D03*
X138436896Y-80271646D03*
%TD*%
D24*
%TO.C,R23*%
X121056400Y-237462700D03*
X121056400Y-235637700D03*
%TD*%
D15*
%TO.C,C209*%
X157673140Y-190881000D03*
X158633140Y-190881000D03*
%TD*%
%TO.C,C347*%
X249474867Y-124464586D03*
X250434867Y-124464586D03*
%TD*%
%TO.C,C139*%
X117036158Y-124464586D03*
X117996158Y-124464586D03*
%TD*%
%TO.C,C129*%
X106714370Y-190881000D03*
X107674370Y-190881000D03*
%TD*%
%TO.C,C118*%
X106889535Y-69215000D03*
X107849535Y-69215000D03*
%TD*%
D16*
%TO.C,D121*%
X248445200Y-65132120D03*
X251745200Y-65132120D03*
X251745200Y-60232120D03*
X248445200Y-60232120D03*
%TD*%
%TO.C,D420*%
X360645200Y-164390240D03*
X363945200Y-164390240D03*
X363945200Y-159490240D03*
X360645200Y-159490240D03*
%TD*%
D15*
%TO.C,C433*%
X300357696Y-190881000D03*
X301317696Y-190881000D03*
%TD*%
D16*
%TO.C,D316*%
X279045200Y-131304200D03*
X282345200Y-131304200D03*
X282345200Y-126404200D03*
X279045200Y-126404200D03*
%TD*%
D15*
%TO.C,C88*%
X86473379Y-91319881D03*
X87433379Y-91319881D03*
%TD*%
D42*
%TO.C,R33*%
X143256000Y-221743100D03*
X143256000Y-220723100D03*
%TD*%
D15*
%TO.C,C538*%
X371726000Y-113411000D03*
X372686000Y-113411000D03*
%TD*%
D16*
%TO.C,D338*%
X177045200Y-142332880D03*
X180345200Y-142332880D03*
X180345200Y-137432880D03*
X177045200Y-137432880D03*
%TD*%
D15*
%TO.C,C402*%
X290390502Y-24776469D03*
X291350502Y-24776469D03*
%TD*%
%TO.C,C241*%
X178056648Y-190881000D03*
X179016648Y-190881000D03*
%TD*%
%TO.C,C363*%
X259662460Y-124464586D03*
X260622460Y-124464586D03*
%TD*%
D16*
%TO.C,D129*%
X330045200Y-65132120D03*
X333345200Y-65132120D03*
X333345200Y-60232120D03*
X330045200Y-60232120D03*
%TD*%
%TO.C,D278*%
X217845200Y-120275520D03*
X221145200Y-120275520D03*
X221145200Y-115375520D03*
X217845200Y-115375520D03*
%TD*%
%TO.C,D442*%
X258645200Y-175418920D03*
X261945200Y-175418920D03*
X261945200Y-170518920D03*
X258645200Y-170518920D03*
%TD*%
%TO.C,D85*%
X207645200Y-54103440D03*
X210945200Y-54103440D03*
X210945200Y-49203440D03*
X207645200Y-49203440D03*
%TD*%
%TO.C,D483*%
X350445200Y-186447600D03*
X353745200Y-186447600D03*
X353745200Y-181547600D03*
X350445200Y-181547600D03*
%TD*%
%TO.C,D517*%
X370845200Y-197476280D03*
X374145200Y-197476280D03*
X374145200Y-192576280D03*
X370845200Y-192576280D03*
%TD*%
%TO.C,D494*%
X136245200Y-197476280D03*
X139545200Y-197476280D03*
X139545200Y-192576280D03*
X136245200Y-192576280D03*
%TD*%
D15*
%TO.C,C162*%
X137380000Y-24889968D03*
X138340000Y-24889968D03*
%TD*%
%TO.C,C529*%
X361508220Y-190881000D03*
X362468220Y-190881000D03*
%TD*%
D16*
%TO.C,D181*%
X207645200Y-87189480D03*
X210945200Y-87189480D03*
X210945200Y-82289480D03*
X207645200Y-82289480D03*
%TD*%
D15*
%TO.C,C3*%
X150446800Y-235534200D03*
X151406800Y-235534200D03*
%TD*%
D16*
%TO.C,D422*%
X54645200Y-175418920D03*
X57945200Y-175418920D03*
X57945200Y-170518920D03*
X54645200Y-170518920D03*
%TD*%
%TO.C,D361*%
X85245200Y-153361560D03*
X88545200Y-153361560D03*
X88545200Y-148461560D03*
X85245200Y-148461560D03*
%TD*%
%TO.C,D153*%
X248445200Y-76160800D03*
X251745200Y-76160800D03*
X251745200Y-71260800D03*
X248445200Y-71260800D03*
%TD*%
D15*
%TO.C,C335*%
X239287274Y-168783000D03*
X240247274Y-168783000D03*
%TD*%
D16*
%TO.C,D69*%
X370845200Y-43074760D03*
X374145200Y-43074760D03*
X374145200Y-38174760D03*
X370845200Y-38174760D03*
%TD*%
%TO.C,D267*%
X105645200Y-120275520D03*
X108945200Y-120275520D03*
X108945200Y-115375520D03*
X105645200Y-115375520D03*
%TD*%
%TO.C,D310*%
X217845200Y-131304200D03*
X221145200Y-131304200D03*
X221145200Y-126404200D03*
X217845200Y-126404200D03*
%TD*%
%TO.C,D465*%
X166845200Y-186447600D03*
X170145200Y-186447600D03*
X170145200Y-181547600D03*
X166845200Y-181547600D03*
%TD*%
%TO.C,D275*%
X187245200Y-120275520D03*
X190545200Y-120275520D03*
X190545200Y-115375520D03*
X187245200Y-115375520D03*
%TD*%
%TO.C,D403*%
X187245200Y-164390240D03*
X190545200Y-164390240D03*
X190545200Y-159490240D03*
X187245200Y-159490240D03*
%TD*%
D15*
%TO.C,C318*%
X229099681Y-157470057D03*
X230059681Y-157470057D03*
%TD*%
%TO.C,C45*%
X55910600Y-146558000D03*
X56870600Y-146558000D03*
%TD*%
D16*
%TO.C,D454*%
X54645200Y-186447600D03*
X57945200Y-186447600D03*
X57945200Y-181547600D03*
X54645200Y-181547600D03*
%TD*%
%TO.C,D139*%
X105645200Y-76160800D03*
X108945200Y-76160800D03*
X108945200Y-71260800D03*
X105645200Y-71260800D03*
%TD*%
D15*
%TO.C,C393*%
X280037646Y-102362000D03*
X280997646Y-102362000D03*
%TD*%
D16*
%TO.C,D11*%
X105679390Y-32046080D03*
X108979390Y-32046080D03*
X108979390Y-27146080D03*
X105679390Y-27146080D03*
%TD*%
D42*
%TO.C,R31*%
X132785812Y-221646100D03*
X132785812Y-220626100D03*
%TD*%
D15*
%TO.C,C152*%
X127223751Y-91319881D03*
X128183751Y-91319881D03*
%TD*%
D16*
%TO.C,D506*%
X258645200Y-197476280D03*
X261945200Y-197476280D03*
X261945200Y-192576280D03*
X258645200Y-192576280D03*
%TD*%
%TO.C,D334*%
X136245200Y-142332880D03*
X139545200Y-142332880D03*
X139545200Y-137432880D03*
X136245200Y-137432880D03*
%TD*%
D15*
%TO.C,C103*%
X96693748Y-80271646D03*
X97653748Y-80271646D03*
%TD*%
D16*
%TO.C,D286*%
X299445200Y-120275520D03*
X302745200Y-120275520D03*
X302745200Y-115375520D03*
X299445200Y-115375520D03*
%TD*%
%TO.C,D18*%
X177070178Y-32046080D03*
X180370178Y-32046080D03*
X180370178Y-27146080D03*
X177070178Y-27146080D03*
%TD*%
D15*
%TO.C,C183*%
X147672683Y-80271646D03*
X148632683Y-80271646D03*
%TD*%
D16*
%TO.C,D425*%
X85245200Y-175418920D03*
X88545200Y-175418920D03*
X88545200Y-170518920D03*
X85245200Y-170518920D03*
%TD*%
%TO.C,D297*%
X85245200Y-131304200D03*
X88545200Y-131304200D03*
X88545200Y-126404200D03*
X85245200Y-126404200D03*
%TD*%
%TO.C,D60*%
X279045200Y-43074760D03*
X282345200Y-43074760D03*
X282345200Y-38174760D03*
X279045200Y-38174760D03*
%TD*%
D42*
%TO.C,R29*%
X139765936Y-221743100D03*
X139765936Y-220723100D03*
%TD*%
D16*
%TO.C,D111*%
X146445200Y-65132120D03*
X149745200Y-65132120D03*
X149745200Y-60232120D03*
X146445200Y-60232120D03*
%TD*%
%TO.C,D510*%
X299445200Y-197476280D03*
X302745200Y-197476280D03*
X302745200Y-192576280D03*
X299445200Y-192576280D03*
%TD*%
%TO.C,D306*%
X177045200Y-131304200D03*
X180345200Y-131304200D03*
X180345200Y-126404200D03*
X177045200Y-126404200D03*
%TD*%
%TO.C,D476*%
X279045200Y-186447600D03*
X282345200Y-186447600D03*
X282345200Y-181547600D03*
X279045200Y-181547600D03*
%TD*%
D15*
%TO.C,C411*%
X290225239Y-124464586D03*
X291185239Y-124464586D03*
%TD*%
D16*
%TO.C,D252*%
X279045200Y-109246840D03*
X282345200Y-109246840D03*
X282345200Y-104346840D03*
X279045200Y-104346840D03*
%TD*%
%TO.C,D488*%
X75045200Y-197476280D03*
X78345200Y-197476280D03*
X78345200Y-192576280D03*
X75045200Y-192576280D03*
%TD*%
%TO.C,D458*%
X95445200Y-186447600D03*
X98745200Y-186447600D03*
X98745200Y-181547600D03*
X95445200Y-181547600D03*
%TD*%
D15*
%TO.C,C168*%
X137411344Y-91319881D03*
X138371344Y-91319881D03*
%TD*%
%TO.C,C460*%
X320788018Y-135365431D03*
X321748018Y-135365431D03*
%TD*%
%TO.C,C292*%
X219043192Y-47126941D03*
X220003192Y-47126941D03*
%TD*%
%TO.C,C151*%
X127281109Y-80271646D03*
X128241109Y-80271646D03*
%TD*%
D16*
%TO.C,D156*%
X279045200Y-76160800D03*
X282345200Y-76160800D03*
X282345200Y-71260800D03*
X279045200Y-71260800D03*
%TD*%
D15*
%TO.C,C438*%
X310805275Y-69215000D03*
X311765275Y-69215000D03*
%TD*%
%TO.C,C36*%
X55910600Y-47126941D03*
X56870600Y-47126941D03*
%TD*%
D16*
%TO.C,D229*%
X370845200Y-98218160D03*
X374145200Y-98218160D03*
X374145200Y-93318160D03*
X370845200Y-93318160D03*
%TD*%
%TO.C,D201*%
X85245200Y-98218160D03*
X88545200Y-98218160D03*
X88545200Y-93318160D03*
X85245200Y-93318160D03*
%TD*%
%TO.C,D496*%
X156645200Y-197476280D03*
X159945200Y-197476280D03*
X159945200Y-192576280D03*
X156645200Y-192576280D03*
%TD*%
D15*
%TO.C,C482*%
X341383922Y-24784115D03*
X342343922Y-24784115D03*
%TD*%
%TO.C,C520*%
X361538390Y-91319881D03*
X362498390Y-91319881D03*
%TD*%
D16*
%TO.C,D381*%
X289245200Y-153361560D03*
X292545200Y-153361560D03*
X292545200Y-148461560D03*
X289245200Y-148461560D03*
%TD*%
D15*
%TO.C,C280*%
X208724495Y-91319881D03*
X209684495Y-91319881D03*
%TD*%
D17*
%TO.C,R22*%
X116994300Y-237286800D03*
X118819300Y-237286800D03*
%TD*%
D16*
%TO.C,D313*%
X248445200Y-131304200D03*
X251745200Y-131304200D03*
X251745200Y-126404200D03*
X248445200Y-126404200D03*
%TD*%
D15*
%TO.C,C379*%
X269850053Y-124464586D03*
X270810053Y-124464586D03*
%TD*%
%TO.C,C436*%
X310805275Y-47126941D03*
X311765275Y-47126941D03*
%TD*%
D16*
%TO.C,D206*%
X136245200Y-98218160D03*
X139545200Y-98218160D03*
X139545200Y-93318160D03*
X136245200Y-93318160D03*
%TD*%
D15*
%TO.C,C540*%
X371726000Y-135365431D03*
X372686000Y-135365431D03*
%TD*%
D16*
%TO.C,D127*%
X309645200Y-65132120D03*
X312945200Y-65132120D03*
X312945200Y-60232120D03*
X309645200Y-60232120D03*
%TD*%
D15*
%TO.C,C234*%
X178161716Y-113411000D03*
X179121716Y-113411000D03*
%TD*%
%TO.C,C230*%
X178260044Y-69215000D03*
X179220044Y-69215000D03*
%TD*%
%TO.C,C243*%
X188455831Y-35849793D03*
X189415831Y-35849793D03*
%TD*%
%TO.C,C401*%
X279974188Y-190881000D03*
X280934188Y-190881000D03*
%TD*%
D19*
%TO.C,C546*%
X93980000Y-246740100D03*
X93980000Y-247700100D03*
%TD*%
D15*
%TO.C,C376*%
X269850053Y-91319881D03*
X270810053Y-91319881D03*
%TD*%
%TO.C,C220*%
X167974123Y-135365431D03*
X168934123Y-135365431D03*
%TD*%
D59*
%TO.C,J1*%
X54517600Y-224770200D03*
X54517600Y-230550200D03*
D60*
X55962600Y-224410200D03*
X55962600Y-225210200D03*
D61*
X55962600Y-226410200D03*
X55962600Y-227410200D03*
X55962600Y-227910200D03*
X55962600Y-228910200D03*
D60*
X55962600Y-230110200D03*
X55962600Y-230910200D03*
X55962600Y-230910200D03*
X55962600Y-230110200D03*
D61*
X55962600Y-229410200D03*
X55962600Y-228410200D03*
X55962600Y-226910200D03*
X55962600Y-225910200D03*
D60*
X55962600Y-225210200D03*
X55962600Y-224410200D03*
D62*
X55047600Y-223340200D03*
D63*
X50867600Y-223340200D03*
D62*
X55047600Y-231980200D03*
D63*
X50867600Y-231980200D03*
%TD*%
D16*
%TO.C,D288*%
X319845200Y-120275520D03*
X323145200Y-120275520D03*
X323145200Y-115375520D03*
X319845200Y-115375520D03*
%TD*%
%TO.C,D440*%
X238245200Y-175418920D03*
X241545200Y-175418920D03*
X241545200Y-170518920D03*
X238245200Y-170518920D03*
%TD*%
D15*
%TO.C,C119*%
X106889535Y-80271646D03*
X107849535Y-80271646D03*
%TD*%
%TO.C,C134*%
X117085322Y-69215000D03*
X118045322Y-69215000D03*
%TD*%
D16*
%TO.C,D363*%
X105645200Y-153361560D03*
X108945200Y-153361560D03*
X108945200Y-148461560D03*
X105645200Y-148461560D03*
%TD*%
D42*
%TO.C,R24*%
X94589600Y-231017000D03*
X94589600Y-229997000D03*
%TD*%
D16*
%TO.C,D336*%
X156645200Y-142332880D03*
X159945200Y-142332880D03*
X159945200Y-137432880D03*
X156645200Y-137432880D03*
%TD*%
%TO.C,D261*%
X370845200Y-109246840D03*
X374145200Y-109246840D03*
X374145200Y-104346840D03*
X370845200Y-104346840D03*
%TD*%
%TO.C,D67*%
X350445200Y-43074760D03*
X353745200Y-43074760D03*
X353745200Y-38174760D03*
X350445200Y-38174760D03*
%TD*%
D15*
%TO.C,C42*%
X55910600Y-113411000D03*
X56870600Y-113411000D03*
%TD*%
D16*
%TO.C,D173*%
X126045200Y-87189480D03*
X129345200Y-87189480D03*
X129345200Y-82289480D03*
X126045200Y-82289480D03*
%TD*%
D15*
%TO.C,C342*%
X249630553Y-69215000D03*
X250590553Y-69215000D03*
%TD*%
D16*
%TO.C,D490*%
X95445200Y-197476280D03*
X98745200Y-197476280D03*
X98745200Y-192576280D03*
X95445200Y-192576280D03*
%TD*%
D15*
%TO.C,C79*%
X76285786Y-168783000D03*
X77245786Y-168783000D03*
%TD*%
%TO.C,C132*%
X117085322Y-47126941D03*
X118045322Y-47126941D03*
%TD*%
D16*
%TO.C,D366*%
X136245200Y-153361560D03*
X139545200Y-153361560D03*
X139545200Y-148461560D03*
X136245200Y-148461560D03*
%TD*%
%TO.C,D182*%
X217845200Y-87189480D03*
X221145200Y-87189480D03*
X221145200Y-82289480D03*
X217845200Y-82289480D03*
%TD*%
D28*
%TO.C,C28*%
X86230400Y-239166400D03*
X85270400Y-239166400D03*
%TD*%
D15*
%TO.C,C374*%
X270022127Y-69215000D03*
X270982127Y-69215000D03*
%TD*%
D16*
%TO.C,D99*%
X350445200Y-54103440D03*
X353745200Y-54103440D03*
X353745200Y-49203440D03*
X350445200Y-49203440D03*
%TD*%
%TO.C,D77*%
X126045200Y-54103440D03*
X129345200Y-54103440D03*
X129345200Y-49203440D03*
X126045200Y-49203440D03*
%TD*%
D15*
%TO.C,C308*%
X229238979Y-47126941D03*
X230198979Y-47126941D03*
%TD*%
%TO.C,C207*%
X157786530Y-168783000D03*
X158746530Y-168783000D03*
%TD*%
%TO.C,C352*%
X249474867Y-179705000D03*
X250434867Y-179705000D03*
%TD*%
D16*
%TO.C,D457*%
X85245200Y-186447600D03*
X88545200Y-186447600D03*
X88545200Y-181547600D03*
X85245200Y-181547600D03*
%TD*%
%TO.C,D102*%
X54645200Y-65132120D03*
X57945200Y-65132120D03*
X57945200Y-60232120D03*
X54645200Y-60232120D03*
%TD*%
%TO.C,D79*%
X146445200Y-54103440D03*
X149745200Y-54103440D03*
X149745200Y-49203440D03*
X146445200Y-49203440D03*
%TD*%
%TO.C,D87*%
X228045200Y-54103440D03*
X231345200Y-54103440D03*
X231345200Y-49203440D03*
X228045200Y-49203440D03*
%TD*%
D15*
%TO.C,C122*%
X106848565Y-113411000D03*
X107808565Y-113411000D03*
%TD*%
%TO.C,C340*%
X249630553Y-47126941D03*
X250590553Y-47126941D03*
%TD*%
%TO.C,C404*%
X290413701Y-47126941D03*
X291373701Y-47126941D03*
%TD*%
%TO.C,C503*%
X351588423Y-80271646D03*
X352548423Y-80271646D03*
%TD*%
%TO.C,C396*%
X280037646Y-135365431D03*
X280997646Y-135365431D03*
%TD*%
D16*
%TO.C,D365*%
X126045200Y-153361560D03*
X129345200Y-153361560D03*
X129345200Y-148461560D03*
X126045200Y-148461560D03*
%TD*%
%TO.C,D421*%
X370845200Y-164390240D03*
X374145200Y-164390240D03*
X374145200Y-159490240D03*
X370845200Y-159490240D03*
%TD*%
%TO.C,D296*%
X75045200Y-131304200D03*
X78345200Y-131304200D03*
X78345200Y-126404200D03*
X75045200Y-126404200D03*
%TD*%
%TO.C,D34*%
X340249122Y-32046080D03*
X343549122Y-32046080D03*
X343549122Y-27146080D03*
X340249122Y-27146080D03*
%TD*%
%TO.C,D71*%
X64845200Y-54103440D03*
X68145200Y-54103440D03*
X68145200Y-49203440D03*
X64845200Y-49203440D03*
%TD*%
%TO.C,D347*%
X268845200Y-142332880D03*
X272145200Y-142332880D03*
X272145200Y-137432880D03*
X268845200Y-137432880D03*
%TD*%
D42*
%TO.C,R25*%
X93446600Y-231017000D03*
X93446600Y-229997000D03*
%TD*%
D15*
%TO.C,C467*%
X331196849Y-35849793D03*
X332156849Y-35849793D03*
%TD*%
%TO.C,C91*%
X86473379Y-124464586D03*
X87433379Y-124464586D03*
%TD*%
D53*
%TO.C,R39*%
X146989800Y-210464400D03*
X146989800Y-211484400D03*
%TD*%
D15*
%TO.C,C186*%
X147598937Y-113411000D03*
X148558937Y-113411000D03*
%TD*%
%TO.C,C519*%
X361784210Y-80271646D03*
X362744210Y-80271646D03*
%TD*%
D16*
%TO.C,D116*%
X197445200Y-65132120D03*
X200745200Y-65132120D03*
X200745200Y-60232120D03*
X197445200Y-60232120D03*
%TD*%
%TO.C,D460*%
X115845200Y-186447600D03*
X119145200Y-186447600D03*
X119145200Y-181547600D03*
X115845200Y-181547600D03*
%TD*%
%TO.C,D46*%
X136245200Y-43074760D03*
X139545200Y-43074760D03*
X139545200Y-38174760D03*
X136245200Y-38174760D03*
%TD*%
D15*
%TO.C,C80*%
X76285786Y-179705000D03*
X77245786Y-179705000D03*
%TD*%
%TO.C,C271*%
X198536902Y-168783000D03*
X199496902Y-168783000D03*
%TD*%
%TO.C,C114*%
X106955000Y-25030471D03*
X107915000Y-25030471D03*
%TD*%
%TO.C,C329*%
X239287274Y-102362000D03*
X240247274Y-102362000D03*
%TD*%
%TO.C,C472*%
X330975611Y-91319881D03*
X331935611Y-91319881D03*
%TD*%
D16*
%TO.C,D105*%
X85245200Y-65132120D03*
X88545200Y-65132120D03*
X88545200Y-60232120D03*
X85245200Y-60232120D03*
%TD*%
D15*
%TO.C,C388*%
X280217914Y-47126941D03*
X281177914Y-47126941D03*
%TD*%
D16*
%TO.C,D224*%
X319845200Y-98218160D03*
X323145200Y-98218160D03*
X323145200Y-93318160D03*
X319845200Y-93318160D03*
%TD*%
%TO.C,D377*%
X248445200Y-153361560D03*
X251745200Y-153361560D03*
X251745200Y-148461560D03*
X248445200Y-148461560D03*
%TD*%
%TO.C,D198*%
X54645200Y-98218160D03*
X57945200Y-98218160D03*
X57945200Y-93318160D03*
X54645200Y-93318160D03*
%TD*%
D15*
%TO.C,C325*%
X239434766Y-58175176D03*
X240394766Y-58175176D03*
%TD*%
D16*
%TO.C,D386*%
X340245200Y-153361560D03*
X343545200Y-153361560D03*
X343545200Y-148461560D03*
X340245200Y-148461560D03*
%TD*%
D17*
%TO.C,R18*%
X100357300Y-235788200D03*
X102182300Y-235788200D03*
%TD*%
D16*
%TO.C,D434*%
X177045200Y-175418920D03*
X180345200Y-175418920D03*
X180345200Y-170518920D03*
X177045200Y-170518920D03*
%TD*%
D15*
%TO.C,C403*%
X290413701Y-35849793D03*
X291373701Y-35849793D03*
%TD*%
D16*
%TO.C,D246*%
X217845200Y-109246840D03*
X221145200Y-109246840D03*
X221145200Y-104346840D03*
X217845200Y-104346840D03*
%TD*%
D15*
%TO.C,C131*%
X117085322Y-35849793D03*
X118045322Y-35849793D03*
%TD*%
D16*
%TO.C,D489*%
X85245200Y-197476280D03*
X88545200Y-197476280D03*
X88545200Y-192576280D03*
X85245200Y-192576280D03*
%TD*%
%TO.C,D103*%
X64845200Y-65132120D03*
X68145200Y-65132120D03*
X68145200Y-60232120D03*
X64845200Y-60232120D03*
%TD*%
D15*
%TO.C,C495*%
X341163204Y-168783000D03*
X342123204Y-168783000D03*
%TD*%
%TO.C,C422*%
X300609488Y-69215000D03*
X301569488Y-69215000D03*
%TD*%
D16*
%TO.C,D426*%
X95445200Y-175418920D03*
X98745200Y-175418920D03*
X98745200Y-170518920D03*
X95445200Y-170518920D03*
%TD*%
%TO.C,D125*%
X289245200Y-65132120D03*
X292545200Y-65132120D03*
X292545200Y-60232120D03*
X289245200Y-60232120D03*
%TD*%
D15*
%TO.C,C142*%
X117036158Y-157470057D03*
X117996158Y-157470057D03*
%TD*%
%TO.C,C453*%
X321001062Y-58175176D03*
X321961062Y-58175176D03*
%TD*%
D18*
%TO.C,C8*%
X147853400Y-231518400D03*
X147853400Y-230558400D03*
%TD*%
D25*
%TO.C,JP3*%
X216433400Y-224144600D03*
X216433400Y-222844600D03*
%TD*%
D15*
%TO.C,C372*%
X270022127Y-47126941D03*
X270982127Y-47126941D03*
%TD*%
D16*
%TO.C,D397*%
X126045200Y-164390240D03*
X129345200Y-164390240D03*
X129345200Y-159490240D03*
X126045200Y-159490240D03*
%TD*%
%TO.C,D183*%
X228045200Y-87189480D03*
X231345200Y-87189480D03*
X231345200Y-82289480D03*
X228045200Y-82289480D03*
%TD*%
D15*
%TO.C,C382*%
X269850053Y-157470057D03*
X270810053Y-157470057D03*
%TD*%
%TO.C,C173*%
X137411344Y-146558000D03*
X138371344Y-146558000D03*
%TD*%
D16*
%TO.C,D268*%
X115845200Y-120275520D03*
X119145200Y-120275520D03*
X119145200Y-115375520D03*
X115845200Y-115375520D03*
%TD*%
D64*
%TO.C,U8*%
X84876600Y-240472200D03*
X84876600Y-241122200D03*
X84876600Y-241772200D03*
X86776600Y-241772200D03*
X86776600Y-241122200D03*
X86776600Y-240472200D03*
%TD*%
D15*
%TO.C,C125*%
X106848565Y-146558000D03*
X107808565Y-146558000D03*
%TD*%
D16*
%TO.C,D117*%
X207645200Y-65132120D03*
X210945200Y-65132120D03*
X210945200Y-60232120D03*
X207645200Y-60232120D03*
%TD*%
%TO.C,D150*%
X217845200Y-76160800D03*
X221145200Y-76160800D03*
X221145200Y-71260800D03*
X217845200Y-71260800D03*
%TD*%
D15*
%TO.C,C255*%
X188349309Y-168783000D03*
X189309309Y-168783000D03*
%TD*%
%TO.C,C541*%
X371726000Y-146558000D03*
X372686000Y-146558000D03*
%TD*%
%TO.C,C217*%
X167974123Y-102362000D03*
X168934123Y-102362000D03*
%TD*%
%TO.C,C408*%
X290225239Y-91319881D03*
X291185239Y-91319881D03*
%TD*%
%TO.C,C339*%
X249630553Y-35849793D03*
X250590553Y-35849793D03*
%TD*%
D16*
%TO.C,D148*%
X197445200Y-76160800D03*
X200745200Y-76160800D03*
X200745200Y-71260800D03*
X197445200Y-71260800D03*
%TD*%
D15*
%TO.C,C469*%
X331196849Y-58175176D03*
X332156849Y-58175176D03*
%TD*%
%TO.C,C496*%
X341163204Y-179705000D03*
X342123204Y-179705000D03*
%TD*%
D16*
%TO.C,D387*%
X350445200Y-153361560D03*
X353745200Y-153361560D03*
X353745200Y-148461560D03*
X350445200Y-148461560D03*
%TD*%
%TO.C,D189*%
X289245200Y-87189480D03*
X292545200Y-87189480D03*
X292545200Y-82289480D03*
X289245200Y-82289480D03*
%TD*%
%TO.C,D204*%
X115845200Y-98218160D03*
X119145200Y-98218160D03*
X119145200Y-93318160D03*
X115845200Y-93318160D03*
%TD*%
D15*
%TO.C,C202*%
X157786530Y-113411000D03*
X158746530Y-113411000D03*
%TD*%
%TO.C,C501*%
X351588423Y-58175176D03*
X352548423Y-58175176D03*
%TD*%
D16*
%TO.C,D308*%
X197445200Y-131304200D03*
X200745200Y-131304200D03*
X200745200Y-126404200D03*
X197445200Y-126404200D03*
%TD*%
D19*
%TO.C,C31*%
X124129800Y-235689200D03*
X124129800Y-236649200D03*
%TD*%
D15*
%TO.C,C428*%
X300412832Y-135365431D03*
X301372832Y-135365431D03*
%TD*%
%TO.C,C48*%
X55910600Y-179705000D03*
X56870600Y-179705000D03*
%TD*%
D16*
%TO.C,D96*%
X319845200Y-54103440D03*
X323145200Y-54103440D03*
X323145200Y-49203440D03*
X319845200Y-49203440D03*
%TD*%
D15*
%TO.C,C398*%
X280037646Y-157470057D03*
X280997646Y-157470057D03*
%TD*%
%TO.C,C169*%
X137411344Y-102362000D03*
X138371344Y-102362000D03*
%TD*%
%TO.C,C473*%
X330975611Y-102362000D03*
X331935611Y-102362000D03*
%TD*%
%TO.C,C470*%
X331196849Y-69215000D03*
X332156849Y-69215000D03*
%TD*%
%TO.C,C410*%
X290225239Y-113411000D03*
X291185239Y-113411000D03*
%TD*%
%TO.C,C189*%
X147598937Y-146558000D03*
X148558937Y-146558000D03*
%TD*%
D16*
%TO.C,D453*%
X370845200Y-175418920D03*
X374145200Y-175418920D03*
X374145200Y-170518920D03*
X370845200Y-170518920D03*
%TD*%
D15*
%TO.C,C504*%
X351350797Y-91319881D03*
X352310797Y-91319881D03*
%TD*%
%TO.C,C258*%
X198602346Y-25007531D03*
X199562346Y-25007531D03*
%TD*%
%TO.C,C383*%
X269850053Y-168783000D03*
X270810053Y-168783000D03*
%TD*%
D16*
%TO.C,D492*%
X115845200Y-197476280D03*
X119145200Y-197476280D03*
X119145200Y-192576280D03*
X115845200Y-192576280D03*
%TD*%
D15*
%TO.C,C521*%
X361538390Y-102362000D03*
X362498390Y-102362000D03*
%TD*%
%TO.C,C304*%
X218912088Y-179705000D03*
X219872088Y-179705000D03*
%TD*%
%TO.C,C284*%
X208724495Y-135365431D03*
X209684495Y-135365431D03*
%TD*%
%TO.C,C260*%
X198651618Y-47126941D03*
X199611618Y-47126941D03*
%TD*%
D16*
%TO.C,D503*%
X228045200Y-197476280D03*
X231345200Y-197476280D03*
X231345200Y-192576280D03*
X228045200Y-192576280D03*
%TD*%
%TO.C,D106*%
X95445200Y-65132120D03*
X98745200Y-65132120D03*
X98745200Y-60232120D03*
X95445200Y-60232120D03*
%TD*%
D15*
%TO.C,C166*%
X137476896Y-69215000D03*
X138436896Y-69215000D03*
%TD*%
D16*
%TO.C,D374*%
X217845200Y-153361560D03*
X221145200Y-153361560D03*
X221145200Y-148461560D03*
X217845200Y-148461560D03*
%TD*%
%TO.C,D185*%
X248445200Y-87189480D03*
X251745200Y-87189480D03*
X251745200Y-82289480D03*
X248445200Y-82289480D03*
%TD*%
D15*
%TO.C,C507*%
X351350797Y-124464586D03*
X352310797Y-124464586D03*
%TD*%
D16*
%TO.C,D166*%
X54645200Y-87189480D03*
X57945200Y-87189480D03*
X57945200Y-82289480D03*
X54645200Y-82289480D03*
%TD*%
D15*
%TO.C,C219*%
X167974123Y-124464586D03*
X168934123Y-124464586D03*
%TD*%
%TO.C,C47*%
X55910600Y-168783000D03*
X56870600Y-168783000D03*
%TD*%
D16*
%TO.C,D339*%
X187245200Y-142332880D03*
X190545200Y-142332880D03*
X190545200Y-137432880D03*
X187245200Y-137432880D03*
%TD*%
D15*
%TO.C,C312*%
X229099681Y-91319881D03*
X230059681Y-91319881D03*
%TD*%
D16*
%TO.C,D174*%
X136245200Y-87189480D03*
X139545200Y-87189480D03*
X139545200Y-82289480D03*
X136245200Y-82289480D03*
%TD*%
D15*
%TO.C,C62*%
X66098193Y-157470057D03*
X67058193Y-157470057D03*
%TD*%
D65*
%TO.C,U3*%
X82290500Y-220787000D03*
X82290500Y-218887000D03*
X80015500Y-219837000D03*
%TD*%
D15*
%TO.C,C394*%
X280037646Y-113411000D03*
X280997646Y-113411000D03*
%TD*%
G36*
X216859039Y-245891685D02*
G01*
X216904794Y-245944489D01*
X216916000Y-245996000D01*
X216916000Y-251336000D01*
X216896315Y-251403039D01*
X216843511Y-251448794D01*
X216792000Y-251460000D01*
X203070000Y-251460000D01*
X203002961Y-251440315D01*
X202957206Y-251387511D01*
X202946000Y-251336000D01*
X202946000Y-245996000D01*
X202965685Y-245928961D01*
X203018489Y-245883206D01*
X203070000Y-245872000D01*
X216792000Y-245872000D01*
X216859039Y-245891685D01*
G37*
M02*
