M48
; DRILL file {KiCad 7.0.7} date Sun Mar  3 19:12:33 2024
; FORMAT={-:-/ absolute / inch / decimal}
; #@! TF.CreationDate,2024-03-03T19:12:33-08:00
; #@! TF.GenerationSoftware,Kicad,Pcbnew,7.0.7
; #@! TF.FileFunction,Plated,1,4,PTH
FMAT,2
INCH
; #@! TA.AperFunction,Plated,PTH,ViaDrill
T1C0.0118
; #@! TA.AperFunction,Plated,PTH,ComponentDrill
T2C0.0236
; #@! TA.AperFunction,Plated,PTH,ComponentDrill
T3C0.0335
; #@! TA.AperFunction,Plated,PTH,ComponentDrill
T4C0.0394
%
G90
G05
T1
X2.097Y-9.398
X2.15Y-1.212
X2.15Y-2.514
X2.15Y-2.95
X2.152Y-0.974
X2.152Y-1.648
X2.152Y-2.082
X2.152Y-3.384
X2.152Y-3.818
X2.152Y-4.252
X2.152Y-4.6862
X2.152Y-5.1204
X2.152Y-5.5546
X2.152Y-5.9889
X2.152Y-6.4231
X2.152Y-6.8573
X2.152Y-7.2915
X2.152Y-7.7257
X2.155Y-8.954
X2.155Y-9.0
X2.198Y-7.546
X2.2Y-3.626
X2.202Y-1.444
X2.202Y-1.888
X2.202Y-2.322
X2.202Y-2.756
X2.202Y-4.062
X2.202Y-4.498
X2.202Y-4.932
X2.204Y-3.192
X2.204Y-6.676
X2.204Y-7.106
X2.206Y-6.232
X2.208Y-5.362
X2.208Y-5.802
X2.2085Y-1.017
X2.23Y-7.546
X2.23Y-8.803
X2.2315Y-3.626
X2.2333Y-1.4405
X2.2333Y-1.8845
X2.2334Y-4.4958
X2.2335Y-2.322
X2.2335Y-2.756
X2.2335Y-4.062
X2.2355Y-3.192
X2.2355Y-6.676
X2.2355Y-7.106
X2.236Y-4.932
X2.2366Y-9.124
X2.2373Y-6.2285
X2.2393Y-5.3589
X2.2393Y-5.7989
X2.24Y-1.018
X2.243Y-1.067
X2.252Y-8.867
X2.252Y-9.059
X2.252Y-9.092
X2.259Y-8.835
X2.267Y-8.803
X2.276Y-9.124
X2.28Y-1.454
X2.28Y-1.888
X2.28Y-2.322
X2.28Y-2.756
X2.28Y-3.19
X2.28Y-3.624
X2.28Y-4.058
X2.28Y-4.4922
X2.28Y-4.9264
X2.28Y-5.3606
X2.28Y-5.7949
X2.28Y-6.2291
X2.28Y-6.6633
X2.28Y-7.0975
X2.28Y-7.5317
X2.2914Y-9.092
X2.292Y-8.873
X2.292Y-9.059
X2.295Y-8.835
X2.332Y-8.873
X2.332Y-9.059
X2.359Y-8.914
X2.36Y-9.015
X2.416Y-9.653
X2.5516Y-2.514
X2.5516Y-2.95
X2.5536Y-1.648
X2.5536Y-2.082
X2.5536Y-3.384
X2.5536Y-3.818
X2.5536Y-4.252
X2.5536Y-4.6862
X2.5536Y-5.1204
X2.5536Y-5.5546
X2.5536Y-5.9889
X2.5536Y-6.4231
X2.5536Y-6.8573
X2.5536Y-7.2915
X2.5536Y-7.7257
X2.554Y-1.213
X2.5993Y-7.546
X2.601Y-1.017
X2.6011Y-3.626
X2.6031Y-4.062
X2.6031Y-4.498
X2.6031Y-4.932
X2.6034Y-1.888
X2.6034Y-2.322
X2.6034Y-2.756
X2.6036Y-1.444
X2.6051Y-6.676
X2.6051Y-7.106
X2.6054Y-3.192
X2.6071Y-6.232
X2.6091Y-5.362
X2.6091Y-5.802
X2.6313Y-7.546
X2.6325Y-1.018
X2.6326Y-3.626
X2.6345Y-4.4958
X2.6346Y-4.062
X2.6347Y-1.8845
X2.6349Y-1.4405
X2.6349Y-2.322
X2.6349Y-2.756
X2.6366Y-6.676
X2.6366Y-7.106
X2.6369Y-3.192
X2.6371Y-4.932
X2.6384Y-6.2285
X2.6404Y-5.3589
X2.6404Y-5.7989
X2.646Y-1.063
X2.6816Y-1.454
X2.6816Y-1.888
X2.6816Y-2.322
X2.6816Y-2.756
X2.6816Y-3.19
X2.6816Y-3.624
X2.6816Y-4.058
X2.6816Y-4.4922
X2.6816Y-4.9264
X2.6816Y-5.3606
X2.6816Y-5.7949
X2.6816Y-6.2291
X2.6816Y-6.6633
X2.6816Y-7.0975
X2.6816Y-7.5317
X2.885Y-9.658
X2.9531Y-2.514
X2.9531Y-2.95
X2.9551Y-1.648
X2.9551Y-2.082
X2.9551Y-3.384
X2.9551Y-3.818
X2.9551Y-4.252
X2.9551Y-4.6862
X2.9551Y-5.1204
X2.9551Y-5.5546
X2.9551Y-5.9889
X2.9551Y-6.4231
X2.9551Y-6.8573
X2.9551Y-7.2915
X2.9551Y-7.7257
X2.957Y-1.211
X2.996Y-1.017
X3.0005Y-7.546
X3.0022Y-3.626
X3.0042Y-4.062
X3.0042Y-4.498
X3.0042Y-4.932
X3.0048Y-1.888
X3.0048Y-2.322
X3.0048Y-2.756
X3.0051Y-1.444
X3.0062Y-6.676
X3.0062Y-7.106
X3.0068Y-3.192
X3.0082Y-6.232
X3.0102Y-5.362
X3.0102Y-5.802
X3.0275Y-1.017
X3.0325Y-7.546
X3.0337Y-3.626
X3.0356Y-4.4958
X3.0357Y-4.062
X3.0361Y-1.8845
X3.0363Y-2.322
X3.0363Y-2.756
X3.0364Y-1.4405
X3.0377Y-6.676
X3.0377Y-7.106
X3.0382Y-4.932
X3.0383Y-3.192
X3.0395Y-6.2285
X3.0415Y-5.3589
X3.0415Y-5.7989
X3.052Y-8.666
X3.0531Y-8.6975
X3.062Y-9.608
X3.0831Y-1.454
X3.0831Y-1.888
X3.0831Y-2.322
X3.0831Y-2.756
X3.0831Y-3.19
X3.0831Y-3.624
X3.0831Y-4.058
X3.0831Y-4.4922
X3.0831Y-4.9264
X3.0831Y-5.3606
X3.0831Y-5.7949
X3.0831Y-6.2291
X3.0831Y-6.6633
X3.0831Y-7.0975
X3.0831Y-7.5317
X3.085Y-1.02
X3.15Y-8.623
X3.175Y-9.659
X3.223Y-9.748
X3.24Y-8.585
X3.24Y-8.724
X3.309Y-9.493
X3.331Y-9.296
X3.34Y-8.672
X3.34Y-9.5694
X3.3414Y-8.6406
X3.3547Y-2.514
X3.3547Y-2.95
X3.3567Y-1.648
X3.3567Y-2.082
X3.3567Y-3.384
X3.3567Y-3.818
X3.3567Y-4.252
X3.3567Y-4.6862
X3.3567Y-5.1204
X3.3567Y-5.5546
X3.3567Y-5.9889
X3.3567Y-6.4231
X3.3567Y-6.8573
X3.3567Y-7.2915
X3.3567Y-7.7257
X3.357Y-1.213
X3.359Y-9.384
X3.389Y-1.018
X3.393Y-9.383
X3.4018Y-7.546
X3.4033Y-3.626
X3.4053Y-4.062
X3.4053Y-4.498
X3.4053Y-4.932
X3.4063Y-1.888
X3.4063Y-2.322
X3.4063Y-2.756
X3.4067Y-1.444
X3.4073Y-6.676
X3.4073Y-7.106
X3.4083Y-3.192
X3.4093Y-6.232
X3.4113Y-5.362
X3.4113Y-5.802
X3.4205Y-1.0167
X3.4338Y-7.546
X3.4348Y-3.626
X3.4367Y-4.4958
X3.4368Y-4.062
X3.437Y-9.419
X3.4375Y-1.8845
X3.4377Y-2.322
X3.4377Y-2.756
X3.438Y-1.4405
X3.4388Y-6.676
X3.4388Y-7.106
X3.4393Y-4.932
X3.4397Y-3.192
X3.4406Y-6.2285
X3.4426Y-5.3589
X3.4426Y-5.7989
X3.45Y-1.066
X3.45Y-9.493
X3.4847Y-1.454
X3.4847Y-1.888
X3.4847Y-2.322
X3.4847Y-2.756
X3.4847Y-3.19
X3.4847Y-3.624
X3.4847Y-4.058
X3.4847Y-4.4922
X3.4847Y-4.9264
X3.4847Y-5.3606
X3.4847Y-5.7949
X3.4847Y-6.2291
X3.4847Y-6.6633
X3.4847Y-7.0975
X3.4847Y-7.5317
X3.49Y-9.467
X3.61Y-8.892
X3.61Y-8.8568
X3.611Y-9.8021
X3.635Y-8.839
X3.6406Y-9.383
X3.652Y-9.7261
X3.652Y-9.8021
X3.6877Y-9.4063
X3.7Y-9.6831
X3.7Y-9.7831
X3.7186Y-9.233
X3.7192Y-9.4072
X3.7563Y-2.514
X3.7563Y-2.95
X3.7583Y-1.648
X3.7583Y-2.082
X3.7583Y-3.384
X3.7583Y-3.818
X3.7583Y-4.252
X3.7583Y-4.6862
X3.7583Y-5.1204
X3.7583Y-5.5546
X3.7583Y-5.9889
X3.7583Y-6.4231
X3.7583Y-6.8573
X3.7583Y-7.2915
X3.7583Y-7.7257
X3.759Y-1.213
X3.784Y-8.8384
X3.785Y-8.917
X3.803Y-1.018
X3.803Y-7.546
X3.8044Y-3.626
X3.8064Y-4.062
X3.8064Y-4.498
X3.8064Y-4.932
X3.8077Y-1.888
X3.8077Y-2.322
X3.8077Y-2.756
X3.8083Y-1.444
X3.8084Y-6.676
X3.8084Y-7.106
X3.8097Y-3.192
X3.8104Y-6.232
X3.8124Y-5.362
X3.8124Y-5.802
X3.835Y-7.546
X3.8359Y-3.626
X3.8378Y-4.4958
X3.8379Y-4.062
X3.839Y-1.8845
X3.8391Y-2.322
X3.8391Y-2.756
X3.8396Y-1.4405
X3.8399Y-6.676
X3.8399Y-7.106
X3.84Y-1.018
X3.8404Y-4.932
X3.8411Y-3.192
X3.8417Y-6.2285
X3.8437Y-5.3589
X3.8437Y-5.7989
X3.873Y-8.894
X3.8863Y-1.454
X3.8863Y-1.888
X3.8863Y-2.322
X3.8863Y-2.756
X3.8863Y-3.19
X3.8863Y-3.624
X3.8863Y-4.058
X3.8863Y-4.4922
X3.8863Y-4.9264
X3.8863Y-5.3606
X3.8863Y-5.7949
X3.8863Y-6.2291
X3.8863Y-6.6633
X3.8863Y-7.0975
X3.8863Y-7.5317
X3.889Y-1.019
X3.972Y-9.445
X4.056Y-9.185
X4.1579Y-2.514
X4.1579Y-2.95
X4.1599Y-1.648
X4.1599Y-2.082
X4.1599Y-3.384
X4.1599Y-3.818
X4.1599Y-4.252
X4.1599Y-4.6862
X4.1599Y-5.1204
X4.1599Y-5.5546
X4.1599Y-5.9889
X4.1599Y-6.4231
X4.1599Y-6.8573
X4.1599Y-7.2915
X4.1599Y-7.7257
X4.16Y-1.21
X4.179Y-9.475
X4.2043Y-7.546
X4.2055Y-3.626
X4.2075Y-4.062
X4.2075Y-4.498
X4.2075Y-4.932
X4.2091Y-1.888
X4.2091Y-2.322
X4.2091Y-2.756
X4.2095Y-6.676
X4.2095Y-7.106
X4.2099Y-1.444
X4.2111Y-3.192
X4.2115Y-6.232
X4.2135Y-5.362
X4.2135Y-5.802
X4.2165Y-1.0181
X4.2363Y-7.546
X4.237Y-3.626
X4.2389Y-4.4958
X4.239Y-4.062
X4.2404Y-1.8845
X4.2406Y-2.322
X4.2406Y-2.756
X4.241Y-6.676
X4.241Y-7.106
X4.2412Y-1.4405
X4.2415Y-4.932
X4.2426Y-3.192
X4.2428Y-6.2285
X4.2448Y-5.3589
X4.2448Y-5.7989
X4.248Y-1.018
X4.2879Y-1.454
X4.2879Y-1.888
X4.2879Y-2.322
X4.2879Y-2.756
X4.2879Y-3.19
X4.2879Y-3.624
X4.2879Y-4.058
X4.2879Y-4.4922
X4.2879Y-4.9264
X4.2879Y-5.3606
X4.2879Y-5.7949
X4.2879Y-6.2291
X4.2879Y-6.6633
X4.2879Y-7.0975
X4.2879Y-7.5317
X4.29Y-1.02
X4.393Y-9.266
X4.532Y-9.248
X4.5475Y-9.077
X4.5594Y-2.514
X4.5594Y-2.95
X4.5614Y-1.648
X4.5614Y-2.082
X4.5614Y-3.384
X4.5614Y-3.818
X4.5614Y-4.252
X4.5614Y-4.6862
X4.5614Y-5.1204
X4.5614Y-5.5546
X4.5614Y-5.9889
X4.5614Y-6.4231
X4.5614Y-6.8573
X4.5614Y-7.2915
X4.5614Y-7.7257
X4.562Y-1.212
X4.579Y-9.077
X4.6056Y-7.546
X4.606Y-1.022
X4.6066Y-3.626
X4.6086Y-4.062
X4.6086Y-4.498
X4.6086Y-4.932
X4.609Y-9.097
X4.6105Y-1.888
X4.6105Y-2.322
X4.6105Y-2.756
X4.6106Y-6.676
X4.6106Y-7.106
X4.6114Y-1.444
X4.6125Y-3.192
X4.6126Y-6.232
X4.6146Y-5.362
X4.6146Y-5.802
X4.6375Y-1.022
X4.6376Y-7.546
X4.6381Y-3.626
X4.64Y-4.4958
X4.6401Y-4.062
X4.6418Y-1.8845
X4.642Y-2.322
X4.642Y-2.756
X4.6421Y-6.676
X4.6421Y-7.106
X4.6426Y-4.932
X4.6427Y-1.4405
X4.6439Y-6.2285
X4.644Y-3.192
X4.6459Y-5.3589
X4.6459Y-5.7989
X4.6894Y-1.454
X4.6894Y-1.888
X4.6894Y-2.322
X4.6894Y-2.756
X4.6894Y-3.19
X4.6894Y-3.624
X4.6894Y-4.058
X4.6894Y-4.4922
X4.6894Y-4.9264
X4.6894Y-5.3606
X4.6894Y-5.7949
X4.6894Y-6.2291
X4.6894Y-6.6633
X4.6894Y-7.0975
X4.6894Y-7.5317
X4.692Y-1.02
X4.838Y-9.348
X4.961Y-2.514
X4.961Y-2.95
X4.963Y-1.648
X4.963Y-2.082
X4.963Y-3.384
X4.963Y-3.818
X4.963Y-4.252
X4.963Y-4.6862
X4.963Y-5.1204
X4.963Y-5.5546
X4.963Y-5.9889
X4.963Y-6.4231
X4.963Y-6.8573
X4.963Y-7.2915
X4.963Y-7.7257
X4.964Y-1.212
X5.0068Y-7.546
X5.0077Y-3.626
X5.0097Y-4.062
X5.0097Y-4.498
X5.0097Y-4.932
X5.0117Y-6.676
X5.0117Y-7.106
X5.0119Y-1.888
X5.0119Y-2.322
X5.0119Y-2.756
X5.013Y-1.444
X5.0137Y-6.232
X5.0139Y-3.192
X5.014Y-1.022
X5.0157Y-5.362
X5.0157Y-5.802
X5.0388Y-7.546
X5.0392Y-3.626
X5.0411Y-4.4958
X5.0412Y-4.062
X5.0432Y-6.676
X5.0432Y-7.106
X5.0432Y-1.8845
X5.0434Y-2.322
X5.0434Y-2.756
X5.0437Y-4.932
X5.0443Y-1.4405
X5.045Y-6.2285
X5.0454Y-3.192
X5.0455Y-1.022
X5.047Y-5.3589
X5.047Y-5.7989
X5.091Y-1.454
X5.091Y-1.888
X5.091Y-2.322
X5.091Y-2.756
X5.091Y-3.19
X5.091Y-3.624
X5.091Y-4.058
X5.091Y-4.4922
X5.091Y-4.9264
X5.091Y-5.3606
X5.091Y-5.7949
X5.091Y-6.2291
X5.091Y-6.6633
X5.091Y-7.0975
X5.091Y-7.5317
X5.092Y-1.02
X5.125Y-8.686
X5.141Y-8.943
X5.259Y-9.25
X5.262Y-8.686
X5.289Y-9.317
X5.295Y-8.955
X5.3626Y-2.514
X5.3626Y-2.95
X5.3646Y-1.648
X5.3646Y-2.082
X5.3646Y-3.384
X5.3646Y-3.818
X5.3646Y-4.252
X5.3646Y-4.6862
X5.3646Y-5.1204
X5.3646Y-5.5546
X5.3646Y-5.9889
X5.3646Y-6.4231
X5.3646Y-6.8573
X5.3646Y-7.2915
X5.3646Y-7.7257
X5.365Y-8.935
X5.366Y-1.212
X5.39Y-9.1
X5.398Y-8.69
X5.4081Y-7.546
X5.4088Y-3.626
X5.41Y-1.012
X5.4108Y-4.062
X5.4108Y-4.498
X5.4108Y-4.932
X5.4128Y-6.676
X5.4128Y-7.106
X5.4133Y-1.888
X5.4133Y-2.322
X5.4133Y-2.756
X5.4146Y-1.444
X5.4148Y-6.232
X5.4153Y-3.192
X5.4168Y-5.362
X5.4168Y-5.802
X5.417Y-9.163
X5.4401Y-7.546
X5.4403Y-3.626
X5.4415Y-1.012
X5.4422Y-4.4958
X5.4423Y-4.062
X5.4443Y-6.676
X5.4443Y-7.106
X5.4446Y-1.8845
X5.4448Y-2.322
X5.4448Y-2.756
X5.4448Y-4.932
X5.4459Y-1.4405
X5.4461Y-6.2285
X5.4468Y-3.192
X5.4481Y-5.3589
X5.4481Y-5.7989
X5.45Y-9.142
X5.45Y-9.352
X5.456Y-9.311
X5.462Y-9.1874
X5.4728Y-9.1203
X5.488Y-9.459
X5.4926Y-1.454
X5.4926Y-1.888
X5.4926Y-2.322
X5.4926Y-2.756
X5.4926Y-3.19
X5.4926Y-3.624
X5.4926Y-4.058
X5.4926Y-4.4922
X5.4926Y-4.9264
X5.4926Y-5.3606
X5.4926Y-5.7949
X5.4926Y-6.2291
X5.4926Y-6.6633
X5.4926Y-7.0975
X5.4926Y-7.5317
X5.494Y-1.02
X5.4976Y-9.1009
X5.505Y-8.923
X5.536Y-8.69
X5.589Y-9.707
X5.594Y-9.09
X5.6Y-9.128
X5.62Y-9.261
X5.62Y-9.309
X5.626Y-9.342
X5.627Y-9.387
X5.629Y-9.227
X5.638Y-9.1
X5.639Y-8.923
X5.644Y-9.484
X5.644Y-9.5155
X5.648Y-9.652
X5.673Y-8.69
X5.677Y-9.203
X5.678Y-9.385
X5.708Y-9.075
X5.708Y-9.1065
X5.716Y-9.385
X5.716Y-9.216
X5.754Y-9.385
X5.7642Y-2.514
X5.7642Y-2.95
X5.7662Y-1.648
X5.7662Y-2.082
X5.7662Y-3.384
X5.7662Y-3.818
X5.7662Y-4.252
X5.7662Y-4.6862
X5.7662Y-5.1204
X5.7662Y-5.5546
X5.7662Y-5.9889
X5.7662Y-6.4231
X5.7662Y-6.8573
X5.7662Y-7.2915
X5.7662Y-7.7257
X5.768Y-1.212
X5.773Y-9.685
X5.786Y-8.664
X5.787Y-7.908
X5.79Y-8.431
X5.793Y-9.22
X5.806Y-9.256
X5.807Y-9.295
X5.8093Y-7.546
X5.8099Y-3.626
X5.8119Y-4.062
X5.8119Y-4.498
X5.8119Y-4.932
X5.8139Y-6.676
X5.8139Y-7.106
X5.8143Y-9.3256
X5.8148Y-1.888
X5.8148Y-2.322
X5.8148Y-2.756
X5.8159Y-6.232
X5.816Y-1.016
X5.816Y-9.555
X5.8162Y-1.444
X5.8168Y-3.192
X5.8179Y-5.362
X5.8179Y-5.802
X5.8413Y-7.546
X5.8414Y-3.626
X5.842Y-9.427
X5.842Y-9.456
X5.8433Y-4.4958
X5.8434Y-4.062
X5.8454Y-6.676
X5.8454Y-7.106
X5.8459Y-4.932
X5.846Y-1.8845
X5.8462Y-2.322
X5.8462Y-2.756
X5.8472Y-6.2285
X5.8475Y-1.4405
X5.8475Y-1.016
X5.8482Y-3.192
X5.8492Y-5.3589
X5.8492Y-5.7989
X5.853Y-9.0765
X5.853Y-9.108
X5.856Y-9.555
X5.874Y-9.449
X5.8942Y-1.454
X5.8942Y-1.888
X5.8942Y-2.322
X5.8942Y-2.756
X5.8942Y-3.19
X5.8942Y-3.624
X5.8942Y-4.058
X5.8942Y-4.4922
X5.8942Y-4.9264
X5.8942Y-5.3606
X5.8942Y-5.7949
X5.8942Y-6.2291
X5.8942Y-6.6633
X5.8942Y-7.0975
X5.8942Y-7.5317
X5.896Y-1.018
X5.964Y-9.727
X5.97Y-9.315
X5.97Y-9.387
X5.97Y-9.429
X5.97Y-9.471
X5.992Y-9.273
X5.994Y-8.896
X6.0842Y-8.8006
X6.09Y-9.685
X6.1657Y-2.514
X6.1657Y-2.95
X6.1677Y-1.648
X6.1677Y-2.082
X6.1677Y-3.384
X6.1677Y-3.818
X6.1677Y-4.252
X6.1677Y-4.6862
X6.1677Y-5.1204
X6.1677Y-5.5546
X6.1677Y-5.9889
X6.1677Y-6.4231
X6.1677Y-6.8573
X6.1677Y-7.2915
X6.1677Y-7.7257
X6.168Y-1.214
X6.203Y-9.11
X6.2106Y-7.546
X6.211Y-3.626
X6.212Y-1.01
X6.213Y-4.062
X6.213Y-4.498
X6.213Y-4.932
X6.215Y-6.676
X6.215Y-7.106
X6.2162Y-1.888
X6.2162Y-2.322
X6.2162Y-2.756
X6.217Y-6.232
X6.2177Y-1.444
X6.2182Y-3.192
X6.219Y-5.362
X6.219Y-5.802
X6.2366Y-8.9886
X6.2376Y-9.0866
X6.2425Y-3.626
X6.2426Y-7.546
X6.2435Y-1.01
X6.2444Y-4.4958
X6.2445Y-4.062
X6.2465Y-6.676
X6.2465Y-7.106
X6.247Y-4.932
X6.2475Y-1.8845
X6.2476Y-2.322
X6.2476Y-2.756
X6.2483Y-6.2285
X6.249Y-1.4405
X6.2496Y-3.192
X6.25Y-9.782
X6.2503Y-5.3589
X6.2503Y-5.7989
X6.2786Y-8.9886
X6.2796Y-9.0876
X6.286Y-9.72
X6.2957Y-1.454
X6.2957Y-1.888
X6.2957Y-2.322
X6.2957Y-2.756
X6.2957Y-3.19
X6.2957Y-3.624
X6.2957Y-4.058
X6.2957Y-4.4922
X6.2957Y-4.9264
X6.2957Y-5.3606
X6.2957Y-5.7949
X6.2957Y-6.2291
X6.2957Y-6.6633
X6.2957Y-7.0975
X6.2957Y-7.5317
X6.298Y-1.02
X6.349Y-8.85
X6.35Y-9.834
X6.5673Y-2.514
X6.5673Y-2.95
X6.5693Y-1.648
X6.5693Y-2.082
X6.5693Y-3.384
X6.5693Y-3.818
X6.5693Y-4.252
X6.5693Y-4.6862
X6.5693Y-5.1204
X6.5693Y-5.5546
X6.5693Y-5.9889
X6.5693Y-6.4231
X6.5693Y-6.8573
X6.5693Y-7.2915
X6.5693Y-7.7257
X6.57Y-1.212
X6.6119Y-7.546
X6.6121Y-3.626
X6.6131Y-9.6868
X6.614Y-1.01
X6.6141Y-4.062
X6.6141Y-4.498
X6.6141Y-4.932
X6.6161Y-6.676
X6.6161Y-7.106
X6.6176Y-1.888
X6.6176Y-2.322
X6.6176Y-2.756
X6.6181Y-6.232
X6.6193Y-1.444
X6.6196Y-3.192
X6.6201Y-5.362
X6.6201Y-5.802
X6.6436Y-3.626
X6.6439Y-7.546
X6.6455Y-1.01
X6.6455Y-4.4958
X6.6456Y-4.062
X6.6476Y-6.676
X6.6476Y-7.106
X6.6481Y-4.932
X6.6489Y-1.8845
X6.6491Y-2.322
X6.6491Y-2.756
X6.6494Y-6.2285
X6.6506Y-1.4405
X6.6511Y-3.192
X6.6514Y-5.3589
X6.6514Y-5.7989
X6.6973Y-1.454
X6.6973Y-1.888
X6.6973Y-2.322
X6.6973Y-2.756
X6.6973Y-3.19
X6.6973Y-3.624
X6.6973Y-4.058
X6.6973Y-4.4922
X6.6973Y-4.9264
X6.6973Y-5.3606
X6.6973Y-5.7949
X6.6973Y-6.2291
X6.6973Y-6.6633
X6.6973Y-7.0975
X6.6973Y-7.5317
X6.698Y-1.02
X6.7531Y-9.6848
X6.8471Y-9.7418
X6.9591Y-9.7428
X6.9689Y-2.514
X6.9689Y-2.95
X6.9709Y-1.648
X6.9709Y-2.082
X6.9709Y-3.384
X6.9709Y-3.818
X6.9709Y-4.252
X6.9709Y-4.6862
X6.9709Y-5.1204
X6.9709Y-5.5546
X6.9709Y-5.9889
X6.9709Y-6.4231
X6.9709Y-6.8573
X6.9709Y-7.2915
X6.9709Y-7.7257
X6.972Y-1.214
X7.0131Y-7.546
X7.0132Y-3.626
X7.0152Y-4.062
X7.0152Y-4.498
X7.0152Y-4.932
X7.0172Y-6.676
X7.0172Y-7.106
X7.018Y-1.012
X7.019Y-1.888
X7.019Y-2.322
X7.019Y-2.756
X7.0192Y-6.232
X7.0209Y-1.444
X7.021Y-3.192
X7.0212Y-5.362
X7.0212Y-5.802
X7.0447Y-3.626
X7.0451Y-7.546
X7.0466Y-4.4958
X7.0467Y-4.062
X7.0487Y-6.676
X7.0487Y-7.106
X7.0492Y-4.932
X7.0495Y-1.012
X7.0503Y-1.8845
X7.0505Y-2.322
X7.0505Y-2.756
X7.0505Y-6.2285
X7.0522Y-1.4405
X7.0525Y-3.192
X7.0525Y-5.3589
X7.0525Y-5.7989
X7.0989Y-1.454
X7.0989Y-1.888
X7.0989Y-2.322
X7.0989Y-2.756
X7.0989Y-3.19
X7.0989Y-3.624
X7.0989Y-4.058
X7.0989Y-4.4922
X7.0989Y-4.9264
X7.0989Y-5.3606
X7.0989Y-5.7949
X7.0989Y-6.2291
X7.0989Y-6.6633
X7.0989Y-7.0975
X7.0989Y-7.5317
X7.102Y-1.02
X7.3705Y-2.514
X7.3705Y-2.95
X7.372Y-1.212
X7.3725Y-1.648
X7.3725Y-2.082
X7.3725Y-3.384
X7.3725Y-3.818
X7.3725Y-4.252
X7.3725Y-4.6862
X7.3725Y-5.1204
X7.3725Y-5.5546
X7.3725Y-5.9889
X7.3725Y-6.4231
X7.3725Y-6.8573
X7.3725Y-7.2915
X7.3725Y-7.7257
X7.4143Y-3.626
X7.4144Y-7.546
X7.4163Y-4.062
X7.4163Y-4.498
X7.4163Y-4.932
X7.418Y-1.016
X7.4183Y-6.676
X7.4183Y-7.106
X7.4203Y-6.232
X7.4204Y-1.888
X7.4204Y-2.322
X7.4204Y-2.756
X7.4223Y-5.362
X7.4223Y-5.802
X7.4224Y-3.192
X7.4225Y-1.444
X7.4458Y-3.626
X7.4464Y-7.546
X7.4477Y-4.4958
X7.4478Y-4.062
X7.4498Y-6.676
X7.4498Y-7.106
X7.45Y-1.016
X7.4503Y-4.932
X7.4516Y-6.2285
X7.4517Y-1.8845
X7.4519Y-2.322
X7.4519Y-2.756
X7.4537Y-5.3589
X7.4537Y-5.7989
X7.4538Y-1.4405
X7.4539Y-3.192
X7.5005Y-1.454
X7.5005Y-1.888
X7.5005Y-2.322
X7.5005Y-2.756
X7.5005Y-3.19
X7.5005Y-3.624
X7.5005Y-4.058
X7.5005Y-4.4922
X7.5005Y-4.9264
X7.5005Y-5.3606
X7.5005Y-5.7949
X7.5005Y-6.2291
X7.5005Y-6.6633
X7.5005Y-7.0975
X7.5005Y-7.5317
X7.502Y-1.02
X7.7Y-9.69
X7.73Y-9.265
X7.735Y-9.46
X7.772Y-2.514
X7.772Y-2.95
X7.774Y-1.212
X7.774Y-1.648
X7.774Y-2.082
X7.774Y-3.384
X7.774Y-3.818
X7.774Y-4.252
X7.774Y-4.6862
X7.774Y-5.1204
X7.774Y-5.5546
X7.774Y-5.9889
X7.774Y-6.4231
X7.774Y-6.8573
X7.774Y-7.2915
X7.774Y-7.7257
X7.8Y-9.265
X7.81Y-9.455
X7.8154Y-3.626
X7.8156Y-7.546
X7.8174Y-4.062
X7.8174Y-4.498
X7.8174Y-4.932
X7.8194Y-6.676
X7.8194Y-7.106
X7.82Y-1.016
X7.8214Y-6.232
X7.8218Y-1.888
X7.8218Y-2.322
X7.8218Y-2.756
X7.8234Y-5.362
X7.8234Y-5.802
X7.8238Y-3.192
X7.824Y-1.444
X7.8469Y-3.626
X7.8476Y-7.546
X7.8488Y-4.4958
X7.8489Y-4.062
X7.8509Y-6.676
X7.8509Y-7.106
X7.8514Y-4.932
X7.8515Y-1.016
X7.8527Y-6.2285
X7.8531Y-1.8845
X7.8533Y-2.322
X7.8533Y-2.756
X7.8548Y-5.3589
X7.8548Y-5.7989
X7.8553Y-3.192
X7.8553Y-1.4405
X7.902Y-1.454
X7.902Y-1.888
X7.902Y-2.322
X7.902Y-2.756
X7.902Y-3.19
X7.902Y-3.624
X7.902Y-4.058
X7.902Y-4.4922
X7.902Y-4.9264
X7.902Y-5.3606
X7.902Y-5.7949
X7.902Y-6.2291
X7.902Y-6.6633
X7.902Y-7.0975
X7.902Y-7.5317
X7.906Y-1.02
X7.999Y-9.262
X8.024Y-9.193
X8.073Y-9.304
X8.077Y-9.601
X8.137Y-9.53
X8.138Y-9.374
X8.138Y-9.453
X8.14Y-9.106
X8.141Y-9.602
X8.1736Y-2.514
X8.1736Y-2.95
X8.1756Y-1.648
X8.1756Y-2.082
X8.1756Y-3.384
X8.1756Y-3.818
X8.1756Y-4.252
X8.1756Y-4.6862
X8.1756Y-5.1204
X8.1756Y-5.5546
X8.1756Y-5.9889
X8.1756Y-6.4231
X8.1756Y-6.8573
X8.1756Y-7.2915
X8.1756Y-7.7257
X8.176Y-1.212
X8.188Y-9.584
X8.189Y-9.106
X8.189Y-9.33
X8.216Y-9.192
X8.2165Y-3.626
X8.2169Y-7.546
X8.2185Y-4.062
X8.2185Y-4.498
X8.2185Y-4.932
X8.2205Y-6.676
X8.2205Y-7.106
X8.222Y-1.016
X8.2225Y-6.232
X8.2233Y-1.888
X8.2233Y-2.322
X8.2233Y-2.756
X8.2245Y-5.362
X8.2245Y-5.802
X8.2253Y-3.192
X8.2256Y-1.444
X8.235Y-9.602
X8.245Y-8.96
X8.248Y-3.626
X8.2489Y-7.546
X8.2499Y-4.4958
X8.25Y-4.062
X8.252Y-6.676
X8.252Y-7.106
X8.2525Y-4.932
X8.2535Y-1.016
X8.2538Y-6.2285
X8.2545Y-1.8845
X8.2547Y-2.322
X8.2547Y-2.756
X8.2559Y-5.3589
X8.2559Y-5.7989
X8.2567Y-3.192
X8.2569Y-1.4405
X8.265Y-9.208
X8.266Y-9.331
X8.267Y-9.584
X8.273Y-8.627
X8.3036Y-1.454
X8.3036Y-1.888
X8.3036Y-2.322
X8.3036Y-2.756
X8.3036Y-3.19
X8.3036Y-3.624
X8.3036Y-4.058
X8.3036Y-4.4922
X8.3036Y-4.9264
X8.3036Y-5.3606
X8.3036Y-5.7949
X8.3036Y-6.2291
X8.3036Y-6.6633
X8.3036Y-7.0975
X8.3036Y-7.5317
X8.304Y-1.02
X8.344Y-9.585
X8.345Y-9.331
X8.347Y-8.624
X8.365Y-8.669
X8.392Y-9.614
X8.395Y-9.462
X8.395Y-9.541
X8.396Y-9.385
X8.458Y-9.615
X8.464Y-9.3
X8.464Y-9.552
X8.535Y-9.262
X8.535Y-9.301
X8.536Y-9.651
X8.559Y-9.623
X8.572Y-9.47
X8.5752Y-2.514
X8.5752Y-2.95
X8.5772Y-1.648
X8.5772Y-2.082
X8.5772Y-3.384
X8.5772Y-3.818
X8.5772Y-4.252
X8.5772Y-4.6862
X8.5772Y-5.1204
X8.5772Y-5.5546
X8.5772Y-5.9889
X8.5772Y-6.4231
X8.5772Y-6.8573
X8.5772Y-7.2915
X8.5772Y-7.7257
X8.58Y-1.212
X8.604Y-9.622
X8.617Y-9.299
X8.617Y-9.469
X8.6176Y-3.626
X8.6182Y-7.546
X8.6196Y-4.062
X8.6196Y-4.498
X8.6196Y-4.932
X8.6216Y-6.676
X8.6216Y-7.106
X8.6236Y-6.232
X8.624Y-1.016
X8.6247Y-1.888
X8.6247Y-2.322
X8.6247Y-2.756
X8.6256Y-5.362
X8.6256Y-5.802
X8.6267Y-3.192
X8.6272Y-1.444
X8.637Y-9.555
X8.6491Y-3.626
X8.6502Y-7.546
X8.651Y-4.4958
X8.6511Y-4.062
X8.6531Y-6.676
X8.6531Y-7.106
X8.6536Y-4.932
X8.6549Y-6.2285
X8.6555Y-1.016
X8.656Y-1.8845
X8.6562Y-2.322
X8.6562Y-2.756
X8.657Y-5.3589
X8.657Y-5.7989
X8.6582Y-3.192
X8.6585Y-1.4405
X8.7052Y-1.454
X8.7052Y-1.888
X8.7052Y-2.322
X8.7052Y-2.756
X8.7052Y-3.19
X8.7052Y-3.624
X8.7052Y-4.058
X8.7052Y-4.4922
X8.7052Y-4.9264
X8.7052Y-5.3606
X8.7052Y-5.7949
X8.7052Y-6.2291
X8.7052Y-6.6633
X8.7052Y-7.0975
X8.7052Y-7.5317
X8.706Y-1.018
X8.9768Y-2.514
X8.9768Y-2.95
X8.978Y-1.214
X8.9788Y-1.648
X8.9788Y-2.082
X8.9788Y-3.384
X8.9788Y-3.818
X8.9788Y-4.252
X8.9788Y-4.6862
X8.9788Y-5.1204
X8.9788Y-5.5546
X8.9788Y-5.9889
X8.9788Y-6.4231
X8.9788Y-6.8573
X8.9788Y-7.2915
X8.9788Y-7.7257
X9.0187Y-3.626
X9.0194Y-7.546
X9.0207Y-4.062
X9.0207Y-4.498
X9.0207Y-4.932
X9.0227Y-6.676
X9.0227Y-7.106
X9.024Y-1.016
X9.0247Y-6.232
X9.0261Y-1.888
X9.0261Y-2.322
X9.0261Y-2.756
X9.0267Y-5.362
X9.0267Y-5.802
X9.0281Y-3.192
X9.0288Y-1.444
X9.0502Y-3.626
X9.0514Y-7.546
X9.0521Y-4.4958
X9.0522Y-4.062
X9.0542Y-6.676
X9.0542Y-7.106
X9.0547Y-4.932
X9.0555Y-1.016
X9.056Y-6.2285
X9.0574Y-1.8845
X9.0576Y-2.322
X9.0576Y-2.756
X9.0581Y-5.3589
X9.0581Y-5.7989
X9.0596Y-3.192
X9.0601Y-1.4405
X9.106Y-1.02
X9.1068Y-1.454
X9.1068Y-1.888
X9.1068Y-2.322
X9.1068Y-2.756
X9.1068Y-3.19
X9.1068Y-3.624
X9.1068Y-4.058
X9.1068Y-4.4922
X9.1068Y-4.9264
X9.1068Y-5.3606
X9.1068Y-5.7949
X9.1068Y-6.2291
X9.1068Y-6.6633
X9.1068Y-7.0975
X9.1068Y-7.5317
X9.3783Y-2.514
X9.3783Y-2.95
X9.38Y-1.212
X9.3803Y-1.648
X9.3803Y-2.082
X9.3803Y-3.384
X9.3803Y-3.818
X9.3803Y-4.252
X9.3803Y-4.6862
X9.3803Y-5.1204
X9.3803Y-5.5546
X9.3803Y-5.9889
X9.3803Y-6.4231
X9.3803Y-6.8573
X9.3803Y-7.2915
X9.3803Y-7.7257
X9.4198Y-3.626
X9.4207Y-7.546
X9.4218Y-4.062
X9.4218Y-4.498
X9.4218Y-4.932
X9.4238Y-6.676
X9.4238Y-7.106
X9.4258Y-6.232
X9.4275Y-1.888
X9.4275Y-2.322
X9.4275Y-2.756
X9.4278Y-5.362
X9.4278Y-5.802
X9.4295Y-3.192
X9.4303Y-1.444
X9.432Y-1.006
X9.4513Y-3.626
X9.4527Y-7.546
X9.4532Y-4.4958
X9.4533Y-4.062
X9.4553Y-6.676
X9.4553Y-7.106
X9.4558Y-4.932
X9.4571Y-6.2285
X9.4588Y-1.8845
X9.459Y-2.322
X9.459Y-2.756
X9.4592Y-5.3589
X9.4592Y-5.7989
X9.461Y-3.192
X9.4616Y-1.4405
X9.47Y-1.006
X9.5083Y-1.454
X9.5083Y-1.888
X9.5083Y-2.322
X9.5083Y-2.756
X9.5083Y-3.19
X9.5083Y-3.624
X9.5083Y-4.058
X9.5083Y-4.4922
X9.5083Y-4.9264
X9.5083Y-5.3606
X9.5083Y-5.7949
X9.5083Y-6.2291
X9.5083Y-6.6633
X9.5083Y-7.0975
X9.5083Y-7.5317
X9.51Y-1.02
X9.7799Y-2.514
X9.7799Y-2.95
X9.7819Y-1.648
X9.7819Y-2.082
X9.7819Y-3.384
X9.7819Y-3.818
X9.7819Y-4.252
X9.7819Y-4.6862
X9.7819Y-5.1204
X9.7819Y-5.5546
X9.7819Y-5.9889
X9.7819Y-6.4231
X9.7819Y-6.8573
X9.7819Y-7.2915
X9.7819Y-7.7257
X9.782Y-1.214
X9.8209Y-3.626
X9.8219Y-7.546
X9.8229Y-4.062
X9.8229Y-4.498
X9.8229Y-4.932
X9.8249Y-6.676
X9.8249Y-7.106
X9.8269Y-6.232
X9.828Y-1.008
X9.8289Y-1.888
X9.8289Y-2.322
X9.8289Y-2.756
X9.8289Y-5.362
X9.8289Y-5.802
X9.8309Y-3.192
X9.8319Y-1.444
X9.8524Y-3.626
X9.8539Y-7.546
X9.8543Y-4.4958
X9.8544Y-4.062
X9.8564Y-6.676
X9.8564Y-7.106
X9.8569Y-4.932
X9.8582Y-6.2285
X9.8594Y-1.0058
X9.8602Y-1.8845
X9.8603Y-5.3589
X9.8603Y-5.7989
X9.8604Y-2.322
X9.8604Y-2.756
X9.8624Y-3.192
X9.8632Y-1.4405
X9.9099Y-1.454
X9.9099Y-1.888
X9.9099Y-2.322
X9.9099Y-2.756
X9.9099Y-3.19
X9.9099Y-3.624
X9.9099Y-4.058
X9.9099Y-4.4922
X9.9099Y-4.9264
X9.9099Y-5.3606
X9.9099Y-5.7949
X9.9099Y-6.2291
X9.9099Y-6.6633
X9.9099Y-7.0975
X9.9099Y-7.5317
X9.91Y-1.02
X10.1815Y-2.514
X10.1815Y-2.95
X10.1835Y-1.648
X10.1835Y-2.082
X10.1835Y-3.384
X10.1835Y-3.818
X10.1835Y-4.252
X10.1835Y-4.6862
X10.1835Y-5.1204
X10.1835Y-5.5546
X10.1835Y-5.9889
X10.1835Y-6.4231
X10.1835Y-6.8573
X10.1835Y-7.2915
X10.1835Y-7.7257
X10.184Y-1.212
X10.222Y-3.626
X10.2232Y-7.546
X10.224Y-4.062
X10.224Y-4.498
X10.224Y-4.932
X10.226Y-6.676
X10.226Y-7.106
X10.228Y-1.008
X10.228Y-6.232
X10.23Y-5.362
X10.23Y-5.802
X10.2303Y-1.888
X10.2303Y-2.322
X10.2303Y-2.756
X10.2323Y-3.192
X10.2335Y-1.444
X10.2535Y-3.626
X10.2552Y-7.546
X10.2554Y-4.4958
X10.2555Y-4.062
X10.2575Y-6.676
X10.2575Y-7.106
X10.258Y-4.932
X10.2593Y-6.2285
X10.2594Y-1.0058
X10.2614Y-5.3589
X10.2614Y-5.7989
X10.2616Y-1.8845
X10.2618Y-2.322
X10.2618Y-2.756
X10.2638Y-3.192
X10.2648Y-1.4405
X10.3115Y-1.454
X10.3115Y-1.888
X10.3115Y-2.322
X10.3115Y-2.756
X10.3115Y-3.19
X10.3115Y-3.624
X10.3115Y-4.058
X10.3115Y-4.4922
X10.3115Y-4.9264
X10.3115Y-5.3606
X10.3115Y-5.7949
X10.3115Y-6.2291
X10.3115Y-6.6633
X10.3115Y-7.0975
X10.3115Y-7.5317
X10.312Y-1.02
X10.5831Y-2.514
X10.5831Y-2.95
X10.5851Y-1.648
X10.5851Y-2.082
X10.5851Y-3.384
X10.5851Y-3.818
X10.5851Y-4.252
X10.5851Y-4.6862
X10.5851Y-5.1204
X10.5851Y-5.5546
X10.5851Y-5.9889
X10.5851Y-6.4231
X10.5851Y-6.8573
X10.5851Y-7.2915
X10.5851Y-7.7257
X10.5855Y-1.212
X10.6231Y-3.626
X10.6245Y-7.546
X10.6251Y-4.062
X10.6251Y-4.498
X10.6251Y-4.932
X10.6271Y-6.676
X10.6271Y-7.106
X10.6291Y-6.232
X10.6295Y-1.008
X10.6311Y-5.362
X10.6311Y-5.802
X10.6318Y-1.888
X10.6318Y-2.322
X10.6318Y-2.756
X10.6338Y-3.192
X10.6351Y-1.444
X10.6546Y-3.626
X10.6565Y-7.546
X10.6565Y-4.4958
X10.6566Y-4.062
X10.6586Y-6.676
X10.6586Y-7.106
X10.6591Y-4.932
X10.6604Y-6.2285
X10.6609Y-1.0058
X10.6625Y-5.3589
X10.6625Y-5.7989
X10.663Y-1.8845
X10.6632Y-2.322
X10.6632Y-2.756
X10.6652Y-3.192
X10.6664Y-1.4405
X10.7131Y-1.454
X10.7131Y-1.888
X10.7131Y-2.322
X10.7131Y-2.756
X10.7131Y-3.19
X10.7131Y-3.624
X10.7131Y-4.058
X10.7131Y-4.4922
X10.7131Y-4.9264
X10.7131Y-5.3606
X10.7131Y-5.7949
X10.7131Y-6.2291
X10.7131Y-6.6633
X10.7131Y-7.0975
X10.7131Y-7.5317
X10.7135Y-1.02
X10.9846Y-2.514
X10.9846Y-2.95
X10.9866Y-1.648
X10.9866Y-2.082
X10.9866Y-3.384
X10.9866Y-3.818
X10.9866Y-4.252
X10.9866Y-4.6862
X10.9866Y-5.1204
X10.9866Y-5.5546
X10.9866Y-5.9889
X10.9866Y-6.4231
X10.9866Y-6.8573
X10.9866Y-7.2915
X10.9866Y-7.7257
X10.9871Y-1.212
X11.0243Y-3.626
X11.0257Y-7.546
X11.0263Y-4.062
X11.0263Y-4.498
X11.0263Y-4.932
X11.0283Y-6.676
X11.0283Y-7.106
X11.0303Y-6.232
X11.0311Y-1.008
X11.0323Y-5.362
X11.0323Y-5.802
X11.0332Y-1.888
X11.0332Y-2.322
X11.0332Y-2.756
X11.0352Y-3.192
X11.0366Y-1.444
X11.0557Y-3.626
X11.0576Y-4.4958
X11.0577Y-7.546
X11.0577Y-4.062
X11.0597Y-6.676
X11.0597Y-7.106
X11.0603Y-4.932
X11.0615Y-6.2285
X11.0625Y-1.0058
X11.0636Y-5.3589
X11.0636Y-5.7989
X11.0645Y-1.8845
X11.0647Y-2.322
X11.0647Y-2.756
X11.0667Y-3.192
X11.0679Y-1.4405
X11.1146Y-1.454
X11.1146Y-1.888
X11.1146Y-2.322
X11.1146Y-2.756
X11.1146Y-3.19
X11.1146Y-3.624
X11.1146Y-4.058
X11.1146Y-4.4922
X11.1146Y-4.9264
X11.1146Y-5.3606
X11.1146Y-5.7949
X11.1146Y-6.2291
X11.1146Y-6.6633
X11.1146Y-7.0975
X11.1146Y-7.5317
X11.1151Y-1.02
X11.3862Y-2.514
X11.3862Y-2.95
X11.3882Y-1.648
X11.3882Y-2.082
X11.3882Y-3.384
X11.3882Y-3.818
X11.3882Y-4.252
X11.3882Y-4.6862
X11.3882Y-5.1204
X11.3882Y-5.5546
X11.3882Y-5.9889
X11.3882Y-6.4231
X11.3882Y-6.8573
X11.3882Y-7.2915
X11.3882Y-7.7257
X11.3886Y-1.212
X11.4254Y-3.626
X11.427Y-7.546
X11.4274Y-4.062
X11.4274Y-4.498
X11.4274Y-4.932
X11.4294Y-6.676
X11.4294Y-7.106
X11.4314Y-6.232
X11.4326Y-1.008
X11.4334Y-5.362
X11.4334Y-5.802
X11.4346Y-1.888
X11.4346Y-2.322
X11.4346Y-2.756
X11.4366Y-3.192
X11.4382Y-1.444
X11.4568Y-3.626
X11.4588Y-4.4958
X11.4588Y-4.062
X11.459Y-7.546
X11.4608Y-6.676
X11.4608Y-7.106
X11.4614Y-4.932
X11.4626Y-6.2285
X11.464Y-1.0058
X11.4647Y-5.3589
X11.4647Y-5.7989
X11.4659Y-1.8845
X11.4661Y-2.322
X11.4661Y-2.756
X11.4681Y-3.192
X11.4695Y-1.4405
X11.5162Y-1.454
X11.5162Y-1.888
X11.5162Y-2.322
X11.5162Y-2.756
X11.5162Y-3.19
X11.5162Y-3.624
X11.5162Y-4.058
X11.5162Y-4.4922
X11.5162Y-4.9264
X11.5162Y-5.3606
X11.5162Y-5.7949
X11.5162Y-6.2291
X11.5162Y-6.6633
X11.5162Y-7.0975
X11.5162Y-7.5317
X11.5166Y-1.02
X11.7878Y-2.514
X11.7878Y-2.95
X11.7898Y-1.648
X11.7898Y-2.082
X11.7898Y-3.384
X11.7898Y-3.818
X11.7898Y-4.252
X11.7898Y-4.6862
X11.7898Y-5.1204
X11.7898Y-5.5546
X11.7898Y-5.9889
X11.7898Y-6.4231
X11.7898Y-6.8573
X11.7898Y-7.2915
X11.7898Y-7.7257
X11.7901Y-1.212
X11.8265Y-3.626
X11.8282Y-7.546
X11.8285Y-4.062
X11.8285Y-4.498
X11.8285Y-4.932
X11.8305Y-6.676
X11.8305Y-7.106
X11.8325Y-6.232
X11.8341Y-1.008
X11.8345Y-5.362
X11.8345Y-5.802
X11.836Y-1.888
X11.836Y-2.322
X11.836Y-2.756
X11.838Y-3.192
X11.8398Y-1.444
X11.8579Y-3.626
X11.8599Y-4.4958
X11.8599Y-4.062
X11.8602Y-7.546
X11.8619Y-6.676
X11.8619Y-7.106
X11.8625Y-4.932
X11.8637Y-6.2285
X11.8655Y-1.0058
X11.8658Y-5.3589
X11.8658Y-5.7989
X11.8673Y-1.8845
X11.8675Y-2.322
X11.8675Y-2.756
X11.8695Y-3.192
X11.8711Y-1.4405
X11.9178Y-1.454
X11.9178Y-1.888
X11.9178Y-2.322
X11.9178Y-2.756
X11.9178Y-3.19
X11.9178Y-3.624
X11.9178Y-4.058
X11.9178Y-4.4922
X11.9178Y-4.9264
X11.9178Y-5.3606
X11.9178Y-5.7949
X11.9178Y-6.2291
X11.9178Y-6.6633
X11.9178Y-7.0975
X11.9178Y-7.5317
X11.9181Y-1.02
X12.1894Y-2.514
X12.1894Y-2.95
X12.1914Y-1.648
X12.1914Y-2.082
X12.1914Y-3.384
X12.1914Y-3.818
X12.1914Y-4.252
X12.1914Y-4.6862
X12.1914Y-5.1204
X12.1914Y-5.5546
X12.1914Y-5.9889
X12.1914Y-6.4231
X12.1914Y-6.8573
X12.1914Y-7.2915
X12.1914Y-7.7257
X12.1917Y-1.212
X12.2276Y-3.626
X12.2295Y-7.546
X12.2296Y-4.062
X12.2296Y-4.498
X12.2296Y-4.932
X12.2316Y-6.676
X12.2316Y-7.106
X12.2336Y-6.232
X12.2356Y-5.362
X12.2356Y-5.802
X12.2357Y-1.008
X12.2374Y-1.888
X12.2374Y-2.322
X12.2374Y-2.756
X12.2394Y-3.192
X12.2414Y-1.444
X12.259Y-3.626
X12.261Y-4.4958
X12.261Y-4.062
X12.2615Y-7.546
X12.263Y-6.676
X12.263Y-7.106
X12.2636Y-4.932
X12.2648Y-6.2285
X12.2669Y-5.3589
X12.2669Y-5.7989
X12.2671Y-1.0058
X12.2687Y-1.8845
X12.2689Y-2.322
X12.2689Y-2.756
X12.2709Y-3.192
X12.2727Y-1.4405
X12.3194Y-1.454
X12.3194Y-1.888
X12.3194Y-2.322
X12.3194Y-2.756
X12.3194Y-3.19
X12.3194Y-3.624
X12.3194Y-4.058
X12.3194Y-4.4922
X12.3194Y-4.9264
X12.3194Y-5.3606
X12.3194Y-5.7949
X12.3194Y-6.2291
X12.3194Y-6.6633
X12.3194Y-7.0975
X12.3194Y-7.5317
X12.3197Y-1.02
X12.5909Y-2.514
X12.5909Y-2.95
X12.5929Y-1.648
X12.5929Y-2.082
X12.5929Y-3.384
X12.5929Y-3.818
X12.5929Y-4.252
X12.5929Y-4.6862
X12.5929Y-5.1204
X12.5929Y-5.5546
X12.5929Y-5.9889
X12.5929Y-6.4231
X12.5929Y-6.8573
X12.5929Y-7.2915
X12.5929Y-7.7257
X12.5932Y-1.212
X12.6287Y-3.626
X12.6307Y-4.062
X12.6307Y-4.498
X12.6307Y-4.932
X12.6308Y-7.546
X12.6327Y-6.676
X12.6327Y-7.106
X12.6347Y-6.232
X12.6367Y-5.362
X12.6367Y-5.802
X12.6372Y-1.008
X12.6389Y-1.888
X12.6389Y-2.322
X12.6389Y-2.756
X12.6409Y-3.192
X12.6429Y-1.444
X12.6601Y-3.626
X12.6621Y-4.4958
X12.6621Y-4.062
X12.6628Y-7.546
X12.6641Y-6.676
X12.6641Y-7.106
X12.6647Y-4.932
X12.6659Y-6.2285
X12.668Y-5.3589
X12.668Y-5.7989
X12.6686Y-1.0058
X12.6701Y-1.8845
X12.6703Y-2.322
X12.6703Y-2.756
X12.6723Y-3.192
X12.6742Y-1.4405
X12.7209Y-1.454
X12.7209Y-1.888
X12.7209Y-2.322
X12.7209Y-2.756
X12.7209Y-3.19
X12.7209Y-3.624
X12.7209Y-4.058
X12.7209Y-4.4922
X12.7209Y-4.9264
X12.7209Y-5.3606
X12.7209Y-5.7949
X12.7209Y-6.2291
X12.7209Y-6.6633
X12.7209Y-7.0975
X12.7209Y-7.5317
X12.7212Y-1.02
X12.9925Y-2.514
X12.9925Y-2.95
X12.9945Y-1.648
X12.9945Y-2.082
X12.9945Y-3.384
X12.9945Y-3.818
X12.9945Y-4.252
X12.9945Y-4.6862
X12.9945Y-5.1204
X12.9945Y-5.5546
X12.9945Y-5.9889
X12.9945Y-6.4231
X12.9945Y-6.8573
X12.9945Y-7.2915
X12.9945Y-7.7257
X12.9947Y-1.212
X13.0298Y-3.626
X13.0318Y-4.062
X13.0318Y-4.498
X13.0318Y-4.932
X13.032Y-7.546
X13.0338Y-6.676
X13.0338Y-7.106
X13.0358Y-6.232
X13.0378Y-5.362
X13.0378Y-5.802
X13.0387Y-1.008
X13.0403Y-1.888
X13.0403Y-2.322
X13.0403Y-2.756
X13.0423Y-3.192
X13.0445Y-1.444
X13.0612Y-3.626
X13.0632Y-4.4958
X13.0632Y-4.062
X13.064Y-7.546
X13.0652Y-6.676
X13.0652Y-7.106
X13.0658Y-4.932
X13.067Y-6.2285
X13.0691Y-5.3589
X13.0691Y-5.7989
X13.0701Y-1.0058
X13.0716Y-1.8845
X13.0717Y-2.322
X13.0717Y-2.756
X13.0737Y-3.192
X13.0758Y-1.4405
X13.1225Y-1.454
X13.1225Y-1.888
X13.1225Y-2.322
X13.1225Y-2.756
X13.1225Y-3.19
X13.1225Y-3.624
X13.1225Y-4.058
X13.1225Y-4.4922
X13.1225Y-4.9264
X13.1225Y-5.3606
X13.1225Y-5.7949
X13.1225Y-6.2291
X13.1225Y-6.6633
X13.1225Y-7.0975
X13.1225Y-7.5317
X13.1227Y-1.02
X13.3941Y-2.514
X13.3941Y-2.95
X13.3961Y-1.648
X13.3961Y-2.082
X13.3961Y-3.384
X13.3961Y-3.818
X13.3961Y-4.252
X13.3961Y-4.6862
X13.3961Y-5.1204
X13.3961Y-5.5546
X13.3961Y-5.9889
X13.3961Y-6.4231
X13.3961Y-6.8573
X13.3961Y-7.2915
X13.3961Y-7.7257
X13.3963Y-1.212
X13.4309Y-3.626
X13.4329Y-4.062
X13.4329Y-4.498
X13.4329Y-4.932
X13.4333Y-7.546
X13.4349Y-6.676
X13.4349Y-7.106
X13.4369Y-6.232
X13.4389Y-5.362
X13.4389Y-5.802
X13.4403Y-1.008
X13.4417Y-1.888
X13.4417Y-2.322
X13.4417Y-2.756
X13.4437Y-3.192
X13.4461Y-1.444
X13.4623Y-3.626
X13.4643Y-4.4958
X13.4643Y-4.062
X13.4653Y-7.546
X13.4663Y-6.676
X13.4663Y-7.106
X13.4669Y-4.932
X13.4682Y-6.2285
X13.4702Y-5.3589
X13.4702Y-5.7989
X13.4717Y-1.0058
X13.473Y-1.8845
X13.4732Y-2.322
X13.4732Y-2.756
X13.4752Y-3.192
X13.4774Y-1.4405
X13.5241Y-1.454
X13.5241Y-1.888
X13.5241Y-2.322
X13.5241Y-2.756
X13.5241Y-3.19
X13.5241Y-3.624
X13.5241Y-4.058
X13.5241Y-4.4922
X13.5241Y-4.9264
X13.5241Y-5.3606
X13.5241Y-5.7949
X13.5241Y-6.2291
X13.5241Y-6.6633
X13.5241Y-7.0975
X13.5241Y-7.5317
X13.5243Y-1.02
X13.7957Y-2.514
X13.7957Y-2.95
X13.7977Y-1.648
X13.7977Y-2.082
X13.7977Y-3.384
X13.7977Y-3.818
X13.7977Y-4.252
X13.7977Y-4.6862
X13.7977Y-5.1204
X13.7977Y-5.5546
X13.7977Y-5.9889
X13.7977Y-6.4231
X13.7977Y-6.8573
X13.7977Y-7.2915
X13.7977Y-7.7257
X13.7978Y-1.212
X13.832Y-3.626
X13.834Y-4.062
X13.834Y-4.498
X13.834Y-4.932
X13.8345Y-7.546
X13.836Y-6.676
X13.836Y-7.106
X13.838Y-6.232
X13.84Y-5.362
X13.84Y-5.802
X13.8418Y-1.008
X13.8431Y-1.888
X13.8431Y-2.322
X13.8431Y-2.756
X13.8451Y-3.192
X13.8477Y-1.444
X13.8634Y-3.626
X13.8654Y-4.4958
X13.8654Y-4.062
X13.8665Y-7.546
X13.8674Y-6.676
X13.8674Y-7.106
X13.868Y-4.932
X13.8693Y-6.2285
X13.8713Y-5.3589
X13.8713Y-5.7989
X13.8732Y-1.0058
X13.8744Y-1.8845
X13.8746Y-2.322
X13.8746Y-2.756
X13.8766Y-3.192
X13.879Y-1.4405
X13.9257Y-1.454
X13.9257Y-1.888
X13.9257Y-2.322
X13.9257Y-2.756
X13.9257Y-3.19
X13.9257Y-3.624
X13.9257Y-4.058
X13.9257Y-4.4922
X13.9257Y-4.9264
X13.9257Y-5.3606
X13.9257Y-5.7949
X13.9257Y-6.2291
X13.9257Y-6.6633
X13.9257Y-7.0975
X13.9257Y-7.5317
X13.9258Y-1.02
X14.1972Y-2.514
X14.1972Y-2.95
X14.1992Y-1.648
X14.1992Y-2.082
X14.1992Y-3.384
X14.1992Y-3.818
X14.1992Y-4.252
X14.1992Y-4.6862
X14.1992Y-5.1204
X14.1992Y-5.5546
X14.1992Y-5.9889
X14.1992Y-6.4231
X14.1992Y-6.8573
X14.1992Y-7.2915
X14.1992Y-7.7257
X14.1994Y-1.212
X14.2331Y-3.626
X14.2351Y-4.062
X14.2351Y-4.498
X14.2351Y-4.932
X14.2358Y-7.546
X14.2371Y-6.676
X14.2371Y-7.106
X14.2391Y-6.232
X14.2411Y-5.362
X14.2411Y-5.802
X14.2434Y-1.008
X14.2445Y-1.888
X14.2445Y-2.322
X14.2445Y-2.756
X14.2465Y-3.192
X14.2492Y-1.444
X14.2645Y-3.626
X14.2665Y-4.4958
X14.2665Y-4.062
X14.2678Y-7.546
X14.2685Y-6.676
X14.2685Y-7.106
X14.2691Y-4.932
X14.2704Y-6.2285
X14.2724Y-5.3589
X14.2724Y-5.7989
X14.2748Y-1.0058
X14.2758Y-1.8845
X14.276Y-2.322
X14.276Y-2.756
X14.278Y-3.192
X14.2805Y-1.4405
X14.3272Y-1.454
X14.3272Y-1.888
X14.3272Y-2.322
X14.3272Y-2.756
X14.3272Y-3.19
X14.3272Y-3.624
X14.3272Y-4.058
X14.3272Y-4.4922
X14.3272Y-4.9264
X14.3272Y-5.3606
X14.3272Y-5.7949
X14.3272Y-6.2291
X14.3272Y-6.6633
X14.3272Y-7.0975
X14.3272Y-7.5317
X14.3274Y-1.02
X14.5988Y-2.514
X14.5988Y-2.95
X14.6008Y-1.648
X14.6008Y-2.082
X14.6008Y-3.384
X14.6008Y-3.818
X14.6008Y-4.252
X14.6008Y-4.6862
X14.6008Y-5.1204
X14.6008Y-5.5546
X14.6008Y-5.9889
X14.6008Y-6.4231
X14.6008Y-6.8573
X14.6008Y-7.2915
X14.6008Y-7.7257
X14.6009Y-1.212
X14.6342Y-3.626
X14.6362Y-4.062
X14.6362Y-4.498
X14.6362Y-4.932
X14.6371Y-7.546
X14.6382Y-6.676
X14.6382Y-7.106
X14.6402Y-6.232
X14.6422Y-5.362
X14.6422Y-5.802
X14.6449Y-1.008
X14.6459Y-1.888
X14.6459Y-2.322
X14.6459Y-2.756
X14.6479Y-3.192
X14.6508Y-1.444
X14.6656Y-3.626
X14.6676Y-4.4958
X14.6676Y-4.062
X14.6691Y-7.546
X14.6696Y-6.676
X14.6696Y-7.106
X14.6702Y-4.932
X14.6715Y-6.2285
X14.6735Y-5.3589
X14.6735Y-5.7989
X14.6763Y-1.0058
X14.6772Y-1.8845
X14.6774Y-2.322
X14.6774Y-2.756
X14.6794Y-3.192
X14.6821Y-1.4405
X14.7288Y-1.454
X14.7288Y-1.888
X14.7288Y-2.322
X14.7288Y-2.756
X14.7288Y-3.19
X14.7288Y-3.624
X14.7288Y-4.058
X14.7288Y-4.4922
X14.7288Y-4.9264
X14.7288Y-5.3606
X14.7288Y-5.7949
X14.7288Y-6.2291
X14.7288Y-6.6633
X14.7288Y-7.0975
X14.7288Y-7.5317
X14.7289Y-1.02
T3
X7.5518Y-9.736
X7.7486Y-9.736
T4
X1.9712Y-8.05
X2.0712Y-8.05
X2.612Y-9.829
X2.712Y-9.829
X2.738Y-9.19
X2.738Y-9.62
X3.417Y-9.747
X3.479Y-8.991
X3.945Y-9.105
X3.978Y-9.714
X4.815Y-9.08
X5.2854Y-9.634
X5.3854Y-9.634
X5.4854Y-9.634
X6.623Y-9.119
X6.623Y-9.219
X6.623Y-9.319
X6.623Y-9.419
X9.3Y-8.4
X9.3Y-8.5
X9.3Y-8.6
X9.3Y-8.7
X9.3Y-8.8
X9.3Y-8.9
X9.3Y-9.1
X9.3Y-9.2
X9.3Y-9.3
X9.3Y-9.4
X9.3Y-9.5
X9.3Y-9.6
X9.4004Y-8.402
X9.4004Y-8.502
X9.4004Y-8.602
X9.4004Y-8.702
X9.4004Y-8.802
X9.4004Y-8.902
X9.4004Y-9.002
X9.4004Y-9.102
X9.4004Y-9.202
X9.4004Y-9.302
X9.4004Y-9.402
X9.4004Y-9.502
X9.4004Y-9.602
X9.5004Y-8.402
X9.5004Y-8.502
X9.5004Y-8.602
X9.5004Y-8.702
X9.5004Y-8.802
X9.5004Y-8.902
X9.5004Y-9.002
X9.5004Y-9.102
X9.5004Y-9.202
X9.5004Y-9.302
X9.5004Y-9.402
X9.5004Y-9.502
X9.5004Y-9.602
X9.6004Y-8.402
X9.6004Y-8.502
X9.6004Y-8.602
X9.6004Y-8.702
X9.6004Y-8.802
X9.6004Y-8.902
X9.6004Y-9.002
X9.6004Y-9.102
X9.6004Y-9.202
X9.6004Y-9.302
X9.6004Y-9.402
X9.6004Y-9.502
X9.6004Y-9.602
X9.7004Y-8.402
X9.7004Y-8.502
X9.7004Y-8.602
X9.7004Y-8.702
X9.7004Y-8.802
X9.7004Y-8.902
X9.7004Y-9.002
X9.7004Y-9.102
X9.7004Y-9.202
X9.7004Y-9.302
X9.7004Y-9.402
X9.7004Y-9.502
X9.7004Y-9.602
X9.8004Y-8.402
X9.8004Y-8.502
X9.8004Y-8.602
X9.8004Y-8.702
X9.8004Y-8.802
X9.8004Y-8.902
X9.8004Y-9.002
X9.8004Y-9.102
X9.8004Y-9.202
X9.8004Y-9.302
X9.8004Y-9.402
X9.8004Y-9.502
X9.8004Y-9.602
X9.9004Y-8.402
X9.9004Y-8.502
X9.9004Y-8.602
X9.9004Y-8.702
X9.9004Y-8.802
X9.9004Y-8.902
X9.9004Y-9.002
X9.9004Y-9.102
X9.9004Y-9.202
X9.9004Y-9.302
X9.9004Y-9.402
X9.9004Y-9.502
X9.9004Y-9.602
X10.0004Y-8.402
X10.0004Y-8.502
X10.0004Y-8.602
X10.0004Y-8.702
X10.0004Y-8.802
X10.0004Y-8.902
X10.0004Y-9.002
X10.0004Y-9.102
X10.0004Y-9.202
X10.0004Y-9.302
X10.0004Y-9.402
X10.0004Y-9.502
X10.0004Y-9.602
X10.1004Y-8.402
X10.1004Y-8.502
X10.1004Y-8.602
X10.1004Y-8.702
X10.1004Y-8.802
X10.1004Y-8.902
X10.1004Y-9.002
X10.1004Y-9.102
X10.1004Y-9.202
X10.1004Y-9.302
X10.1004Y-9.402
X10.1004Y-9.502
X10.1004Y-9.602
X10.2004Y-8.402
X10.2004Y-8.502
X10.2004Y-8.602
X10.2004Y-8.702
X10.2004Y-8.802
X10.2004Y-8.902
X10.2004Y-9.002
X10.2004Y-9.102
X10.2004Y-9.202
X10.2004Y-9.302
X10.2004Y-9.402
X10.2004Y-9.502
X10.2004Y-9.602
X10.3004Y-8.402
X10.3004Y-8.502
X10.3004Y-8.602
X10.3004Y-8.702
X10.3004Y-8.802
X10.3004Y-8.902
X10.3004Y-9.002
X10.3004Y-9.102
X10.3004Y-9.202
X10.3004Y-9.302
X10.3004Y-9.402
X10.3004Y-9.502
X10.3004Y-9.602
X10.4004Y-8.402
X10.4004Y-8.502
X10.4004Y-8.602
X10.4004Y-8.702
X10.4004Y-8.802
X10.4004Y-8.902
X10.4004Y-9.002
X10.4004Y-9.102
X10.4004Y-9.202
X10.4004Y-9.302
X10.4004Y-9.402
X10.4004Y-9.502
X10.4004Y-9.602
X10.5004Y-8.402
X10.5004Y-8.502
X10.5004Y-8.602
X10.5004Y-8.702
X10.5004Y-8.802
X10.5004Y-8.902
X10.5004Y-9.002
X10.5004Y-9.102
X10.5004Y-9.202
X10.5004Y-9.302
X10.5004Y-9.402
X10.5004Y-9.502
X10.5004Y-9.602
X10.6004Y-8.402
X10.6004Y-8.502
X10.6004Y-8.602
X10.6004Y-8.702
X10.6004Y-8.802
X10.6004Y-8.902
X10.6004Y-9.002
X10.6004Y-9.102
X10.6004Y-9.202
X10.6004Y-9.302
X10.6004Y-9.402
X10.6004Y-9.502
X10.6004Y-9.602
X10.7004Y-8.402
X10.7004Y-8.502
X10.7004Y-8.602
X10.7004Y-8.702
X10.7004Y-8.802
X10.7004Y-8.902
X10.7004Y-9.002
X10.7004Y-9.102
X10.7004Y-9.202
X10.7004Y-9.302
X10.7004Y-9.402
X10.7004Y-9.502
X10.7004Y-9.602
X10.8004Y-8.402
X10.8004Y-8.502
X10.8004Y-8.602
X10.8004Y-8.702
X10.8004Y-8.802
X10.8004Y-8.902
X10.8004Y-9.002
X10.8004Y-9.102
X10.8004Y-9.202
X10.8004Y-9.302
X10.8004Y-9.402
X10.8004Y-9.502
X10.8004Y-9.602
T2
G00X2.0145Y-8.7929
M15
G01X1.9909Y-8.7929
M16
G05
G00X2.0145Y-9.1331
M15
G01X1.9909Y-9.1331
M16
G05
G00X2.1889Y-8.7929
M15
G01X2.1456Y-8.7929
M16
G05
G00X2.1889Y-9.1331
M15
G01X2.1456Y-9.1331
M16
G05
G00X7.5124Y-9.8561
M15
G01X7.5124Y-9.8285
M16
G05
G00X7.788Y-9.8285
M15
G01X7.788Y-9.8561
M16
G05
T4
G00X2.194Y-8.3041
M15
G01X2.194Y-8.3907
M16
G05
G00X2.3712Y-8.5364
M15
G01X2.2846Y-8.5364
M16
G05
G00X2.442Y-8.2962
M15
G01X2.442Y-8.3986
M16
G05
T0
M30
